<?xml version="1.0" standalone="no"?>
<!DOCTYPE svg PUBLIC "-//W3C//DTD SVG 20010904//EN"
 "http://www.w3.org/TR/2001/REC-SVG-20010904/DTD/svg10.dtd">
<svg version="1.0" xmlns="http://www.w3.org/2000/svg"
 width="1170.000000pt" height="1351.000000pt" viewBox="0 0 1170.000000 1351.000000"
 preserveAspectRatio="xMidYMid meet">

<g transform="translate(0.000000,1351.000000) scale(0.100000,-0.100000)"
fill="#000000" stroke="none">
<path d="M0 6755 l0 -6755 5850 0 5850 0 0 6755 0 6755 -5850 0 -5850 0 0
-6755z m5378 5611 c3 -15 1 -16 -17 -5 -11 7 -17 17 -14 22 8 13 28 2 31 -17z
m-54 -1 c-4 -8 -12 -15 -20 -15 -8 0 -13 -3 -13 -7 3 -21 -2 -33 -16 -33 -17
0 -20 23 -5 51 13 23 63 27 54 4z m206 -170 c0 -8 -7 -15 -15 -15 -16 0 -20
12 -8 23 11 12 23 8 23 -8z m406 -58 c1 -32 -12 -34 -45 -8 -33 25 -23 52 16
42 21 -6 28 -14 29 -34z m-326 14 c-31 -9 -40 -41 -11 -41 11 0 22 4 25 9 3 4
27 11 53 14 43 5 50 3 71 -21 15 -18 22 -36 20 -57 -3 -29 -5 -30 -44 -27 -27
1 -46 -3 -54 -13 -8 -10 -17 -11 -31 -5 -10 6 -28 15 -39 20 -11 6 -35 10 -54
10 -21 0 -36 6 -40 15 -4 12 -14 14 -41 9 l-35 -6 27 41 c15 23 36 44 47 46
12 2 30 6 41 8 11 3 36 5 55 5 30 0 32 -1 10 -7z m1890 -131 c0 -5 -4 -10 -10
-10 -5 0 -10 5 -10 10 0 6 5 10 10 10 6 0 10 -4 10 -10z m11 -183 c-8 -8 -11
-7 -11 4 0 20 13 34 18 19 3 -7 -1 -17 -7 -23z m705 -51 c7 -29 -1 -46 -22
-46 -9 0 -14 10 -14 28 0 47 25 59 36 18z m359 -52 c25 -17 25 -34 -1 -34 -8
0 -14 7 -14 15 0 8 -4 15 -9 15 -5 0 -11 -7 -15 -15 -5 -15 -36 -22 -36 -8 0
9 33 42 43 42 4 1 19 -6 32 -15z m-1675 -4 c0 -5 -2 -10 -4 -10 -3 0 -8 5 -11
10 -3 6 -1 10 4 10 6 0 11 -4 11 -10z m1278 -19 c3 -8 -1 -12 -9 -9 -7 2 -15
10 -17 17 -3 8 1 12 9 9 7 -2 15 -10 17 -17z m-338 -11 c0 -5 -7 -10 -15 -10
-8 0 -15 5 -15 10 0 6 7 10 15 10 8 0 15 -4 15 -10z m-201 -49 c-25 -21 -50
-24 -56 -5 -5 14 59 44 71 33 5 -5 -1 -17 -15 -28z m-149 15 c0 -8 -7 -16 -15
-20 -10 -4 -15 1 -15 14 0 11 7 20 15 20 8 0 15 -6 15 -14z m184 -92 c11 -29
-6 -42 -33 -25 -12 8 -12 12 -2 25 17 20 27 20 35 0z m281 -4 c-3 -5 -10 -10
-16 -10 -5 0 -9 5 -9 10 0 6 7 10 16 10 8 0 12 -4 9 -10z m89 -5 c-6 -16 -24
-21 -24 -7 0 11 11 22 21 22 5 0 6 -7 3 -15z m126 0 c0 -8 -7 -15 -15 -15 -8
0 -15 7 -15 15 0 8 7 15 15 15 8 0 15 -7 15 -15z m-3941 -40 c0 -5 -4 -3 -9 5
-5 8 -9 22 -9 30 0 16 17 -16 18 -35z m3878 -1 c-3 -3 -12 -4 -19 -1 -8 3 -5
6 6 6 11 1 17 -2 13 -5z m-597 -84 c0 -5 -4 -10 -10 -10 -5 0 -10 5 -10 10 0
6 5 10 10 10 6 0 10 -4 10 -10z m-130 -8 c0 -13 -12 -22 -22 -16 -10 6 -1 24
13 24 5 0 9 -4 9 -8z m-514 -59 c-10 -10 -19 5 -10 18 6 11 8 11 12 0 2 -7 1
-15 -2 -18z m424 -69 c0 -8 -11 -12 -30 -11 -39 3 -39 24 0 24 18 0 30 -6 30
-13z m-390 -54 c0 -5 -2 -10 -4 -10 -3 0 -8 5 -11 10 -3 6 -1 10 4 10 6 0 11
-4 11 -10z m1213 -166 c11 -11 -3 -24 -18 -18 -8 4 -12 10 -9 15 6 11 18 12
27 3z m-4180 -28 c2 3 20 -5 38 -16 27 -17 29 -20 9 -14 -14 4 -34 8 -46 7
-11 0 -26 8 -33 19 -11 17 -10 18 7 9 11 -6 22 -8 25 -5z m-1243 -82 c0 -16
-26 -19 -35 -4 -3 6 -4 14 0 20 8 13 35 1 35 -16z m1750 12 c0 -11 -19 -15
-25 -6 -3 5 1 10 9 10 9 0 16 -2 16 -4z m-1830 -71 c0 -8 -7 -15 -15 -15 -9 0
-12 6 -9 15 4 8 10 15 15 15 5 0 9 -7 9 -15z m5107 9 c-3 -3 -12 -4 -19 -1 -8
3 -5 6 6 6 11 1 17 -2 13 -5z m-4226 -17 c-1 -12 -15 -9 -19 4 -3 6 1 10 8 8
6 -3 11 -8 11 -12z m4233 -18 c-3 -5 -10 -7 -15 -3 -5 3 -7 10 -3 15 3 5 10 7
15 3 5 -3 7 -10 3 -15z m-2714 7 c0 -3 -4 -8 -10 -11 -5 -3 -10 -1 -10 4 0 6
5 11 10 11 6 0 10 -2 10 -4z m2790 -5 c0 -12 -20 -25 -27 -18 -7 7 6 27 18 27
5 0 9 -4 9 -9z m1705 -21 c3 -5 -1 -10 -10 -10 -9 0 -13 5 -10 10 3 6 8 10 10
10 2 0 7 -4 10 -10z m-7345 -30 c0 -5 -4 -10 -9 -10 -6 0 -13 5 -16 10 -3 6 1
10 9 10 9 0 16 -4 16 -10z m5605 0 c-3 -5 -10 -10 -16 -10 -5 0 -9 5 -9 10 0
6 7 10 16 10 8 0 12 -4 9 -10z m-3425 -100 c0 -5 -4 -10 -10 -10 -5 0 -10 5
-10 10 0 6 5 10 10 10 6 0 10 -4 10 -10z m200 0 c0 -5 -4 -10 -9 -10 -6 0 -13
5 -16 10 -3 6 1 10 9 10 9 0 16 -4 16 -10z m5290 -36 c-16 -29 -25 -16 -15 23
4 19 9 23 17 15 9 -9 8 -18 -2 -38z m-80 -4 c0 -5 -4 -10 -10 -10 -5 0 -10 5
-10 10 0 6 5 10 10 10 6 0 10 -4 10 -10z m-3602 -52 c-5 -15 -48 -24 -48 -10
0 14 12 22 33 22 10 0 17 -5 15 -12z m-3165 -22 c25 -19 21 -26 -17 -26 -40 0
-54 14 -29 29 23 13 24 13 46 -3z m3162 -36 c3 -5 1 -10 -4 -10 -6 0 -11 5
-11 10 0 6 2 10 4 10 3 0 8 -4 11 -10z m-885 -37 c0 -5 -16 -18 -35 -31 -26
-16 -35 -18 -35 -8 0 7 10 21 23 29 24 17 47 22 47 10z m3750 -8 c0 -8 -4 -15
-9 -15 -13 0 -22 16 -14 24 11 11 23 6 23 -9z m-2562 -22 c5 -17 -26 -29 -40
-15 -6 6 -7 15 -3 22 9 14 37 9 43 -7z m1782 -43 c0 -20 -5 -30 -15 -30 -10 0
-15 10 -15 30 0 20 5 30 15 30 10 0 15 -10 15 -30z m1494 9 c27 -5 33 -29 7
-29 -14 0 -23 -8 -27 -25 -7 -28 -29 -33 -38 -10 -3 8 -1 25 4 37 5 14 9 17
10 8 0 -13 2 -13 9 -1 5 8 7 21 4 30 -3 10 -2 12 4 5 4 -7 17 -13 27 -15z
m-3374 1 c0 -5 -2 -10 -4 -10 -3 0 -8 5 -11 10 -3 6 -1 10 4 10 6 0 11 -4 11
-10z m-4350 -15 c-7 -8 -20 -15 -29 -15 -13 1 -13 3 3 15 26 19 42 19 26 0z
m7590 -25 c-6 -11 -13 -20 -16 -20 -2 0 0 9 6 20 6 11 13 20 16 20 2 0 0 -9
-6 -20z m-3385 0 c3 -5 -1 -10 -9 -10 -9 0 -16 5 -16 10 0 6 4 10 9 10 6 0 13
-4 16 -10z m3975 1 c0 -5 7 -16 15 -24 12 -13 12 -17 0 -27 -28 -23 -74 27
-48 53 10 10 33 8 33 -2z m-4986 -30 c3 -5 -1 -12 -10 -15 -20 -8 -29 -1 -19
13 8 13 22 14 29 2z m2923 -37 c-3 -3 -12 -4 -19 -1 -8 3 -5 6 6 6 11 1 17 -2
13 -5z m1063 -14 c0 -5 -7 -10 -16 -10 -8 0 -12 5 -9 10 3 6 10 10 16 10 5 0
9 -4 9 -10z m430 -8 c0 -5 -11 -19 -25 -32 -28 -27 -36 -8 -8 22 17 19 33 24
33 10z m-7640 -27 c0 -8 -4 -15 -9 -15 -5 0 -11 7 -15 15 -3 9 0 15 9 15 8 0
15 -7 15 -15z m1767 -91 c-9 -9 -28 6 -21 18 4 6 10 6 17 -1 6 -6 8 -13 4 -17z
m55 -19 c0 -5 -5 -11 -11 -13 -6 -2 -11 4 -11 13 0 9 5 15 11 13 6 -2 11 -8
11 -13z m-143 -32 c-6 -7 -15 -10 -20 -7 -13 8 -3 21 15 21 12 0 13 -4 5 -14z
m136 -14 c4 -11 4 -23 0 -27 -9 -9 -40 13 -43 32 -5 24 35 20 43 -5z m-220 -9
c3 -5 1 -10 -4 -10 -6 0 -11 5 -11 10 0 6 2 10 4 10 3 0 8 -4 11 -10z m-25
-71 c0 -4 7 -10 16 -13 12 -4 14 -1 9 14 -8 25 19 38 40 20 11 -10 12 -17 3
-34 -6 -11 -16 -24 -22 -28 -7 -5 -5 -8 5 -8 9 0 32 -18 52 -40 19 -22 40 -40
45 -40 5 0 12 -9 15 -19 6 -24 -30 -60 -67 -67 -25 -4 -86 19 -86 34 0 4 -9
18 -19 31 -15 20 -21 22 -39 12 -18 -9 -22 -9 -22 2 0 13 31 40 70 60 10 5 7
6 -8 3 -14 -3 -31 3 -42 14 -20 20 -30 16 -30 -12 0 -26 -16 -22 -38 10 -25
36 -33 69 -18 81 19 16 80 17 109 2 15 -9 27 -18 27 -22z m2880 22 c0 -12 -26
-32 -33 -25 -9 10 4 34 19 34 8 0 14 -4 14 -9z m-2526 -46 c3 -8 1 -15 -4 -15
-6 0 -10 7 -10 15 0 8 2 15 4 15 2 0 6 -7 10 -15z m46 5 c0 -5 -4 -10 -10 -10
-5 0 -10 5 -10 10 0 6 5 10 10 10 6 0 10 -4 10 -10z m6296 -17 c-10 -10 -19 5
-10 18 6 11 8 11 12 0 2 -7 1 -15 -2 -18z m-436 -4 c0 -5 -7 -9 -15 -9 -15 0
-20 12 -9 23 8 8 24 -1 24 -14z m-6050 -5 c0 -8 -4 -12 -10 -9 -5 3 -10 10
-10 16 0 5 5 9 10 9 6 0 10 -7 10 -16z m175 -33 c-3 -6 -11 -9 -16 -6 -17 11
-31 -6 -18 -21 6 -7 8 -21 5 -30 -4 -9 0 -27 8 -39 16 -24 12 -35 -11 -35 -8
0 -13 12 -13 30 0 17 -4 30 -10 30 -5 0 -10 9 -10 20 0 11 -7 23 -15 26 -8 4
-15 14 -15 24 0 15 9 20 43 22 45 3 63 -4 52 -21z m1115 8 c0 -5 -7 -9 -15 -9
-15 0 -20 12 -9 23 8 8 24 -1 24 -14z m-50 -35 c0 -8 -4 -12 -10 -9 -5 3 -10
10 -10 16 0 5 5 9 10 9 6 0 10 -7 10 -16z m-2350 -15 c0 -5 -9 -9 -20 -9 -17
0 -19 2 -8 14 13 14 28 12 28 -5z m851 -121 c-9 -25 -54 -48 -92 -48 -15 0
-19 8 -19 35 0 27 4 35 18 35 10 0 22 4 28 9 34 32 81 10 65 -31z m-291 22 c0
-5 -4 -10 -10 -10 -5 0 -10 5 -10 10 0 6 5 10 10 10 6 0 10 -4 10 -10z m-1010
-20 c0 -5 -7 -10 -16 -10 -8 0 -12 5 -9 10 3 6 10 10 16 10 5 0 9 -4 9 -10z
m1480 -21 c0 -23 -8 -23 -35 -3 -16 12 -17 16 -6 23 20 13 41 2 41 -20z m-334
10 c3 -6 1 -16 -5 -22 -9 -9 -14 -8 -21 3 -5 8 -10 18 -10 23 0 11 28 8 36 -4z
m-1191 -39 c-14 -27 -35 -41 -35 -23 0 7 41 53 47 53 2 0 -3 -13 -12 -30z
m169 -15 c4 -10 -1 -15 -14 -15 -11 0 -20 7 -20 15 0 8 6 15 14 15 8 0 16 -7
20 -15z m116 5 c0 -5 -2 -10 -4 -10 -3 0 -8 5 -11 10 -3 6 -1 10 4 10 6 0 11
-4 11 -10z m7834 -9 c-22 -21 -27 -21 -18 3 3 9 13 16 22 16 13 0 12 -3 -4
-19z m-7984 -91 c0 -5 -9 -14 -20 -20 -15 -8 -20 -8 -20 3 0 8 3 17 7 20 10
10 33 8 33 -3z m-410 -45 c-7 -8 -17 -15 -22 -15 -6 0 -5 7 2 15 7 8 17 15 22
15 6 0 5 -7 -2 -15z m8395 -15 c-27 -12 -43 -12 -25 0 8 5 22 9 30 9 10 0 8
-3 -5 -9z m-6230 -35 c0 -29 -20 -28 -23 1 -1 17 2 24 11 21 6 -2 12 -12 12
-22z m4989 10 c3 -8 1 -15 -4 -15 -6 0 -10 7 -10 15 0 8 2 15 4 15 2 0 6 -7
10 -15z m1515 -9 c9 -11 9 -15 -1 -19 -19 -6 -38 3 -38 19 0 18 24 18 39 0z
m-8514 -6 c-3 -5 -11 -10 -16 -10 -6 0 -7 5 -4 10 3 6 11 10 16 10 6 0 7 -4 4
-10z m8165 -4 c0 -11 -19 -15 -25 -6 -3 5 1 10 9 10 9 0 16 -2 16 -4z m-1866
-41 c3 -8 14 -15 25 -15 11 0 22 -9 26 -20 3 -11 15 -25 26 -30 10 -6 19 -15
19 -20 0 -19 -21 -10 -57 25 -20 19 -40 35 -45 35 -4 0 -8 6 -8 14 0 8 -6 17
-12 19 -8 4 -7 6 3 6 9 1 19 -6 23 -14z m455 -15 c27 0 38 -37 17 -59 -12 -12
-19 -13 -24 -4 -4 6 -20 15 -35 18 -33 9 -44 29 -27 50 9 11 17 12 30 5 10 -6
28 -10 39 -10z m505 -6 c4 -10 -2 -14 -19 -14 -28 0 -43 19 -25 30 17 10 37 3
44 -16z m333 -10 c-9 -9 -28 6 -21 18 4 6 10 6 17 -1 6 -6 8 -13 4 -17z m693
7 c0 -12 -20 -25 -27 -18 -7 7 6 27 18 27 5 0 9 -4 9 -9z m-6920 -5 c0 -3 -4
-8 -10 -11 -5 -3 -10 -1 -10 4 0 6 5 11 10 11 6 0 10 -2 10 -4z m5270 -16 c15
-11 38 -21 51 -23 38 -6 35 -34 -5 -54 -22 -10 -36 -24 -36 -35 0 -24 12 -23
28 3 12 18 19 20 65 14 29 -4 56 -11 61 -15 8 -8 -6 -65 -25 -103 -7 -12 -5
-19 6 -23 21 -9 0 -34 -28 -34 -11 0 -29 -7 -39 -17 -17 -15 -18 -15 -18 0 0
10 7 17 15 17 9 0 19 8 22 18 4 9 10 19 14 22 3 3 10 20 14 38 7 32 6 32 -32
32 -22 0 -45 6 -52 13 -7 6 -12 8 -11 2 4 -20 0 -35 -10 -35 -5 0 -10 11 -10
24 0 14 -13 38 -31 55 -24 24 -30 37 -25 56 4 14 2 25 -4 25 -5 0 -10 9 -10
20 0 26 24 26 60 0z m-5075 0 c3 -5 1 -10 -4 -10 -6 0 -11 5 -11 10 0 6 2 10
4 10 3 0 8 -4 11 -10z m-48 -56 c-10 -10 -37 16 -37 34 0 13 4 12 22 -5 12
-13 19 -25 15 -29z m111 22 c5 -6 12 -19 15 -29 6 -16 4 -16 -30 -2 -45 19
-45 19 -38 37 7 17 38 14 53 -6z m-1558 0 c0 -11 -19 -15 -25 -6 -3 5 1 10 9
10 9 0 16 -2 16 -4z m6460 -34 c0 -21 -2 -24 -10 -12 -13 20 -13 53 0 45 6 -3
10 -18 10 -33z m-90 -13 c0 -6 -4 -7 -10 -4 -5 3 -10 11 -10 16 0 6 5 7 10 4
6 -3 10 -11 10 -16z m795 -19 c3 -5 1 -10 -4 -10 -6 0 -11 5 -11 10 0 6 2 10
4 10 3 0 8 -4 11 -10z m-6000 -30 c3 -5 -1 -10 -9 -10 -9 0 -16 -7 -16 -17 0
-9 -3 -14 -6 -10 -8 8 5 47 16 47 5 0 12 -4 15 -10z m7215 1 c0 -5 -11 -11
-25 -13 -28 -6 -35 8 -7 15 28 8 32 7 32 -2z m-7126 -98 c-1 -44 -19 -55 -27
-17 -6 33 1 54 17 54 6 0 11 -15 10 -37z m6086 -4 c0 -23 -13 -25 -31 -3 -10
13 -10 17 1 24 18 11 30 3 30 -21z m-1755 -9 c10 -11 16 -20 13 -20 -3 0 -13
9 -23 20 -10 11 -16 20 -13 20 3 0 13 -9 23 -20z m1285 -41 c0 -16 -5 -29 -11
-29 -7 0 -17 -7 -24 -16 -11 -15 -12 -15 -17 4 -6 22 31 84 44 76 5 -3 8 -18
8 -35z m-438 15 c16 -16 18 -15 24 0 5 13 9 14 20 5 17 -14 18 -36 3 -41 -7
-2 -13 -17 -14 -33 -4 -59 -5 -61 -16 -42 -6 10 -9 27 -6 38 5 19 -10 41 -40
57 -9 5 -13 14 -9 21 10 15 16 14 38 -5z m-703 -28 c23 -37 26 -46 11 -46 -5
0 -19 18 -30 40 -25 49 -10 53 19 6z m-4154 4 c3 -5 1 -10 -4 -10 -6 0 -11 5
-11 10 0 6 2 10 4 10 3 0 8 -4 11 -10z m4995 -4 c0 -8 3 -23 6 -33 3 -10 -2
-7 -10 7 -18 30 -20 40 -6 40 6 0 10 -6 10 -14z m400 -21 c0 -19 5 -35 10 -35
6 0 10 -9 10 -20 0 -11 7 -20 16 -20 8 0 12 -5 9 -11 -4 -6 -14 -8 -22 -4 -13
4 -15 -2 -10 -37 3 -24 3 -35 -1 -25 -4 10 -12 17 -17 16 -18 -5 -22 55 -5 69
13 11 13 13 -1 25 -11 8 -15 22 -11 45 6 43 22 41 22 -3z m-645 15 c3 -5 1
-10 -4 -10 -6 0 -11 5 -11 10 0 6 2 10 4 10 3 0 8 -4 11 -10z m419 -11 c11 9
15 7 20 -11 3 -13 6 -37 6 -55 0 -22 6 -36 20 -43 24 -13 26 -36 3 -58 -13
-13 -17 -14 -21 -4 -2 8 -18 28 -36 46 -17 18 -39 44 -49 57 -16 22 -17 25 -1
36 16 12 16 13 0 19 -13 5 -14 9 -5 20 10 12 15 12 30 -2 14 -13 22 -14 33 -5z
m420 -11 c11 -16 13 -25 4 -35 -20 -25 -38 -15 -38 22 0 40 12 45 34 13z
m-7234 8 c0 -2 -7 -9 -15 -16 -12 -10 -15 -10 -15 4 0 9 7 16 15 16 8 0 15 -2
15 -4z m5505 -26 c0 -7 -6 -15 -12 -17 -8 -3 -13 4 -13 17 0 13 5 20 13 18 6
-3 12 -11 12 -18z m1911 -18 c1 -17 -5 -37 -12 -43 -16 -13 -19 -39 -4 -39 17
0 11 -26 -10 -45 -16 -15 -22 -15 -35 -5 -18 15 -20 28 -2 26 22 -2 23 19 0
22 -15 2 -20 8 -16 19 5 13 2 15 -15 11 -30 -8 -47 15 -30 41 15 25 29 23 43
-7 5 -12 14 -22 19 -22 15 0 35 33 36 58 0 36 24 21 26 -16z m-7196 18 c0 -5
-2 -10 -4 -10 -3 0 -8 5 -11 10 -3 6 -1 10 4 10 6 0 11 -4 11 -10z m5770 -23
c0 -5 -4 -5 -10 -2 -5 3 -10 14 -10 23 0 15 2 15 10 2 5 -8 10 -19 10 -23z
m-172 7 c6 -2 12 -8 12 -14 0 -7 -6 -8 -19 0 -11 5 -29 10 -40 10 -12 0 -21 5
-21 10 0 9 27 7 68 -6z m862 -9 c0 -8 -4 -15 -9 -15 -5 0 -14 7 -21 15 -10 13
-9 15 9 15 12 0 21 -6 21 -15z m-6506 -10 c-4 -8 -8 -15 -10 -15 -2 0 -4 7 -4
15 0 8 4 15 10 15 5 0 7 -7 4 -15z m-44 -40 c0 -8 -4 -17 -10 -20 -6 -4 -10 5
-10 20 0 15 4 24 10 20 6 -3 10 -12 10 -20z m5896 -23 c17 -16 18 -28 3 -37
-17 -11 -36 25 -30 59 3 22 6 25 9 12 2 -11 10 -26 18 -34z m1111 14 c-4 -9
-13 -13 -21 -10 -12 5 -13 10 -5 26 13 24 35 9 26 -16z m-6477 9 c0 -8 -4 -15
-10 -15 -5 0 -7 7 -4 15 4 8 8 15 10 15 2 0 4 -7 4 -15z m6281 -47 c-15 -34
-19 -38 -20 -20 -1 26 32 89 37 73 2 -5 -6 -29 -17 -53z m-421 42 c0 -5 -8
-10 -17 -10 -15 0 -16 2 -3 10 19 12 20 12 20 0z m-690 -9 c0 -5 -9 -7 -20 -4
-11 3 -20 7 -20 9 0 2 9 4 20 4 11 0 20 -4 20 -9z m850 -12 c0 -6 -4 -7 -10
-4 -5 3 -10 11 -10 16 0 6 5 7 10 4 6 -3 10 -11 10 -16z m-1020 -80 c0 -5 7
-9 15 -9 8 0 21 -13 30 -30 10 -19 20 -27 30 -24 8 4 16 1 16 -5 1 -6 3 -15 4
-21 1 -5 3 -15 4 -22 1 -9 4 -9 12 -1 9 9 16 9 30 0 14 -9 21 -9 31 1 10 10
10 14 0 21 -7 4 -10 14 -7 22 3 9 -5 27 -20 43 -33 36 -35 69 -2 38 13 -12 28
-22 33 -22 5 0 15 -14 21 -31 7 -19 16 -28 23 -24 6 4 9 13 6 21 -6 16 10 19
19 4 12 -20 -6 -50 -31 -50 -15 0 -24 -6 -24 -15 0 -8 5 -15 10 -15 6 0 10 5
10 10 0 6 7 10 15 10 8 0 15 -5 15 -11 0 -7 10 -9 25 -7 16 4 25 1 25 -8 0 -7
16 -25 35 -40 41 -31 45 -51 10 -60 -34 -8 -55 1 -55 26 0 11 -5 20 -12 20 -6
0 -20 7 -30 16 -13 12 -21 14 -30 6 -9 -7 -18 -6 -32 4 -10 7 -23 11 -28 8 -5
-3 -17 -2 -26 2 -9 4 -19 8 -22 9 -32 11 -40 18 -30 30 7 8 3 15 -15 25 -14 7
-25 17 -25 21 0 4 -18 26 -40 48 -46 46 -51 59 -15 35 14 -9 25 -20 25 -25z
m835 31 c3 -5 1 -10 -4 -10 -6 0 -11 5 -11 10 0 6 2 10 4 10 3 0 8 -4 11 -10z
m-455 -30 c0 -5 -2 -10 -4 -10 -3 0 -8 5 -11 10 -3 6 -1 10 4 10 6 0 11 -4 11
-10z m370 -5 c10 -12 10 -19 1 -28 -9 -9 -14 -9 -21 3 -22 34 -4 54 20 25z
m-5416 -39 c-22 -17 -32 -3 -13 20 8 10 15 12 23 4 7 -7 4 -14 -10 -24z m5594
23 c-2 -6 -8 -10 -13 -10 -5 0 -11 4 -13 10 -2 6 4 11 13 11 9 0 15 -5 13 -11z
m602 -9 c0 -10 -10 -24 -21 -31 -17 -9 -20 -8 -15 3 3 7 9 21 12 31 8 23 24
22 24 -3z m-1650 0 c0 -5 -4 -10 -10 -10 -5 0 -10 5 -10 10 0 6 5 10 10 10 6
0 10 -4 10 -10z m1046 -25 c19 -14 19 -14 -3 -15 -12 0 -29 3 -38 6 -13 5 -14
8 -3 15 18 12 21 11 44 -6z m-1016 -25 c5 0 21 -13 36 -29 15 -17 32 -27 37
-24 5 3 15 -4 23 -16 9 -12 19 -19 23 -16 5 2 17 -5 27 -16 14 -15 26 -19 48
-15 17 4 33 12 38 19 10 16 31 -4 23 -24 -7 -18 -63 -23 -92 -7 -13 6 -26 8
-30 3 -5 -4 -2 -10 5 -12 23 -9 12 -23 -18 -23 -37 0 -79 40 -87 83 -3 15 -16
36 -29 46 -14 11 -24 29 -23 42 1 17 3 19 6 7 2 -10 8 -18 13 -18z m382 -2
c-9 -9 -12 -7 -12 12 0 19 3 21 12 12 9 -9 9 -15 0 -24z m524 -27 c-14 -50
-26 -62 -26 -28 0 14 -5 29 -12 33 -10 6 14 23 48 34 1 0 -3 -18 -10 -39z
m-3489 -31 c14 -10 31 -16 39 -13 9 3 14 -1 14 -12 0 -15 3 -15 15 -5 21 18
29 6 13 -19 -10 -16 -10 -23 -1 -32 17 -17 43 6 36 31 -4 16 0 20 20 20 41 0
59 -10 47 -25 -7 -9 -7 -15 -1 -19 5 -4 12 -2 16 4 10 15 35 12 35 -5 0 -18
55 -21 65 -4 9 14 47 -21 41 -38 -3 -7 -1 -13 4 -13 6 0 10 8 10 18 1 16 2 16
15 -2 9 -12 22 -17 38 -14 29 6 41 -8 45 -51 3 -41 10 -51 22 -32 7 12 11 12
24 -2 9 -8 16 -25 16 -36 0 -12 4 -21 10 -21 5 0 7 -7 4 -15 -8 -20 -44 -19
-60 3 -13 16 -13 16 -14 -1 0 -10 12 -23 28 -30 15 -6 31 -16 35 -22 4 -6 7
-2 5 10 -2 12 4 21 16 23 14 3 17 0 12 -13 -9 -24 3 -38 20 -24 8 6 15 9 15 5
1 -3 2 -9 3 -13 5 -22 33 -53 47 -53 9 0 32 -14 50 -32 28 -26 30 -30 12 -26
-21 6 -21 5 -6 -28 12 -24 20 -31 28 -24 9 7 16 5 25 -5 14 -17 40 -20 40 -5
0 6 -7 10 -15 10 -8 0 -15 5 -15 10 0 15 17 12 46 -6 14 -10 23 -23 20 -30 -3
-9 2 -14 14 -14 23 0 26 -10 8 -28 -9 -9 -7 -12 11 -12 20 0 21 -2 11 -15 -10
-12 -10 -18 0 -30 6 -8 9 -23 5 -34 -4 -13 0 -23 10 -29 9 -5 16 -12 16 -15
-3 -21 1 -27 14 -27 9 0 18 -7 21 -15 4 -8 14 -15 23 -15 18 -1 71 -28 59 -31
-15 -3 -23 -6 -42 -14 -13 -6 -23 -3 -31 9 -7 9 -19 14 -29 10 -9 -4 -16 -1
-16 6 0 7 -8 10 -20 7 -20 -5 -87 38 -83 54 4 12 -14 12 -21 0 -6 -10 -61 13
-71 30 -4 5 -11 6 -18 2 -6 -4 -32 -8 -57 -9 -25 -1 -55 -2 -67 -3 -12 -1 -28
-8 -37 -16 -8 -8 -21 -15 -30 -15 -8 0 -17 -4 -20 -9 -3 -4 -20 -8 -39 -8 -18
1 -38 -2 -45 -7 -7 -4 -17 -4 -22 -1 -6 4 -16 2 -23 -3 -7 -5 -32 -13 -57 -17
-24 -4 -49 -13 -55 -21 -5 -7 -34 -14 -65 -15 -57 -3 -117 -19 -129 -35 -3 -5
-19 -15 -34 -22 -22 -10 -27 -17 -22 -33 5 -14 3 -19 -3 -15 -6 3 -13 2 -17
-4 -3 -6 1 -13 9 -16 24 -9 19 -27 -5 -21 -13 4 -22 0 -26 -11 -4 -9 -11 -20
-17 -24 -8 -6 -7 -11 3 -17 9 -6 11 -18 6 -40 -5 -26 -4 -31 12 -32 10 0 13
-3 6 -6 -21 -8 -15 -43 7 -43 22 0 49 -39 28 -41 -9 0 -8 -3 2 -6 36 -14 53
-66 25 -77 -9 -3 -15 0 -15 9 0 8 -7 15 -16 15 -12 0 -15 -6 -10 -25 7 -27
-11 -65 -28 -59 -6 2 -17 0 -25 -5 -18 -12 -7 -41 19 -48 11 -3 20 -9 20 -13
0 -5 -10 -6 -22 -2 -17 4 -20 2 -15 -11 3 -9 -1 -30 -9 -46 -17 -34 -12 -53
12 -44 9 3 4 -6 -10 -20 -14 -14 -26 -36 -26 -47 0 -16 -5 -21 -22 -18 -20 3
-23 -1 -22 -29 2 -29 -1 -32 -37 -38 -21 -4 -42 -12 -45 -17 -4 -7 -2 -8 4 -4
19 12 14 -36 -8 -79 -22 -42 -19 -71 5 -61 21 7 28 -9 10 -24 -8 -7 -25 -29
-36 -50 -21 -37 -64 -70 -92 -70 -8 0 -25 10 -39 23 l-25 23 -1 -38 c-1 -20 3
-50 9 -65 7 -15 17 -50 24 -78 11 -47 10 -51 -11 -70 -19 -17 -21 -26 -15 -66
6 -40 4 -50 -16 -73 -27 -31 -29 -58 -8 -76 14 -11 14 -15 1 -35 -8 -13 -15
-31 -14 -41 0 -11 -2 -31 -6 -45 -5 -18 -3 -29 8 -38 9 -8 16 -22 16 -32 0
-10 8 -23 18 -28 16 -10 16 -10 0 -11 -22 0 -22 -3 -4 -43 8 -18 22 -56 31
-84 9 -29 21 -53 27 -53 6 0 8 -8 6 -18 -3 -10 1 -24 9 -31 12 -11 12 -15 -1
-29 -8 -10 -16 -30 -19 -47 -4 -28 -5 -28 -12 -8 -4 13 -12 20 -17 17 -13 -8
2 69 15 77 6 4 5 13 -2 25 -10 18 -10 18 -11 -3 0 -13 -4 -23 -9 -23 -5 0 -12
-8 -15 -17 -2 -10 -2 -1 1 21 5 35 2 42 -31 72 -20 18 -36 40 -36 49 0 9 -6
26 -14 38 -31 48 -67 196 -70 292 -1 28 -9 100 -17 160 -19 145 -18 625 1 625
6 0 10 -8 11 -17 0 -12 2 -13 6 -5 4 10 10 9 25 -5 15 -14 35 -18 84 -17 54 1
74 7 121 35 30 19 58 42 61 52 2 9 10 17 17 17 16 0 39 64 32 85 -3 7 1 19 9
25 8 7 14 23 14 36 0 13 5 43 11 66 10 35 9 53 -5 100 -9 31 -16 72 -16 92 0
20 -5 55 -12 79 -10 37 -17 46 -47 57 -20 7 -43 18 -51 25 -20 17 -204 15
-222 -2 -6 -7 -22 -13 -35 -13 -13 0 -23 -3 -23 -8 0 -4 -18 -6 -40 -4 -22 2
-47 -1 -54 -7 -24 -20 -28 4 -12 81 8 40 20 105 26 143 23 153 75 332 130 445
15 30 39 81 55 112 15 31 38 69 51 83 13 14 24 31 24 36 0 6 5 7 11 3 6 -3 23
5 37 18 43 39 85 63 90 50 2 -7 14 -4 32 10 16 11 45 22 65 23 20 1 39 6 43
10 13 13 125 -6 149 -25z m3075 -25 c-5 -27 -16 -32 -28 -13 -4 6 1 17 11 25
24 17 23 17 17 -12z m340 -7 c-9 -9 -15 -9 -24 0 -10 10 -10 15 2 22 9 6 19 5
24 0 7 -7 6 -14 -2 -22z m-5372 -18 c25 -31 29 -43 21 -57 -10 -17 -10 -17
-11 0 0 10 -11 33 -25 51 -24 31 -30 46 -21 46 2 0 18 -18 36 -40z m5747 34
c-3 -3 -12 -4 -19 -1 -8 3 -5 6 6 6 11 1 17 -2 13 -5z m-5657 -21 c0 -5 -11
-13 -25 -20 -28 -13 -34 1 -7 16 21 12 32 14 32 4z m5413 0 c3 -5 8 -22 11
-40 6 -26 4 -32 -14 -38 -14 -4 -28 -1 -40 10 -19 17 -18 41 1 30 5 -4 9 5 9
19 0 24 23 37 33 19z m-6093 -27 c0 -17 -6 -21 -33 -20 -17 0 -41 5 -51 9 -17
8 -18 9 -2 21 9 6 33 12 52 11 27 -1 34 -5 34 -21z m281 14 c1 -5 2 -15 3 -20
0 -6 7 -14 14 -19 10 -6 10 -10 -3 -21 -8 -7 -15 -11 -16 -9 0 2 -2 13 -4 24
-1 11 -6 28 -10 38 -4 10 -3 17 4 17 6 0 12 -4 12 -10z m5187 -6 c21 -14 31
-54 14 -54 -14 0 -52 40 -52 55 0 19 10 19 38 -1z m1132 6 c0 -5 -4 -10 -10
-10 -5 0 -10 5 -10 10 0 6 5 10 10 10 6 0 10 -4 10 -10z m-940 -50 c0 -11 -4
-20 -10 -20 -5 0 -10 9 -10 20 0 11 5 20 10 20 6 0 10 -9 10 -20z m-6670 -40
c0 -17 -46 -38 -58 -25 -3 3 2 5 11 5 10 0 17 8 17 18 0 10 3 22 6 25 11 10
24 -3 24 -23z m80 4 c0 -8 -4 -14 -10 -14 -5 0 -10 9 -10 21 0 11 5 17 10 14
6 -3 10 -13 10 -21z m7295 -5 c-9 -14 -34 2 -28 17 4 11 9 12 19 3 8 -6 11
-15 9 -20z m-1043 -4 c0 -5 -5 -11 -11 -13 -6 -2 -11 4 -11 13 0 9 5 15 11 13
6 -2 11 -8 11 -13z m2328 -5 c6 -11 9 -20 7 -20 -2 0 -12 9 -22 20 -10 11 -13
20 -7 20 6 0 16 -9 22 -20z m-8745 0 c3 -5 1 -10 -4 -10 -6 0 -11 5 -11 10 0
6 2 10 4 10 3 0 8 -4 11 -10z m1035 -7 c14 -3 35 -14 46 -25 14 -13 24 -16 29
-9 10 17 20 13 43 -19 l23 -30 -43 0 c-32 0 -39 3 -28 10 13 9 13 11 0 19 -8
5 -17 8 -21 5 -4 -2 -12 3 -19 11 -7 8 -20 15 -30 15 -27 0 -81 25 -73 34 4 4
17 4 28 1 11 -4 31 -9 45 -12z m6513 10 c-7 -2 -19 -2 -25 0 -7 3 -2 5 12 5
14 0 19 -2 13 -5z m355 -5 c-3 -7 -13 -15 -23 -16 -15 -4 -16 -2 -4 12 17 19
32 21 27 4z m-1131 -20 c-3 -8 -6 -5 -6 6 -1 11 2 17 5 13 3 -3 4 -12 1 -19z
m-5865 -10 c-7 -7 -12 -8 -12 -2 0 14 12 26 19 19 2 -3 -1 -11 -7 -17z m6868
-8 c0 -5 -2 -10 -4 -10 -3 0 -8 5 -11 10 -3 6 -1 10 4 10 6 0 11 -4 11 -10z
m-5960 -9 c0 -5 -7 -11 -15 -15 -15 -5 -20 5 -8 17 9 10 23 9 23 -2z m5358 -9
c3 -9 -2 -13 -14 -10 -9 1 -19 9 -22 16 -3 9 2 13 14 10 9 -1 19 -9 22 -16z
m-5253 -13 c-4 -5 -13 -9 -22 -9 -13 0 -13 3 -3 15 13 15 35 11 25 -6z m-1007
-1 c9 -9 15 -9 24 0 14 14 42 1 73 -36 18 -21 30 -25 71 -25 l49 1 -67 -17
c-37 -9 -70 -19 -74 -23 -14 -15 -42 -8 -47 12 -4 17 0 20 24 20 19 0 29 5 29
15 0 8 -7 15 -15 15 -8 0 -43 8 -76 17 -46 13 -57 19 -43 24 28 11 39 10 52
-3z m3480 -21 c6 -5 12 -15 12 -21 0 -7 11 -23 25 -36 14 -13 25 -31 25 -41 0
-10 5 -21 10 -24 15 -9 12 23 -5 48 -13 21 -13 24 7 41 18 16 20 16 15 2 -4
-11 -1 -19 10 -23 9 -4 19 -1 21 5 6 20 17 14 71 -36 56 -53 61 -82 13 -82
-23 0 -24 -2 -12 -14 8 -8 41 -21 73 -30 31 -9 57 -19 57 -21 0 -3 -20 -4 -45
-3 -25 2 -45 6 -45 9 0 4 -8 9 -17 12 -24 8 -72 38 -95 60 -10 9 -24 17 -30
16 -10 0 -10 -2 0 -6 6 -2 12 -11 12 -19 0 -8 4 -14 10 -14 5 0 21 -12 36 -26
23 -24 24 -26 5 -20 -12 3 -31 9 -43 13 -15 4 -19 3 -14 -5 4 -7 1 -12 -8 -12
-19 0 -106 58 -106 71 0 5 -6 9 -12 9 -29 0 -40 16 -28 37 10 16 9 25 -4 49
-10 16 -15 21 -12 12 7 -22 -3 -28 -31 -17 -14 5 -23 17 -23 29 0 12 5 18 10
15 18 -11 50 6 50 26 0 16 5 18 28 13 15 -4 33 -11 40 -17z m-3583 -27 c38
-17 38 -19 13 -19 -16 -1 -28 4 -28 9 0 6 -9 10 -20 10 -11 0 -20 5 -20 10 0
13 8 12 55 -10z m1065 8 c0 -21 -17 -41 -29 -34 -7 5 -7 13 2 26 13 23 27 26
27 8z m2575 2 c3 -5 1 -10 -4 -10 -6 0 -11 5 -11 10 0 6 2 10 4 10 3 0 8 -4
11 -10z m-3895 -29 c-13 -9 -31 -24 -39 -33 -17 -20 -41 -24 -41 -8 0 6 -4 10
-9 10 -5 0 -7 -9 -4 -20 4 -16 0 -20 -20 -20 -24 0 -25 2 -16 30 7 18 18 30
29 30 10 0 23 6 29 14 6 7 30 13 53 13 l43 0 -25 -16z m148 2 c4 -15 -64 -18
-95 -6 -14 6 -8 9 22 14 53 8 67 7 73 -8z m179 -9 c-3 -3 -12 -4 -19 -1 -8 3
-5 6 6 6 11 1 17 -2 13 -5z m-77 -14 c0 -5 -5 -10 -11 -10 -5 0 -7 5 -4 10 3
6 8 10 11 10 2 0 4 -4 4 -10z m675 -87 c-9 -37 -18 -20 -9 19 4 18 9 27 11 20
3 -7 2 -24 -2 -39z m-2457 -27 c1 -23 -4 -36 -14 -40 -21 -8 -34 1 -28 18 3 7
-2 16 -10 19 -34 13 -16 29 40 36 6 0 11 -14 12 -33z m5655 8 c11 -14 17 -28
14 -30 -6 -7 -57 36 -57 48 0 17 26 6 43 -18z m5043 -34 c23 0 23 -1 7 -20
-15 -18 -19 -18 -34 -4 -11 10 -26 13 -43 8 -14 -3 -26 -2 -26 3 0 18 15 25
44 19 16 -3 39 -6 52 -6z m-7459 -16 c-3 -3 -12 -4 -19 -1 -8 3 -5 6 6 6 11 1
17 -2 13 -5z m-1002 -52 c13 -23 19 -51 17 -74 -4 -45 -13 -48 -29 -10 -13 31
-24 122 -14 122 3 0 15 -17 26 -38z m3325 34 c0 -2 -9 -6 -20 -9 -11 -3 -20
-1 -20 4 0 5 9 9 20 9 11 0 20 -2 20 -4z m310 -20 c0 -2 -7 -6 -15 -10 -8 -3
-15 -1 -15 4 0 6 7 10 15 10 8 0 15 -2 15 -4z m63 -19 c8 -21 -27 -87 -54
-101 -21 -11 -27 -10 -38 2 -10 10 -11 16 -2 21 6 4 9 15 5 25 -3 9 -3 16 2
14 20 -5 82 26 77 39 -3 7 -3 13 0 13 3 0 7 -6 10 -13z m-3452 -40 c-6 -6 -11
-28 -11 -49 0 -22 -5 -38 -11 -38 -13 0 -6 62 13 107 9 23 12 25 16 9 2 -10
-1 -23 -7 -29z m3026 27 c-3 -3 -12 -4 -19 -1 -8 3 -5 6 6 6 11 1 17 -2 13 -5z
m380 0 c-3 -3 -12 -4 -19 -1 -8 3 -5 6 6 6 11 1 17 -2 13 -5z m1672 -26 c-2
-25 -17 -63 -18 -46 -1 9 -9 22 -18 27 -16 9 -16 12 -3 21 21 14 40 12 39 -2z
m-6717 -30 c-15 -15 -26 -4 -18 18 5 13 9 15 18 6 9 -9 9 -15 0 -24z m262 24
c2 -4 1 -13 -3 -20 -4 -8 -11 -5 -19 8 -10 16 -10 20 2 20 8 0 17 -4 20 -8z
m8326 -12 c0 -5 -4 -10 -10 -10 -5 0 -10 5 -10 10 0 6 5 10 10 10 6 0 10 -4
10 -10z m-9480 -20 c0 -5 -4 -10 -10 -10 -5 0 -10 5 -10 10 0 6 5 10 10 10 6
0 10 -4 10 -10z m6050 -15 c7 -8 18 -15 24 -15 6 0 4 5 -4 10 -11 7 -4 10 28
10 23 0 42 -4 42 -10 0 -5 -7 -10 -15 -10 -8 0 -15 -4 -15 -10 0 -5 -11 -10
-25 -10 -14 0 -25 -6 -25 -12 -1 -8 -6 -5 -15 5 -9 13 -23 18 -46 15 -39 -4
-48 13 -17 28 33 17 54 16 68 -1z m4346 -20 c18 -45 18 -52 -5 -58 -14 -3 -17
0 -14 14 3 11 0 26 -7 34 -11 14 -8 45 5 45 3 0 13 -16 21 -35z m-4487 -25
c47 -45 92 -53 141 -23 24 14 33 15 56 4 22 -9 29 -9 35 0 5 8 10 -2 14 -25 8
-42 5 -48 -27 -48 -33 -1 -142 25 -149 35 -3 4 -16 3 -30 -2 -21 -8 -22 -10
-6 -16 9 -4 17 -16 17 -26 0 -10 5 -19 10 -19 6 0 10 -5 10 -11 0 -5 -5 -7
-10 -4 -12 7 -40 -12 -40 -26 0 -5 11 -4 24 1 22 8 24 7 23 -25 -1 -30 -3 -32
-22 -25 -12 5 -30 8 -41 7 -14 -2 -18 4 -17 20 2 13 -4 24 -15 27 -17 6 -19
18 -13 74 0 6 8 12 16 12 8 0 15 4 15 9 0 5 -7 11 -15 15 -8 3 -15 14 -15 25
0 11 -4 23 -10 26 -12 7 -13 35 -2 35 5 0 28 -18 51 -40z m3751 19 c0 -16 -51
-53 -73 -54 -11 0 -22 -6 -25 -14 -3 -10 3 -12 27 -6 18 4 31 3 31 -3 0 -14
-26 -22 -75 -22 l-44 0 35 35 c19 19 39 35 45 35 6 0 22 9 36 20 29 22 43 25
43 9z m-7120 -45 c0 -8 -4 -12 -10 -9 -5 3 -10 10 -10 16 0 5 5 9 10 9 6 0 10
-7 10 -16z m-130 -14 c0 -11 -7 -20 -15 -20 -17 0 -18 2 -9 24 9 23 24 20 24
-4z m-1413 -12 c-3 -8 -6 -5 -6 6 -1 11 2 17 5 13 3 -3 4 -12 1 -19z m4750 0
c-3 -8 -6 -5 -6 6 -1 11 2 17 5 13 3 -3 4 -12 1 -19z m88 -14 c0 -15 -6 -29
-13 -32 -10 -3 -11 26 -3 66 1 2 5 1 9 -2 4 -2 8 -17 7 -32z m2145 11 c0 -8
-4 -15 -10 -15 -5 0 -7 7 -4 15 4 8 8 15 10 15 2 0 4 -7 4 -15z m945 5 c3 -5
1 -10 -4 -10 -6 0 -11 5 -11 10 0 6 2 10 4 10 3 0 8 -4 11 -10z m-8094 -43
c-16 -16 -26 0 -10 19 9 11 15 12 17 4 2 -6 -1 -17 -7 -23z m4863 -9 c23 -23
44 -41 49 -40 4 1 7 -5 7 -13 0 -8 9 -15 20 -15 11 0 20 -4 20 -10 0 -5 -5
-10 -11 -10 -5 0 -7 -5 -4 -11 4 -6 13 -8 19 -6 7 3 13 -1 13 -9 0 -19 -16
-18 -53 5 -17 10 -45 22 -62 26 -18 3 -35 11 -39 17 -4 8 0 9 13 4 10 -5 28
-11 39 -14 20 -5 20 -5 0 17 -16 19 -17 24 -5 31 11 7 12 10 2 10 -7 0 -27 13
-45 30 -19 17 -26 30 -18 30 8 0 33 -19 55 -42z m26 28 c0 -11 -19 -15 -25 -6
-3 5 1 10 9 10 9 0 16 -2 16 -4z m4550 -63 c0 -7 -7 -13 -15 -13 -18 0 -19
-12 -2 -29 10 -10 8 -12 -7 -9 -29 5 -41 61 -19 88 l17 20 13 -23 c7 -12 12
-28 13 -34z m87 41 c11 -11 19 -12 26 -5 6 6 19 11 29 11 17 0 25 -29 19 -70
-5 -33 0 -75 9 -78 16 -6 12 -22 -5 -22 -9 0 -19 10 -24 23 -5 13 -24 36 -43
53 -26 23 -33 37 -34 67 -1 42 1 43 23 21z m113 -15 c0 -6 -4 -7 -10 -4 -5 3
-10 11 -10 16 0 6 5 7 10 4 6 -3 10 -11 10 -16z m-850 -9 c-20 -13 -40 -13
-40 0 0 6 12 10 28 10 21 0 24 -2 12 -10z m-3323 -6 c-3 -3 -12 -4 -19 -1 -8
3 -5 6 6 6 11 1 17 -2 13 -5z m3213 2 c0 -3 -4 -8 -10 -11 -5 -3 -10 -1 -10 4
0 6 5 11 10 11 6 0 10 -2 10 -4z m-524 -16 c15 0 18 -18 6 -38 -7 -10 -15 -9
-41 4 -26 13 -30 18 -20 30 7 8 19 12 26 9 8 -3 21 -5 29 -5z m-7269 -69 c0
-31 -2 -49 -4 -39 -3 13 -10 15 -33 8 -34 -10 -37 -6 -35 32 2 35 20 56 48 56
22 0 24 -5 24 -57z m821 27 c-6 -18 -28 -21 -28 -4 0 9 7 16 16 16 9 0 14 -5
12 -12z m3332 2 c0 -5 -7 -10 -16 -10 -8 0 -12 5 -9 10 3 6 10 10 16 10 5 0 9
-4 9 -10z m465 -51 c11 -16 19 -34 18 -40 -4 -13 15 -11 19 3 3 7 7 6 11 -5 5
-12 1 -17 -13 -17 -24 0 -35 -16 -18 -27 23 -14 18 -43 -8 -43 -28 0 -40 16
-25 34 12 15 4 96 -9 96 -4 0 -10 9 -13 19 -7 28 14 17 38 -20z m1565 33 c0
-14 -48 -33 -55 -22 -4 6 4 14 17 19 30 12 38 13 38 3z m-1833 -47 c-7 -7 -15
-11 -19 -8 -5 2 -8 -1 -8 -7 0 -7 6 -10 14 -7 16 6 66 -13 66 -25 0 -5 -12 -8
-26 -8 -14 0 -23 -4 -19 -10 10 -16 -5 -33 -18 -22 -15 12 -77 26 -99 23 -13
-1 -16 5 -16 28 1 34 9 38 31 17 11 -12 15 -11 25 5 6 10 9 25 6 34 -8 19 3
19 22 0 22 -22 37 -18 31 8 -6 21 -5 21 8 3 11 -14 11 -21 2 -31z m1593 35 c0
-5 -2 -10 -4 -10 -3 0 -8 5 -11 10 -3 6 -1 10 4 10 6 0 11 -4 11 -10z m2953
-17 c7 -35 1 -40 -23 -25 -11 7 -28 12 -37 12 -15 1 -14 4 6 20 32 27 48 25
54 -7z m-10613 2 c0 -8 -4 -15 -10 -15 -5 0 -10 7 -10 15 0 8 5 15 10 15 6 0
10 -7 10 -15z m1593 -59 c-7 -43 -30 -58 -49 -31 -18 25 -18 36 1 29 9 -4 17
1 20 10 3 9 7 24 10 33 10 31 25 -1 18 -41z m-829 35 c3 -4 3 -11 0 -14 -8 -8
-34 3 -34 14 0 11 27 12 34 0z m1876 -25 c0 -28 -3 -33 -18 -29 -13 3 -22 -6
-35 -35 -9 -21 -17 -49 -17 -61 0 -12 -4 -19 -10 -16 -11 7 -2 59 18 100 13
27 51 75 59 75 2 0 3 -15 3 -34z m3580 24 c0 -5 -5 -10 -11 -10 -5 0 -7 5 -4
10 3 6 8 10 11 10 2 0 4 -4 4 -10z m3585 -36 c0 -14 -7 -19 -25 -19 -26 0 -37
22 -26 52 6 14 9 14 29 0 12 -8 22 -23 22 -33z m-3930 16 c3 -5 -3 -10 -14
-10 -12 0 -21 5 -21 10 0 6 6 10 14 10 8 0 18 -4 21 -10z m2375 -32 c0 -4 -4
-8 -10 -8 -5 0 -10 4 -10 9 0 5 -3 18 -6 28 -5 16 -4 16 10 -1 9 -11 16 -23
16 -28z m1473 28 c6 -15 -1 -26 -15 -26 -4 0 -8 9 -8 20 0 23 15 27 23 6z
m-3538 -13 c0 -10 -5 -19 -10 -20 -9 -3 -10 2 -6 27 2 18 18 11 16 -7z m-3377
-41 c2 -18 -1 -32 -7 -32 -6 0 -11 6 -11 13 0 6 -3 23 -7 36 -4 18 -2 23 8 19
8 -2 15 -19 17 -36z m3082 18 c0 -5 -5 -10 -11 -10 -5 0 -7 5 -4 10 3 6 8 10
11 10 2 0 4 -4 4 -10z m-5109 -23 c-1 -4 -1 -19 -1 -33 0 -19 -4 -25 -17 -22
-17 4 -19 22 -8 56 5 14 27 13 26 -1z m7134 -27 c1 -11 -4 -20 -10 -20 -20 0
-25 12 -14 32 12 22 22 17 24 -12z m-5158 -7 c-15 -16 -17 -16 -17 -1 0 9 6
18 13 21 20 7 22 -2 4 -20z m3312 -3 c-6 -5 -19 -6 -27 -2 -13 4 -12 7 4 12
23 9 41 1 23 -10z m5121 10 c0 -5 -9 -10 -20 -10 -11 0 -20 5 -20 10 0 6 9 10
20 10 11 0 20 -4 20 -10z m-9965 -10 c3 -5 -1 -10 -9 -10 -9 0 -16 5 -16 10 0
6 4 10 9 10 6 0 13 -4 16 -10z m70 -1 c4 -6 5 -12 3 -14 -7 -7 -48 7 -48 16 0
13 37 11 45 -2z m1405 -8 c12 -23 13 -61 2 -61 -7 0 -32 57 -32 73 0 14 20 6
30 -12z m3690 10 c0 -9 -41 -23 -49 -16 -3 4 28 20 47 24 1 1 2 -3 2 -8z
m3117 -3 c4 -7 8 -17 9 -23 1 -5 3 -14 5 -20 8 -21 -17 -19 -26 3 -5 12 -16
22 -24 22 -11 0 -11 3 -1 15 15 18 26 19 37 3z m-6867 -32 c0 -13 -7 -26 -15
-30 -8 -3 -15 -15 -15 -26 0 -11 -5 -20 -11 -20 -15 0 -3 82 14 92 20 13 27 9
27 -16z m3465 15 c3 -5 1 -12 -5 -16 -5 -3 -10 1 -10 9 0 18 6 21 15 7z
m-5385 -5 c0 -3 -4 -8 -10 -11 -5 -3 -10 -1 -10 4 0 6 5 11 10 11 6 0 10 -2
10 -4z m5260 -26 c0 -5 -5 -10 -11 -10 -5 0 -7 5 -4 10 3 6 8 10 11 10 2 0 4
-4 4 -10z m45 0 c3 -6 -1 -13 -9 -16 -9 -3 -13 -10 -10 -15 3 -5 -2 -9 -11 -9
-12 0 -15 5 -11 16 3 9 6 20 6 25 0 12 27 12 35 -1z m4161 -1 c10 -17 -13 -36
-27 -22 -12 12 -4 33 11 33 5 0 12 -5 16 -11z m961 -11 c-3 -8 -6 -5 -6 6 -1
11 2 17 5 13 3 -3 4 -12 1 -19z m-4979 -20 c3 -14 -5 -17 -47 -16 -34 1 -51 6
-51 14 0 27 93 29 98 2z m-2618 -21 c0 -19 -37 -50 -49 -42 -17 10 -13 33 7
44 24 15 42 13 42 -2z m6185 3 c3 -5 -1 -10 -10 -10 -9 0 -13 5 -10 10 3 6 8
10 10 10 2 0 7 -4 10 -10z m457 -12 c-6 -6 -15 -8 -19 -4 -4 4 -1 11 7 16 19
12 27 3 12 -12z m-2982 -8 c0 -5 -5 -10 -11 -10 -12 0 -79 -50 -118 -88 -26
-26 -36 -24 -27 6 11 32 42 62 65 62 12 0 24 7 28 16 3 8 12 13 19 10 7 -3 16
-1 19 4 8 13 25 13 25 0z m-4612 -55 c0 -16 -2 -15 -8 5 -11 34 -11 60 0 35 5
-11 8 -29 8 -40z m3747 45 c3 -5 1 -10 -4 -10 -6 0 -11 5 -11 10 0 6 2 10 4
10 3 0 8 -4 11 -10z m-979 -13 c4 -4 -2 -7 -14 -7 -12 0 -22 4 -22 9 0 10 26
9 36 -2z m757 -9 c13 -18 16 -19 16 -7 1 9 8 20 17 23 18 7 63 -23 64 -41 0
-7 5 -13 12 -13 6 0 8 -3 5 -6 -4 -4 -18 1 -33 11 -18 12 -29 14 -37 6 -7 -7
-6 -12 4 -15 8 -2 22 -7 32 -10 9 -3 17 -14 17 -25 0 -25 31 -37 46 -17 13 18
34 21 34 6 0 -5 -4 -10 -10 -10 -5 0 -10 -9 -10 -21 0 -16 -4 -19 -20 -14 -14
5 -20 2 -20 -9 0 -9 5 -16 11 -16 8 0 8 -5 -1 -15 -7 -8 -28 -15 -46 -15 -43
0 -43 -13 1 -43 26 -18 32 -26 23 -35 -7 -7 -17 -12 -24 -12 -6 0 -17 -6 -23
-14 -16 -19 4 -60 25 -52 8 3 14 1 14 -4 0 -9 -18 -15 -65 -22 -11 -2 -21 -12
-23 -23 -5 -28 -68 -57 -93 -42 -22 13 -38 2 -21 -15 12 -12 17 -48 7 -48 -3
0 -14 9 -25 20 -16 16 -25 18 -40 10 -15 -8 -32 -7 -62 2 -32 9 -42 10 -46 0
-2 -7 -10 -12 -18 -12 -8 0 -14 -8 -14 -18 0 -20 -33 -52 -55 -52 -15 0 -16
24 -2 46 4 7 -2 14 -14 17 -22 6 -42 -24 -21 -31 19 -6 14 -22 -6 -22 -10 0
-22 -4 -27 -9 -22 -20 -53 -22 -70 -4 -17 17 -19 16 -33 -5 -8 -12 -23 -22
-34 -22 -17 0 -19 -5 -13 -30 4 -18 3 -30 -4 -30 -6 0 -7 -11 -1 -29 6 -22 5
-31 -7 -35 -8 -3 -11 -11 -7 -18 5 -8 0 -9 -16 -5 -14 4 -35 -1 -52 -11 -22
-13 -30 -14 -40 -4 -21 21 -36 13 -43 -20 -4 -18 -14 -41 -23 -50 -10 -12 -11
-18 -3 -18 6 0 14 7 18 16 5 13 15 15 49 9 40 -6 44 -4 44 14 0 12 5 21 10 21
6 0 8 -11 4 -27 -10 -42 -14 -45 -45 -39 -23 4 -32 0 -52 -26 -14 -17 -35 -31
-48 -32 -34 -3 -46 6 -23 16 14 6 12 7 -9 3 -19 -4 -29 -1 -33 9 -3 8 -12 12
-20 9 -10 -4 -14 4 -14 31 0 35 -1 36 -32 34 -27 -3 -32 0 -30 15 2 9 -3 18
-10 18 -7 1 -20 2 -28 3 -8 0 -14 9 -12 19 2 9 -2 17 -8 17 -5 0 -10 9 -10 19
0 11 -5 23 -11 26 -6 4 -8 13 -5 20 2 7 -6 18 -20 25 -15 8 -24 22 -24 36 0
13 -7 27 -16 32 -21 12 -10 48 16 55 16 4 18 11 13 40 -3 20 -1 37 6 41 6 4
11 20 11 35 0 26 38 71 60 71 5 0 12 11 16 24 9 35 74 45 95 14 3 -4 20 -3 38
3 19 7 55 9 85 5 58 -6 167 10 177 26 4 6 30 13 58 16 28 2 54 9 57 13 3 5 14
9 25 9 11 0 22 6 25 14 3 8 14 14 25 13 23 -2 24 -6 2 -22 -15 -11 -15 -13 6
-20 21 -6 36 -2 91 25 8 4 16 16 18 28 4 23 37 39 96 45 10 1 24 11 30 22 6
10 17 25 24 33 6 7 12 20 12 28 0 8 5 14 11 14 7 0 9 -10 5 -25 -5 -20 -3 -25
14 -25 11 0 20 7 20 15 0 8 5 15 10 15 6 0 10 7 10 15 0 8 -7 15 -15 15 -20 0
-19 10 3 26 25 19 37 17 55 -8z m137 12 c0 -5 -2 -10 -4 -10 -3 0 -8 5 -11 10
-3 6 -1 10 4 10 6 0 11 -4 11 -10z m-850 -50 c29 -29 25 -49 -14 -65 -35 -15
-146 -26 -146 -15 0 3 13 14 30 23 16 10 33 30 36 45 4 15 12 30 18 35 16 11
54 -1 76 -23z m942 18 c-9 -9 -15 -9 -24 0 -9 9 -7 12 12 12 19 0 21 -3 12
-12z m-2242 -8 c12 -8 9 -10 -12 -10 -14 0 -29 -6 -31 -12 -3 -7 -6 -3 -6 10
-1 24 22 30 49 12z m2295 0 c3 -5 -1 -10 -10 -10 -9 0 -13 5 -10 10 3 6 8 10
10 10 2 0 7 -4 10 -10z m-3223 -35 c0 -5 -5 -11 -11 -13 -6 -2 -11 4 -11 13 0
9 5 15 11 13 6 -2 11 -8 11 -13z m-1702 -76 c0 -5 -4 -9 -10 -9 -5 0 -10 7
-10 16 0 8 5 12 10 9 6 -3 10 -10 10 -16z m1970 11 c0 -5 -5 -10 -11 -10 -5 0
-7 5 -4 10 3 6 8 10 11 10 2 0 4 -4 4 -10z m841 -3 c36 -18 69 -50 69 -64 0
-7 -24 -37 -54 -67 -42 -42 -59 -54 -80 -52 -17 2 -26 -2 -26 -10 0 -19 -35
-18 -54 1 -8 9 -19 16 -23 15 -4 0 -8 6 -8 13 0 8 14 11 47 9 44 -4 48 -2 64
30 9 18 18 56 19 83 2 28 3 51 4 53 3 5 20 1 42 -11z m2875 -123 c10 -90 9
-129 -3 -97 -11 32 -41 54 -78 59 -52 7 -95 24 -95 36 0 6 11 7 25 4 33 -8 75
3 75 20 0 8 5 14 10 14 6 0 10 7 10 16 0 24 20 56 33 51 7 -2 16 -44 23 -103z
m-6056 37 c0 -6 -10 -17 -22 -25 -12 -9 -19 -16 -15 -16 5 0 5 -5 2 -10 -4 -6
-11 -7 -17 -4 -6 4 -6 10 1 17 6 6 11 19 11 29 0 11 7 18 20 18 11 0 20 -4 20
-9z m7805 -1 c3 -5 -1 -10 -9 -10 -9 0 -16 5 -16 10 0 6 4 10 9 10 6 0 13 -4
16 -10z m-7535 -41 c0 -5 -7 -9 -15 -9 -15 0 -20 12 -9 23 8 8 24 -1 24 -14z
m3755 1 c3 -5 -1 -10 -9 -10 -9 0 -16 5 -16 10 0 6 4 10 9 10 6 0 13 -4 16
-10z m-3978 -22 c-3 -8 -6 -5 -6 6 -1 11 2 17 5 13 3 -3 4 -12 1 -19z m8621
11 c-2 -6 -8 -10 -13 -10 -5 0 -11 4 -13 10 -2 6 4 11 13 11 9 0 15 -5 13 -11z
m467 1 c-3 -5 -11 -10 -16 -10 -6 0 -7 5 -4 10 3 6 11 10 16 10 6 0 7 -4 4
-10z m-7840 -10 c-3 -5 -10 -10 -16 -10 -5 0 -9 5 -9 10 0 6 7 10 16 10 8 0
12 -4 9 -10z m-1451 -25 c-4 -8 -10 -15 -15 -15 -5 0 -9 7 -9 15 0 8 7 15 15
15 9 0 12 -6 9 -15z m7961 5 c-3 -5 -14 -10 -23 -10 -15 0 -15 2 -2 10 20 13
33 13 25 0z m1311 -17 c-10 -10 -19 5 -10 18 6 11 8 11 12 0 2 -7 1 -15 -2
-18z m-7796 7 c0 -5 -7 -10 -16 -10 -8 0 -12 5 -9 10 3 6 10 10 16 10 5 0 9
-4 9 -10z m-1358 -22 c6 -13 12 -34 12 -48 0 -22 -4 -25 -34 -25 -31 0 -35 3
-32 25 6 51 13 70 27 70 8 0 20 -10 27 -22z m5717 -59 c10 0 11 -2 4 -6 -7 -2
-13 -9 -13 -14 0 -4 6 -6 14 -3 8 3 17 1 21 -5 10 -17 -4 -49 -26 -56 -10 -4
-19 -13 -19 -21 0 -23 -19 -16 -25 9 -7 29 -9 74 -6 112 l2 30 16 -22 c8 -13
23 -23 32 -24z m876 1 c3 -5 -1 -10 -9 -10 -9 0 -16 5 -16 10 0 6 4 10 9 10 6
0 13 -4 16 -10z m-6742 -40 c40 -43 40 -59 1 -91 -14 -11 -18 -11 -22 -1 -2 7
-14 25 -25 40 -24 29 -26 92 -4 92 7 0 29 -18 50 -40z m8447 36 c0 -2 -7 -7
-16 -10 -8 -3 -12 -2 -9 4 6 10 25 14 25 6z m-2183 -53 c-3 -10 -5 -2 -5 17 0
19 2 27 5 18 2 -10 2 -26 0 -35z m2137 -53 c-4 -19 -10 -42 -15 -50 -6 -13 -9
-12 -15 3 -4 12 -13 16 -25 12 -17 -6 -18 -4 -8 19 7 15 21 26 31 26 12 0 19
6 17 18 -3 30 1 38 11 22 5 -8 7 -31 4 -50z m-2467 25 c-4 -8 -14 -14 -24 -14
-17 1 -17 2 0 6 9 2 17 12 17 20 0 9 3 14 6 10 4 -3 4 -13 1 -22z m-6297 -15
c-11 -20 -30 -28 -30 -12 0 11 22 32 32 32 5 0 4 -9 -2 -20z m8838 2 c4 -14
-34 -16 -42 -3 -6 10 13 21 28 17 6 -1 12 -8 14 -14z m-9598 -65 c0 -26 12
-47 26 -47 15 0 19 -16 6 -24 -24 -14 -50 8 -61 52 -27 105 -27 101 2 66 15
-18 27 -39 27 -47z m1180 32 c15 -27 6 -49 -21 -49 -17 0 -20 4 -15 23 3 12 6
28 6 35 0 19 18 14 30 -9z m2368 9 c18 -18 15 -28 -8 -28 -12 0 -20 -7 -20
-17 0 -12 -3 -14 -11 -6 -13 13 -1 63 15 63 7 0 17 -5 24 -12z m6108 -3 c17
-9 40 -13 56 -9 20 4 29 0 38 -15 6 -12 17 -21 24 -21 7 0 21 -9 31 -20 18
-20 17 -20 -39 -20 -53 0 -58 2 -74 30 -13 22 -23 29 -42 27 -19 -1 -26 3 -28
21 -4 26 -3 26 34 7z m-8066 -5 c0 -5 -4 -10 -10 -10 -5 0 -10 5 -10 10 0 6 5
10 10 10 6 0 10 -4 10 -10z m5776 -35 c-6 -21 -12 -29 -14 -20 -5 24 7 67 17
61 4 -3 3 -22 -3 -41z m-4603 26 c4 -1 7 -6 7 -12 0 -13 -68 -5 -82 9 -7 7 33
9 75 3z m-108 -31 c3 -5 -1 -10 -10 -10 -9 0 -13 5 -10 10 3 6 8 10 10 10 2 0
7 -4 10 -10z m-295 -10 c0 -5 -4 -10 -10 -10 -5 0 -10 5 -10 10 0 6 5 10 10
10 6 0 10 -4 10 -10z m120 0 c0 -5 -5 -10 -11 -10 -5 0 -7 5 -4 10 3 6 8 10
11 10 2 0 4 -4 4 -10z m-1015 -21 c24 -13 41 -17 43 -11 5 15 42 -8 42 -25 0
-12 -6 -14 -50 -17 -8 -1 -20 -4 -27 -9 -14 -9 -86 59 -78 74 9 14 27 11 70
-12z m7929 -17 c1 -35 -8 -42 -19 -14 -14 31 -12 53 3 50 9 -2 15 -15 16 -36z
m-8094 8 c0 -5 9 -10 20 -10 11 0 20 -6 20 -14 0 -12 -6 -12 -32 -3 -42 15
-41 14 -33 26 8 14 25 14 25 1z m6036 -44 c-10 -25 -21 -36 -35 -36 -12 0 -21
3 -21 7 0 10 63 74 67 69 2 -2 -3 -20 -11 -40z m-1546 27 c0 -5 -5 -15 -10
-23 -8 -12 -10 -11 -10 8 0 12 5 22 10 22 6 0 10 -3 10 -7z m-4630 -24 c0 -5
-7 -9 -15 -9 -8 0 -15 7 -15 15 0 9 6 12 15 9 8 -4 15 -10 15 -15z m1330 -9
c0 -10 -5 -22 -10 -25 -13 -8 -24 20 -16 41 8 20 26 9 26 -16z m260 20 c0 -5
-7 -10 -15 -10 -8 0 -15 5 -15 10 0 6 7 10 15 10 8 0 15 -4 15 -10z m5330 -14
c0 -2 -7 -6 -15 -10 -8 -3 -15 -1 -15 4 0 6 7 10 15 10 8 0 15 -2 15 -4z
m1923 -14 c15 -16 15 -19 -3 -30 -23 -14 -49 -3 -69 29 -10 17 -8 19 22 19 20
0 41 -7 50 -18z m-4192 -5 c-1 -12 -15 -9 -19 4 -3 6 1 10 8 8 6 -3 11 -8 11
-12z m-1146 -27 c-3 -5 -10 -10 -16 -10 -5 0 -9 5 -9 10 0 6 7 10 16 10 8 0
12 -4 9 -10z m5129 -5 c3 -10 -1 -15 -13 -15 -10 0 -21 7 -25 15 -3 10 1 15
13 15 10 0 21 -7 25 -15z m-2594 -10 c0 -8 -9 -15 -19 -15 -11 0 -23 -4 -26
-10 -3 -5 -12 -10 -18 -10 -7 0 1 11 17 25 33 29 46 31 46 10z m3830 -5 c0 -5
-4 -10 -10 -10 -5 0 -10 5 -10 10 0 6 5 10 10 10 6 0 10 -4 10 -10z m-1120
-10 c0 -5 -2 -10 -4 -10 -3 0 -8 5 -11 10 -3 6 -1 10 4 10 6 0 11 -4 11 -10z
m-8640 -15 c0 -8 -5 -15 -10 -15 -6 0 -15 -11 -22 -24 -6 -14 -17 -28 -26 -31
-27 -10 -25 4 7 35 17 17 31 36 31 41 0 5 5 9 10 9 6 0 10 -7 10 -15z m-948
-20 c0 -5 -5 -11 -11 -13 -6 -2 -11 4 -11 13 0 9 5 15 11 13 6 -2 11 -8 11
-13z m7026 -41 c-2 -8 -7 -14 -12 -14 -15 3 -25 -23 -15 -41 5 -10 9 -28 8
-41 0 -21 -1 -21 -8 -3 -7 18 -8 18 -18 1 -8 -15 -12 -16 -18 -5 -5 7 -4 14 3
17 15 5 16 44 1 59 -14 14 -3 34 15 27 8 -3 17 -1 21 5 10 17 27 13 23 -5z
m700 -1 c-10 -2 -18 -10 -18 -17 0 -7 -7 -13 -15 -13 -8 0 -15 6 -15 13 0 12
21 22 50 22 10 0 9 -2 -2 -5z m73 -26 c8 -31 6 -33 -20 -11 -11 10 -17 23 -14
31 8 21 26 10 34 -20z m-881 -10 c25 7 45 -30 30 -57 -11 -21 -40 -40 -61 -40
-10 0 -10 3 -1 12 17 17 15 41 -3 34 -11 -4 -15 1 -15 17 0 24 22 55 28 38 2
-5 11 -7 22 -4z m-3800 -31 c0 -8 14 -13 37 -14 20 -1 41 -6 46 -11 15 -15
-36 -24 -76 -13 -36 10 -57 1 -57 -24 0 -12 -29 -28 -37 -20 -5 5 47 87 61 98
13 9 26 0 26 -16z m7195 14 c-3 -5 -11 -10 -16 -10 -6 0 -7 5 -4 10 3 6 11 10
16 10 6 0 7 -4 4 -10z m-2269 -31 c3 -6 0 -15 -7 -20 -13 -7 -28 5 -29 24 0
11 28 8 36 -4z m669 1 c3 -5 2 -10 -4 -10 -5 0 -13 5 -16 10 -3 6 -2 10 4 10
5 0 13 -4 16 -10z m1951 -25 c-3 -9 -11 -13 -16 -10 -8 5 -7 11 1 21 14 18 24
11 15 -11z m-5391 -15 c-3 -5 -10 -10 -16 -10 -5 0 -9 5 -9 10 0 6 7 10 16 10
8 0 12 -4 9 -10z m4699 -62 c8 -13 7 -21 -1 -29 -16 -16 -42 5 -40 32 2 23 25
21 41 -3z m-6976 -35 c9 -27 8 -33 -4 -33 -10 0 -14 11 -14 37 0 42 3 41 18
-4z m4537 27 c3 -5 2 -10 -4 -10 -5 0 -13 5 -16 10 -3 6 -2 10 4 10 5 0 13 -4
16 -10z m1735 -24 c0 -21 -6 -36 -15 -40 -11 -4 -15 2 -15 28 0 18 3 36 7 39
14 15 23 5 23 -27z m135 -3 c7 -9 10 -23 8 -30 -4 -9 -10 -5 -19 13 -8 14 -14
28 -14 30 0 10 14 2 25 -13z m-5100 -18 c-3 -14 -8 -37 -11 -52 -8 -42 -28
-83 -39 -83 -5 0 -17 -5 -25 -10 -13 -9 -13 -11 0 -20 13 -8 13 -10 -2 -10
-23 0 -32 -18 -18 -35 9 -11 7 -19 -14 -38 -14 -13 -26 -32 -26 -41 0 -9 -6
-16 -13 -16 -21 0 -27 10 -17 29 4 9 14 31 20 49 7 17 16 32 21 32 5 0 9 7 9
15 0 15 43 99 65 125 7 8 18 30 26 48 16 38 32 43 24 7z m3235 -10 c0 -8 -4
-15 -10 -15 -5 0 -10 7 -10 15 0 8 5 15 10 15 6 0 10 -7 10 -15z m-10 -36 c0
-5 -2 -9 -4 -9 -2 0 -11 -3 -19 -6 -12 -4 -14 0 -10 15 5 19 33 19 33 0z
m-4347 4 c-7 -2 -21 -2 -30 0 -10 3 -4 5 12 5 17 0 24 -2 18 -5z m-218 -36 c0
-26 -20 -25 -23 2 -3 16 1 22 10 19 7 -3 13 -12 13 -21z m4817 -68 c-2 -24 -7
-48 -12 -53 -9 -9 -70 23 -70 38 0 15 60 68 73 63 8 -2 11 -20 9 -48z m-7782
-82 c0 -5 -4 -5 -10 -2 -5 3 -10 14 -10 23 0 15 2 15 10 2 5 -8 10 -19 10 -23z
m8292 11 c-7 -7 -12 -8 -12 -2 0 14 12 26 19 19 2 -3 -1 -11 -7 -17z m-3850
-19 c2 -6 19 -14 38 -18 26 -5 35 -12 35 -26 0 -16 -6 -19 -30 -17 -16 2 -36
9 -43 14 -7 6 -27 8 -46 5 -21 -3 -41 0 -52 7 -15 12 -13 14 22 21 21 5 42 8
47 7 4 -1 7 3 7 8 0 13 17 13 22 -1z m258 1 c0 -5 -7 -10 -16 -10 -8 0 -12 5
-9 10 3 6 10 10 16 10 5 0 9 -4 9 -10z m-115 -40 c-7 -11 -38 -13 -48 -4 -3 4
4 15 16 24 19 15 23 16 30 4 4 -8 5 -19 2 -24z m2935 30 c0 -5 -4 -10 -10 -10
-5 0 -10 5 -10 10 0 6 5 10 10 10 6 0 10 -4 10 -10z m807 4 c-3 -3 -12 -4 -19
-1 -8 3 -5 6 6 6 11 1 17 -2 13 -5z m-5901 -31 c18 -24 17 -30 -5 -36 -12 -3
-22 1 -25 10 -16 41 5 59 30 26z m7719 -33 c-3 -5 -13 -10 -21 -10 -8 0 -12 5
-9 10 3 6 13 10 21 10 8 0 12 -4 9 -10z m-2567 -24 c7 -33 -16 -43 -41 -18
-19 19 -20 24 -7 32 22 14 44 8 48 -14z m-4528 -66 c-11 -30 -26 -61 -34 -69
-13 -12 -16 -11 -22 13 -7 27 9 57 29 53 6 -1 13 7 15 18 4 21 22 48 28 42 2
-2 -5 -28 -16 -57z m-2960 29 c-7 -11 -14 -19 -16 -16 -7 7 7 37 17 37 6 0 5
-9 -1 -21z m96 -31 c-22 -35 -43 -13 -25 26 11 23 13 24 24 9 10 -13 10 -22 1
-35z m1964 27 c0 -11 -27 -52 -54 -82 -23 -26 -33 -30 -48 -22 -35 19 -11 57
27 43 9 -4 22 6 36 30 18 31 39 47 39 31z m1710 -3 c0 -13 -31 -52 -41 -52 -5
0 -3 14 6 30 14 28 35 41 35 22z m3445 -71 c-9 -16 -25 -3 -18 15 4 10 9 12
15 6 6 -6 7 -15 3 -21z m-3834 -11 c43 -35 59 -53 53 -59 -4 -3 -9 0 -11 7 -3
6 -11 12 -18 12 -8 0 -19 9 -25 20 -6 11 -17 20 -25 20 -7 0 -17 5 -20 10 -11
17 21 11 46 -10z m-383 -22 c-1 -18 -10 -41 -20 -51 -11 -11 -16 -26 -13 -37
4 -13 -1 -19 -19 -22 -19 -4 -25 0 -29 19 -3 15 0 23 10 23 7 0 17 8 21 18 9
21 46 82 50 82 1 0 1 -15 0 -32z m1362 17 c0 -8 5 -15 10 -15 6 0 10 7 10 15
0 8 5 15 10 15 6 0 10 -6 10 -14 0 -8 5 -18 12 -22 7 -4 8 -3 4 4 -12 20 4 35
21 21 12 -10 16 -10 24 2 8 10 9 9 4 -8 -8 -30 11 -38 35 -15 13 12 30 17 44
15 13 -3 27 0 30 6 4 6 16 11 26 11 28 0 15 -26 -21 -40 -26 -11 -29 -17 -24
-41 6 -24 4 -28 -17 -26 -13 0 -26 5 -29 10 -4 5 -20 2 -36 -6 -18 -10 -35
-12 -43 -7 -8 5 -22 4 -34 -2 -12 -7 -34 -14 -50 -17 -38 -8 -43 -24 -11 -41
33 -18 32 -27 -7 -32 -45 -7 -66 1 -72 26 -2 11 -3 -1 -1 -29 2 -27 0 -54 -5
-60 -7 -8 -1 -16 18 -26 15 -8 33 -22 40 -31 7 -10 22 -18 32 -18 10 0 23 -7
27 -15 7 -12 19 -13 73 -4 44 7 66 7 68 0 2 -6 18 -8 35 -5 l32 5 -22 -19
c-13 -11 -23 -23 -23 -27 0 -4 27 -4 60 0 l59 7 -2 -42 c-1 -29 -7 -45 -20
-52 -18 -9 -31 -5 -33 10 -3 23 -19 41 -40 46 -34 9 -47 -1 -34 -24 7 -13 7
-21 0 -25 -5 -3 -10 -17 -10 -30 0 -34 -10 -55 -27 -55 -8 0 -12 4 -9 9 3 4 0
20 -7 35 -13 28 -57 37 -57 12 0 -8 -6 -16 -12 -19 -10 -3 -10 -8 1 -21 11
-13 11 -20 3 -28 -9 -9 -12 -8 -12 5 0 23 -17 21 -25 -3 -3 -11 -11 -20 -16
-20 -5 0 -14 9 -21 20 -7 11 -21 20 -30 20 -42 0 -80 75 -48 95 17 10 11 28
-6 21 -14 -5 -15 -4 -5 8 9 11 9 16 0 21 -6 4 -9 19 -6 34 8 38 -9 103 -30
119 -10 7 -17 19 -15 27 1 7 -2 16 -8 20 -18 11 -11 54 10 65 11 6 20 16 20
23 0 16 64 60 68 47 5 -14 21 -12 39 5 8 9 12 22 9 31 -6 15 11 43 27 44 4 0
7 -7 7 -15z m-2435 -25 c3 -5 -1 -10 -9 -10 -9 0 -16 5 -16 10 0 6 4 10 9 10
6 0 13 -4 16 -10z m2708 -45 c1 -5 -13 -11 -30 -13 -34 -3 -46 13 -15 21 24 7
43 4 45 -8z m477 -10 c0 -17 -2 -18 -25 -9 -13 5 -14 8 -3 15 19 13 28 11 28
-6z m6014 -28 c-3 -18 -12 -36 -18 -40 -8 -6 -8 -10 2 -14 6 -2 12 -14 12 -25
0 -19 -2 -19 -27 7 -19 19 -24 29 -15 32 19 7 14 30 -8 36 -30 8 -24 22 13 33
43 13 49 8 41 -29z m-4024 14 c0 -12 -29 -35 -36 -28 -11 10 5 37 21 37 8 0
15 -4 15 -9z m-84 -30 c-4 -6 -19 -11 -34 -11 l-27 0 25 20 c25 19 49 13 36
-9z m-5022 1 c5 -3 2 -9 -7 -14 -12 -6 -15 -19 -11 -48 4 -32 2 -40 -11 -40
-12 0 -15 6 -10 22 6 16 1 26 -16 39 -23 17 -23 18 -5 38 16 18 31 19 60 3z
m686 -31 c0 -29 -33 -81 -44 -70 -4 4 0 19 8 35 8 16 17 37 20 47 8 26 16 20
16 -12z m7518 -10 c3 -8 -3 -12 -14 -9 -23 4 -31 27 -8 24 10 -2 20 -8 22 -15z
m-7228 -1 c0 -5 -7 -10 -15 -10 -8 0 -15 5 -15 10 0 6 7 10 15 10 8 0 15 -4
15 -10z m538 -19 c3 -8 -1 -12 -9 -9 -7 2 -15 10 -17 17 -3 8 1 12 9 9 7 -2
15 -10 17 -17z m-68 -31 c0 -4 -13 -22 -30 -40 -35 -37 -39 -31 -9 11 11 16
18 29 14 29 -3 0 -3 5 0 10 7 11 25 4 25 -10z m100 1 c0 -6 -4 -13 -10 -16 -5
-3 -10 -16 -10 -28 0 -16 -3 -18 -9 -9 -5 8 -4 24 3 38 11 24 26 32 26 15z
m584 0 c3 -5 -1 -11 -9 -15 -9 -3 -15 0 -15 9 0 16 16 20 24 6z m893 3 c-3 -3
-12 -4 -19 -1 -8 3 -5 6 6 6 11 1 17 -2 13 -5z m3353 -46 c0 -15 -4 -30 -10
-33 -6 -4 -10 12 -10 42 0 35 3 44 10 33 5 -8 10 -27 10 -42z m-5978 30 c-9
-9 -15 -9 -24 0 -9 9 -7 12 12 12 19 0 21 -3 12 -12z m448 -21 c12 -4 11 -6
-2 -6 -10 -1 -18 -7 -18 -15 0 -26 -22 -29 -44 -6 -11 13 -16 20 -9 16 8 -4
15 3 19 19 6 23 8 24 23 12 9 -8 23 -17 31 -20z m8267 -3 c-9 -9 -28 6 -21 18
4 6 10 6 17 -1 6 -6 8 -13 4 -17z m-11587 7 c0 -6 -4 -13 -10 -16 -5 -3 -10 1
-10 9 0 9 5 16 10 16 6 0 10 -4 10 -9z m5492 -21 c-2 -7 5 -9 18 -5 20 6 50
-9 50 -26 0 -4 -10 -9 -22 -11 -24 -3 -40 -48 -17 -48 8 0 8 -4 -2 -16 -10
-13 -10 -17 0 -24 20 -12 3 -53 -19 -47 -10 3 -28 -4 -39 -14 -20 -19 -21 -19
-15 11 7 35 9 34 -42 16 -22 -7 -45 -11 -51 -9 -8 3 -13 -4 -13 -16 0 -12 -4
-21 -10 -21 -5 0 -10 5 -10 10 0 6 -4 10 -10 10 -18 0 -45 35 -42 53 4 22 -6
22 -31 0 -18 -17 -18 -16 -15 17 3 32 6 35 40 41 24 4 35 2 31 -4 -4 -6 0 -8
10 -4 9 3 20 0 24 -7 6 -9 17 -10 40 -4 24 6 34 16 44 45 l12 37 17 -22 c25
-30 32 -28 30 11 -3 45 -2 49 13 44 6 -2 11 -10 9 -17z m1994 -17 c-11 -11
-19 6 -11 24 8 17 8 17 12 0 3 -10 2 -21 -1 -24z m3294 22 c0 -8 -9 -15 -20
-15 -20 0 -26 11 -13 23 12 13 33 7 33 -8z m-6170 -24 c-15 -30 -36 -32 -49
-5 -6 15 -7 24 -1 24 6 0 10 -5 10 -11 0 -6 7 -3 16 5 20 21 37 11 24 -13z
m-2167 0 c3 -12 -1 -22 -9 -25 -8 -3 -14 -15 -14 -26 0 -12 -5 -18 -10 -15 -7
4 -7 12 0 25 5 10 10 28 10 39 0 26 16 27 23 2z m8107 1 c0 -5 -16 -16 -35
-25 -41 -20 -48 -5 -7 17 31 17 42 19 42 8z m-6783 -36 c-22 -17 -22 -32 1
-46 15 -10 14 -11 -5 -7 -13 3 -23 1 -23 -4 0 -5 -9 -9 -19 -9 -11 0 -27 -10
-35 -22 -14 -19 -16 -20 -22 -4 -7 19 32 67 81 97 32 20 51 15 22 -5z m-449
-8 c-7 -20 -48 -23 -48 -4 0 11 9 16 26 16 16 0 24 -5 22 -12z m1311 0 c-4
-33 2 -47 16 -42 19 8 21 -39 2 -54 -10 -8 -18 0 -36 34 -24 44 -24 45 -5 59
24 18 25 18 23 3z m6118 -10 c-3 -8 -6 -5 -6 6 -1 11 2 17 5 13 3 -3 4 -12 1
-19z m-9257 -25 c-1 -18 -18 -35 -24 -24 -4 6 -4 16 -1 21 7 12 25 13 25 3z
m3720 -3 c0 -5 -4 -10 -9 -10 -6 0 -13 5 -16 10 -3 6 1 10 9 10 9 0 16 -4 16
-10z m-4260 -10 c0 -5 -8 -10 -17 -10 -15 0 -16 2 -3 10 19 12 20 12 20 0z
m2960 1 c-8 -5 -31 -12 -50 -16 -33 -7 -34 -6 -15 9 11 8 34 15 50 15 22 0 26
-2 15 -8z m6915 -86 c0 -33 -4 -45 -16 -48 -13 -4 -18 5 -23 41 -3 24 -6 53
-6 64 0 18 2 18 23 3 17 -12 22 -25 22 -60z m-10749 -20 c-10 -8 -23 -12 -29
-8 -11 7 12 23 33 23 12 -1 11 -4 -4 -15z m4977 -4 c-8 -30 -31 -34 -25 -5 2
13 10 24 17 24 8 0 11 -8 8 -19z m268 -33 c-10 -26 -36 -42 -52 -33 -4 3 6 19
24 35 37 33 41 32 28 -2z m-2051 12 c0 -5 -4 -10 -10 -10 -5 0 -10 5 -10 10 0
6 5 10 10 10 6 0 10 -4 10 -10z m1860 0 c0 -5 -5 -10 -11 -10 -5 0 -7 5 -4 10
3 6 8 10 11 10 2 0 4 -4 4 -10z m2268 -19 c47 -24 82 -56 108 -101 20 -33 33
-70 71 -200 8 -30 19 -63 24 -72 19 -38 22 -182 5 -273 -21 -110 -71 -282
-103 -352 -12 -28 -23 -55 -23 -59 0 -9 -64 -172 -101 -258 -41 -93 -56 -139
-74 -226 -9 -41 -26 -92 -39 -115 -45 -78 -97 -175 -93 -175 2 0 41 56 88 124
46 69 85 123 87 121 4 -4 -44 -179 -58 -210 -38 -86 -50 -120 -50 -136 0 -11
-4 -19 -10 -19 -5 0 -10 -9 -10 -21 0 -12 -6 -35 -14 -52 -13 -30 -43 -118
-67 -197 -6 -19 -14 -44 -18 -55 -18 -44 -41 -121 -41 -134 0 -14 -63 -224
-80 -266 -30 -76 -127 -380 -134 -420 -1 -5 -5 -15 -8 -21 -13 -20 -29 -98
-28 -131 0 -18 -4 -33 -10 -33 -5 0 -10 -11 -10 -25 0 -14 -4 -33 -9 -43 -6
-9 -25 -80 -45 -158 -41 -168 -63 -244 -76 -264 -8 -12 -16 -13 -55 -2 -25 7
-56 22 -68 33 -12 11 -45 32 -74 45 -28 14 -54 31 -57 39 -7 20 9 19 40 -1 18
-12 28 -14 36 -6 15 15 21 597 8 747 -16 173 -58 340 -125 500 -35 84 -49 136
-38 143 6 4 14 19 18 33 3 14 19 41 36 60 16 19 29 38 29 43 0 4 6 6 13 3 8
-3 20 4 28 16 8 11 31 40 52 62 20 23 37 45 37 48 0 4 17 23 38 42 40 38 140
91 183 96 23 3 74 -15 89 -31 18 -20 101 -72 106 -67 7 7 -43 89 -78 127 -13
14 -43 52 -68 84 -68 90 -225 244 -320 314 -47 34 -89 66 -95 70 -5 4 -32 20
-59 36 l-50 29 -90 -16 c-114 -20 -186 -42 -211 -63 -17 -13 -17 -15 -2 -10
27 8 20 -8 -14 -33 -19 -14 -39 -21 -52 -17 -11 3 -26 1 -33 -5 -8 -7 -14 -7
-19 1 -16 25 78 111 138 126 26 6 27 7 11 25 -9 10 -13 23 -9 28 3 7 -2 11
-14 11 -30 0 -256 -177 -342 -268 -191 -200 -350 -394 -337 -408 6 -5 88 73
125 119 27 33 41 34 88 6 42 -25 49 -22 35 15 -14 37 -13 39 15 52 20 10 38 8
92 -8 37 -11 73 -26 80 -32 22 -20 32 -245 15 -354 -7 -53 -15 -113 -17 -132
-5 -53 -33 -116 -100 -220 -82 -126 -122 -201 -136 -252 -18 -67 -47 -238 -74
-428 -30 -212 -64 -421 -71 -431 -2 -4 -6 -58 -9 -119 -3 -62 -9 -119 -14
-128 -5 -10 -12 -53 -16 -97 -4 -44 -12 -93 -17 -110 -5 -16 -11 -73 -14 -125
-3 -52 -10 -108 -14 -125 -5 -16 -12 -54 -16 -83 -7 -54 -16 -64 -33 -35 -9
16 -10 16 -11 2 0 -9 -2 -32 -5 -50 -4 -28 -3 -29 3 -9 6 18 9 4 9 -47 1 -40
-3 -71 -7 -68 -12 7 -17 -32 -15 -103 4 -97 -16 -60 -27 50 -8 88 -42 317 -73
508 -21 121 -43 369 -50 545 -3 83 -10 186 -15 230 -15 135 -22 492 -9 475 8
-12 10 -8 5 17 -3 17 -1 33 4 35 5 2 10 35 10 73 0 39 1 160 2 270 4 476 3
527 -15 540 -17 12 -24 41 -8 31 11 -7 23 40 27 114 2 30 5 64 8 75 2 11 5 32
5 48 1 39 16 33 41 -15 11 -24 25 -50 29 -58 26 -47 51 -104 51 -116 0 -8 5
-14 11 -14 13 0 11 13 -33 168 -28 99 -31 116 -19 135 16 25 16 142 1 258 -24
183 -52 381 -65 464 -16 101 -19 292 -6 345 5 19 12 47 15 63 5 20 12 27 30
27 30 0 46 -16 85 -83 37 -65 157 -182 305 -297 60 -47 149 -119 199 -160 136
-112 240 -190 255 -190 6 0 12 -4 12 -10 0 -20 81 -50 174 -65 l95 -15 76 45
c42 24 102 64 133 88 69 52 67 51 267 184 301 202 484 342 592 455 46 48 132
218 140 279 7 53 -21 118 -65 152 -89 67 -88 66 -69 67 10 0 34 -9 55 -19z
m-2345 -21 c-3 -11 -11 -20 -19 -20 -7 0 -18 -8 -23 -17 -10 -17 -10 -16 -11
2 0 27 11 42 35 48 11 2 21 5 22 6 0 0 -1 -8 -4 -19z m-2263 -10 c0 -5 -5 -10
-11 -10 -5 0 -7 5 -4 10 3 6 8 10 11 10 2 0 4 -4 4 -10z m2077 -62 c-3 -7 -5
-2 -5 12 0 14 2 19 5 13 2 -7 2 -19 0 -25z m-27 0 c0 -19 -2 -20 -10 -8 -13
19 -13 30 0 30 6 0 10 -10 10 -22z m-1150 -15 c0 -5 3 -18 6 -30 9 -31 -8 -29
-46 7 l-32 30 36 0 c20 0 36 -3 36 -7z m115 -21 c5 -3 -4 -9 -20 -14 -30 -7
-60 6 -49 23 5 9 48 3 69 -9z m558 -17 c-3 -9 -8 -14 -10 -11 -3 3 -2 9 2 15
9 16 15 13 8 -4z m-31 -27 c-9 -9 -12 -7 -12 12 0 19 3 21 12 12 9 -9 9 -15 0
-24z m4328 25 c0 -5 -21 -9 -48 -9 -40 -2 -42 -1 -17 6 41 10 65 11 65 3z
m2734 -18 c-4 -8 -10 -15 -15 -15 -4 0 -6 7 -3 15 4 8 10 15 15 15 4 0 6 -7 3
-15z m-6940 -32 c4 -9 2 -21 -4 -27 -7 -7 -10 -7 -10 1 0 6 -3 18 -6 27 -3 9
-2 16 4 16 5 0 13 -8 16 -17z m-4067 1 c-3 -3 -12 -4 -19 -1 -8 3 -5 6 6 6 11
1 17 -2 13 -5z m2861 -20 c17 -5 20 -10 11 -20 -12 -15 -35 -9 -43 12 -6 16
-2 17 32 8z m8078 -49 c-30 -30 -62 -64 -71 -77 l-17 -23 7 24 c4 14 20 39 36
55 16 17 29 36 29 42 0 17 23 34 47 34 20 0 16 -7 -31 -55z m-10736 35 c0 -5
-5 -10 -11 -10 -5 0 -7 5 -4 10 3 6 8 10 11 10 2 0 4 -4 4 -10z m3042 -2 c11
-9 14 -24 11 -50 -6 -45 -15 -47 -42 -10 -33 47 -10 92 31 60z m6008 -30 c0
-4 -7 -5 -15 -2 -8 4 -15 16 -15 28 1 21 1 21 15 2 8 -11 15 -23 15 -28z
m-7220 -7 c0 -13 -29 -35 -37 -28 -7 8 15 37 28 37 5 0 9 -4 9 -9z m8807 -33
c-6 -24 -15 -46 -20 -49 -5 -4 -7 -14 -4 -23 4 -10 -1 -21 -13 -28 -26 -16
-26 -32 0 -25 28 7 25 -7 -7 -42 -16 -16 -36 -41 -46 -55 -16 -24 -20 -25 -33
-11 -20 19 -34 19 -34 0 0 -17 -9 -19 -28 -6 -8 4 -13 17 -11 27 1 11 -1 34
-5 52 -8 32 -10 34 -44 28 l-37 -6 24 20 c28 24 40 25 47 5 4 -8 12 -15 20
-15 9 0 14 -11 14 -27 l1 -28 15 29 c9 16 19 24 23 18 6 -10 25 -15 49 -13 7
0 12 14 12 32 0 34 15 68 38 85 8 6 12 16 8 22 -5 8 28 52 40 52 1 0 -3 -19
-9 -42z m-7769 14 c6 -18 -15 -14 -22 4 -4 10 -1 14 6 12 6 -2 14 -10 16 -16z
m4355 -20 c-3 -12 -9 -22 -14 -22 -12 0 -11 7 3 30 15 24 19 21 11 -8z m-5645
-10 c2 -7 -2 -10 -12 -6 -9 3 -16 11 -16 16 0 13 23 5 28 -10z m1080 -42 c11
0 2 -69 -9 -76 -5 -3 -9 -27 -9 -54 0 -49 -13 -71 -31 -53 -6 6 -4 15 6 23 16
13 22 96 6 102 -5 2 -6 27 -3 57 5 53 5 54 19 28 7 -15 17 -27 21 -27z m46 24
c10 -27 7 -36 -9 -20 -8 8 -15 19 -15 25 0 17 17 13 24 -5z m7750 -12 c4 -8
-27 -42 -39 -42 -2 0 1 11 7 25 11 26 23 31 32 17z m-7477 -34 c-3 -7 -5 -2
-5 12 0 14 2 19 5 13 2 -7 2 -19 0 -25z m7561 -10 c-7 -19 -38 -22 -38 -4 0
10 9 16 21 16 12 0 19 -5 17 -12z m138 -38 c-2 -47 -9 -56 -25 -36 -10 12 -10
23 -1 51 15 45 29 37 26 -15z m205 -2 c-9 -31 -9 -31 -10 -6 -1 30 11 67 16
51 2 -6 0 -26 -6 -45z m-8152 9 c0 -21 -1 -21 -9 -2 -12 28 -12 37 0 30 6 -3
10 -16 9 -28z m198 -28 c2 -41 8 -68 19 -80 20 -22 13 -23 -31 -8 -21 8 -34
22 -41 43 -6 17 -14 39 -19 49 -5 13 -2 17 15 17 13 0 24 8 27 20 11 42 28 19
30 -41z m803 -19 c0 -5 0 -13 0 -17 0 -5 -8 -8 -19 -9 -11 -1 -26 -4 -35 -7
-21 -8 -20 -2 1 23 18 21 53 27 53 10z m4285 0 c3 -5 -3 -10 -15 -10 -12 0
-18 5 -15 10 3 6 10 10 15 10 5 0 12 -4 15 -10z m-3291 -65 c29 -30 59 -55 66
-55 6 0 9 -4 6 -9 -4 -5 -19 -3 -36 5 -41 21 -119 114 -95 114 2 0 29 -25 59
-55z m43 33 c13 -12 23 -25 23 -30 0 -16 -22 -8 -41 15 -33 40 -21 51 18 15z
m5959 -27 c-9 -10 -16 -23 -16 -29 0 -6 -9 -16 -20 -22 -16 -8 -20 -8 -20 4 0
21 63 91 68 77 2 -7 -3 -20 -12 -30z m-7889 3 c-9 -9 -28 6 -21 18 4 6 10 6
17 -1 6 -6 8 -13 4 -17z m7463 8 c0 -4 -8 -24 -18 -44 -14 -27 -23 -34 -33
-27 -11 7 -12 12 -1 29 6 11 12 27 12 35 0 8 9 15 20 15 11 0 20 -4 20 -8z
m-10654 -48 c-5 -14 -9 -15 -19 -5 -9 9 -9 14 3 21 18 11 24 6 16 -16z m3127
0 c7 -8 -17 -34 -32 -34 -14 0 -23 18 -16 30 7 11 38 14 48 4z m7822 -4 c-28
-12 -47 -12 -40 0 3 6 18 10 33 9 24 0 25 -1 7 -9z m-82 -24 c6 -14 -21 -46
-38 -46 -11 0 -95 -89 -119 -125 -10 -15 -19 -25 -22 -23 -7 8 37 83 46 81 6
-2 10 6 10 17 0 11 7 20 15 20 8 0 15 6 15 13 0 8 11 19 25 25 15 7 25 20 25
32 0 23 35 28 43 6z m-7863 -6 c0 -5 -4 -10 -10 -10 -5 0 -10 5 -10 10 0 6 5
10 10 10 6 0 10 -4 10 -10z m-176 -36 c3 -8 11 -14 18 -14 39 -1 78 -77 48
-95 -6 -3 -10 4 -10 17 0 17 -15 35 -50 62 -27 21 -48 42 -45 47 8 11 32 1 39
-17z m275 -10 c-8 -10 -15 -12 -23 -4 -7 7 -4 14 10 24 22 17 32 3 13 -20z
m2084 16 c9 -11 17 -22 17 -25 0 -9 -40 19 -44 32 -8 20 7 15 27 -7z m-5218
-10 c3 -5 -1 -10 -10 -10 -9 0 -13 5 -10 10 3 6 8 10 10 10 2 0 7 -4 10 -10z
m11075 -23 c0 -40 17 -62 37 -46 9 8 13 8 13 0 0 -6 7 -11 15 -11 8 0 15 -3
15 -7 0 -5 -17 -8 -37 -8 -21 -1 -46 -5 -55 -9 -12 -5 -18 -4 -18 4 0 6 10 14
21 17 21 6 21 6 -2 19 -13 7 -32 13 -42 14 -15 0 -16 3 -6 23 26 48 59 50 59
4z m-11120 13 c0 -5 -4 -10 -10 -10 -5 0 -10 5 -10 10 0 6 5 10 10 10 6 0 10
-4 10 -10z m2806 -17 c-10 -10 -19 5 -10 18 6 11 8 11 12 0 2 -7 1 -15 -2 -18z
m7249 -1 c-3 -3 -11 0 -18 7 -9 10 -8 11 6 5 10 -3 15 -9 12 -12z m-7134 -89
c11 -20 13 -39 8 -68 -10 -57 -26 -116 -33 -122 -16 -16 -19 15 -7 83 7 41 9
88 6 104 -8 38 6 39 26 3z m8104 17 c18 -8 17 -9 -7 -9 -16 -1 -28 4 -28 9 0
12 8 12 35 0z m-710 -10 c-3 -5 -11 -10 -16 -10 -6 0 -7 5 -4 10 3 6 11 10 16
10 6 0 7 -4 4 -10z m-7310 -74 c-15 -34 -39 -55 -51 -43 -3 2 -2 27 2 55 7 55
29 72 51 41 10 -14 10 -24 -2 -53z m6928 48 c-4 -11 -8 -12 -20 -3 -11 10 -11
14 -1 20 17 10 28 2 21 -17z m977 12 c0 -16 -28 -42 -36 -33 -7 6 18 47 28 47
5 0 8 -6 8 -14z m-230 -21 c0 -8 -7 -15 -15 -15 -16 0 -20 12 -8 23 11 12 23
8 23 -8z m482 -31 c-5 -25 -12 -30 -27 -15 -17 15 -73 23 -80 11 -5 -8 -13 -6
-25 5 -10 9 -24 14 -29 10 -6 -3 -11 -2 -11 4 0 5 8 12 18 14 30 9 82 6 82 -4
0 -14 38 -11 52 5 16 17 26 3 20 -30z m38 36 c0 -5 -5 -10 -11 -10 -5 0 -7 5
-4 10 3 6 8 10 11 10 2 0 4 -4 4 -10z m-8142 -31 c-3 -8 -7 -3 -11 10 -4 17
-3 21 5 13 5 -5 8 -16 6 -23z m7792 7 c0 -3 -4 -8 -10 -11 -5 -3 -10 -1 -10 4
0 6 5 11 10 11 6 0 10 -2 10 -4z m-5197 -30 c-2 -6 -14 -10 -28 -9 -35 1 -37
2 -31 12 7 11 62 8 59 -3z m144 -20 c1 -1 0 -12 -4 -24 -4 -18 -10 -21 -27
-15 -11 4 -35 8 -53 8 -31 0 -34 5 -24 43 1 3 104 -9 108 -12z m-5717 -5 c0
-5 -7 -11 -15 -15 -9 -3 -15 0 -15 9 0 8 7 15 15 15 8 0 15 -4 15 -9z m5797
-17 c-3 -3 -12 -4 -19 -1 -8 3 -5 6 6 6 11 1 17 -2 13 -5z m4117 -9 c4 -11 -2
-15 -21 -15 -26 0 -26 1 -7 15 10 8 20 15 20 15 1 0 4 -7 8 -15z m-174 -5 c12
-8 10 -10 -10 -9 -14 1 -36 5 -50 9 -23 7 -22 8 10 9 19 0 42 -4 50 -9z m1050
6 c0 -3 -4 -8 -10 -11 -5 -3 -10 -1 -10 4 0 6 5 11 10 11 6 0 10 -2 10 -4z
m-1640 -130 c0 -3 -4 -8 -10 -11 -5 -3 -10 -1 -10 4 0 6 5 11 10 11 6 0 10 -2
10 -4z m-9080 -25 c0 -10 -30 -24 -37 -17 -3 3 -2 9 2 15 8 13 35 15 35 2z
m8970 -28 c0 -5 -5 -15 -10 -23 -8 -12 -10 -11 -10 8 0 12 5 22 10 22 6 0 10
-3 10 -7z m1790 -31 c0 -13 -23 -32 -39 -32 -11 0 -10 4 5 19 20 21 34 26 34
13z m-7793 -18 c-3 -3 -12 -4 -19 -1 -8 3 -5 6 6 6 11 1 17 -2 13 -5z m-54
-28 c6 -15 43 -18 62 -6 6 4 20 4 32 1 16 -4 20 -10 13 -20 -7 -12 -19 -13
-64 -5 -50 9 -58 8 -73 -8 -11 -12 -20 -15 -27 -8 -6 6 -2 18 15 34 29 29 35
30 42 12z m7827 -56 c22 -17 25 -26 25 -84 1 -36 -3 -66 -7 -66 -4 0 -17 11
-30 24 -13 13 -32 26 -43 29 -19 5 -19 5 3 12 12 4 22 11 22 16 0 5 7 9 15 9
9 0 15 9 15 24 0 19 -4 23 -20 19 -15 -4 -20 0 -20 16 0 26 8 26 40 1z m-7920
-20 c-6 -11 -15 -20 -20 -20 -6 0 -5 9 2 20 7 11 16 20 21 20 4 0 3 -9 -3 -20z
m7110 16 c0 -3 -4 -8 -10 -11 -5 -3 -10 -1 -10 4 0 6 5 11 10 11 6 0 10 -2 10
-4z m-8060 -56 c0 -11 -10 -22 -22 -26 -13 -4 -28 -14 -35 -23 -17 -24 -27 -7
-11 20 30 54 68 70 68 29z m907 24 c-3 -3 -12 -4 -19 -1 -8 3 -5 6 6 6 11 1
17 -2 13 -5z m6991 -55 c-2 -6 -8 -10 -13 -10 -5 0 -11 4 -13 10 -2 6 4 11 13
11 9 0 15 -5 13 -11z m59 -81 c-9 -5 -17 -18 -17 -29 0 -16 5 -18 25 -13 36 9
31 -12 -5 -25 -28 -9 -30 -8 -30 13 0 28 -28 43 -37 20 -3 -8 4 -25 16 -38 22
-23 30 -63 10 -50 -6 3 -15 1 -19 -6 -6 -10 -15 -9 -40 7 l-32 20 26 7 c17 4
26 13 26 26 0 18 -3 19 -20 8 -38 -24 -32 3 11 50 43 48 44 48 73 34 25 -12
27 -16 13 -24z m422 28 c10 -12 7 -18 -19 -31 -32 -16 -32 -16 -25 7 6 18 21
37 31 38 1 0 7 -6 13 -14z m570 -26 c-21 -40 -39 -52 -39 -26 0 15 40 66 52
66 4 0 -2 -18 -13 -40z m-639 0 c0 -5 -4 -10 -10 -10 -5 0 -10 5 -10 10 0 6 5
10 10 10 6 0 10 -4 10 -10z m-8335 -21 c-12 -19 -61 -38 -75 -29 -18 11 -14
15 30 34 35 14 55 12 45 -5z m3967 -21 c-6 -6 -15 -8 -19 -4 -4 4 -1 11 7 16
8 5 17 7 19 4 3 -2 -1 -10 -7 -16z m4442 -7 c7 -11 -18 -21 -54 -21 -38 0 -48
18 -13 23 50 7 62 7 67 -2z m-9786 -81 c1 -39 -2 -70 -8 -70 -14 0 -31 71 -21
88 5 8 6 23 4 33 -3 12 0 19 9 19 10 0 14 -18 16 -70z m362 56 c0 -3 -4 -8
-10 -11 -5 -3 -10 -1 -10 4 0 6 5 11 10 11 6 0 10 -2 10 -4z m-30 -45 c0 -6
-4 -13 -10 -16 -5 -3 -10 1 -10 9 0 9 5 16 10 16 6 0 10 -4 10 -9z m356 -30
c-19 -19 -27 -12 -19 17 4 18 8 20 20 11 12 -11 12 -14 -1 -28z m9589 -21 c-3
-5 -11 -10 -16 -10 -6 0 -7 5 -4 10 3 6 11 10 16 10 6 0 7 -4 4 -10z m-10235
-76 c0 -8 -5 -12 -10 -9 -6 4 -8 11 -5 16 9 14 15 11 15 -7z m626 -34 c1 -33
-4 -36 -31 -17 -17 13 -17 15 6 30 13 10 24 17 24 17 0 0 0 -14 1 -30z m4781
-22 c-3 -8 -6 -5 -6 6 -1 11 2 17 5 13 3 -3 4 -12 1 -19z m-5313 -40 c-15 -50
-41 -61 -62 -28 -11 17 -10 21 5 26 10 3 25 9 33 14 25 15 32 11 24 -12z
m1054 -16 c18 -19 29 -92 13 -92 -15 0 -26 23 -22 48 2 18 -2 23 -16 22 -33
-4 -36 0 -18 20 22 24 21 24 43 2z m-598 -1 c0 -6 -4 -13 -10 -16 -5 -3 -10 1
-10 9 0 9 5 16 10 16 6 0 10 -4 10 -9z m4570 -23 c0 -7 -14 -6 -50 2 -3 0 4 7
14 15 16 12 22 12 28 2 4 -6 8 -15 8 -19z m-5284 -15 c-10 -10 -19 5 -10 18 6
11 8 11 12 0 2 -7 1 -15 -2 -18z m72 9 c2 -7 -7 -12 -23 -12 -24 0 -26 2 -15
15 14 17 31 16 38 -3z m10215 -17 c-8 -65 -13 -87 -26 -105 -14 -21 -15 -21
-19 5 -4 20 -1 25 14 25 13 0 17 4 11 12 -4 7 -8 30 -9 51 -2 31 1 37 14 35
10 -2 16 -12 15 -23z m-10103 -5 c0 -11 -4 -20 -10 -20 -5 0 -10 9 -10 20 0
11 5 20 10 20 6 0 10 -9 10 -20z m-195 -10 c-3 -5 -14 -10 -23 -10 -15 0 -15
2 -2 10 20 13 33 13 25 0z m10225 0 c0 -5 -5 -10 -11 -10 -5 0 -7 5 -4 10 3 6
8 10 11 10 2 0 4 -4 4 -10z m-8930 -100 c0 -5 -5 -10 -11 -10 -5 0 -7 5 -4 10
3 6 8 10 11 10 2 0 4 -4 4 -10z m10 -35 c0 -12 -19 -12 -23 0 -4 9 -1 12 9 8
7 -3 14 -7 14 -8z m-274 -41 c-9 -8 -16 -21 -17 -27 0 -12 -17 20 -18 36 -1 4
11 7 25 7 23 0 24 -1 10 -16z m4284 -15 c0 -15 -5 -19 -15 -15 -8 3 -15 1 -15
-4 0 -6 -4 -10 -10 -10 -17 0 -11 38 8 43 30 8 32 7 32 -14z m-5170 -49 c0 -5
-10 -14 -21 -21 -17 -9 -23 -8 -30 2 -5 9 -2 16 9 21 25 10 42 9 42 -2z m5230
-230 c0 -5 -4 -10 -10 -10 -5 0 -10 5 -10 10 0 6 5 10 10 10 6 0 10 -4 10 -10z
m-356 -286 c-6 -3 -9 -15 -7 -27 3 -17 0 -23 -16 -24 -12 -1 -21 2 -21 8 0 5
5 9 11 9 5 0 7 5 3 11 -7 11 13 29 31 28 6 0 5 -3 -1 -5z m311 -24 c3 -5 1
-10 -4 -10 -6 0 -11 5 -11 10 0 6 2 10 4 10 3 0 8 -4 11 -10z m-15 -300 c0 -5
-5 -10 -11 -10 -5 0 -7 5 -4 10 3 6 8 10 11 10 2 0 4 -4 4 -10z m-343 -42 c-3
-8 -6 -5 -6 6 -1 11 2 17 5 13 3 -3 4 -12 1 -19z m338 13 c3 -5 1 -12 -5 -16
-5 -3 -10 1 -10 9 0 18 6 21 15 7z m-4422 -153 c10 2 17 -3 17 -12 0 -23 -24
-20 -46 6 -12 13 -13 18 -4 12 8 -4 23 -7 33 -6z m4075 -150 c-2 -5 -7 -9 -11
-9 -4 1 -16 1 -28 1 -11 0 -18 3 -16 8 7 11 58 11 55 0z m-2 -35 c-10 -10 -46
-11 -52 -1 -3 4 9 8 27 8 18 0 29 -3 25 -7z m284 -313 c0 -5 -4 -10 -10 -10
-5 0 -10 5 -10 10 0 6 5 10 10 10 6 0 10 -4 10 -10z m505 -87 c-4 -10 -9 -33
-12 -50 -5 -29 -2 -34 28 -50 18 -10 43 -29 56 -42 13 -13 35 -26 49 -27 15
-2 46 -12 70 -23 24 -12 57 -21 74 -21 19 0 33 -7 40 -20 8 -14 21 -20 46 -20
19 0 45 -5 56 -11 13 -7 18 -7 14 -1 -4 7 12 13 41 17 27 4 57 9 68 11 14 4
16 3 7 -4 -11 -7 -10 -10 3 -16 26 -9 42 -7 25 4 -8 5 -10 10 -5 10 14 0 36
-15 38 -26 1 -5 11 -9 22 -10 41 -2 46 -4 39 -16 -5 -8 2 -9 24 -5 20 4 32 2
32 -4 0 -6 6 -9 14 -6 8 3 26 -3 40 -14 14 -11 40 -22 58 -23 45 -5 79 -17 73
-26 -3 -4 13 -10 36 -14 22 -3 38 -10 35 -15 -6 -8 84 -71 102 -71 5 0 12 -9
15 -20 6 -25 -8 -26 -23 -2 -11 16 -11 16 -6 -1 3 -10 6 -25 6 -33 0 -8 7 -14
15 -14 21 0 19 -30 -2 -31 -17 -1 -17 -2 0 -6 9 -2 17 -8 17 -13 0 -19 -22
-20 -51 -3 -25 14 -33 15 -36 5 -3 -7 -19 -26 -36 -42 -29 -27 -40 -32 -64
-29 -4 0 -10 -9 -15 -20 -9 -25 -49 -28 -68 -6 -7 8 -17 15 -23 15 -5 0 -15 8
-22 17 -8 11 -31 18 -70 20 -66 4 -73 7 -57 26 19 22 3 57 -25 57 -15 0 -33
10 -45 25 -11 14 -30 25 -43 25 -13 0 -30 7 -39 15 -8 8 -21 15 -29 15 -9 0
-17 4 -19 8 -1 4 -21 17 -43 28 -25 13 -41 29 -43 42 -3 17 -10 22 -32 22 -16
0 -33 7 -37 15 -5 9 -27 17 -52 19 -23 2 -48 9 -54 15 -6 6 -24 11 -39 11 -16
0 -31 7 -34 15 -3 8 -21 19 -40 25 -18 6 -33 15 -31 20 3 12 -73 61 -84 55 -5
-4 -9 4 -9 17 0 13 -8 28 -18 34 -12 8 -18 26 -20 59 -1 40 3 51 27 76 33 33
67 40 56 12z m60 -63 c3 -5 1 -10 -4 -10 -6 0 -11 5 -11 10 0 6 2 10 4 10 3 0
8 -4 11 -10z m1752 -144 c96 -14 216 -28 397 -47 50 -5 165 -21 255 -36 l163
-27 -26 -21 c-14 -11 -95 -62 -180 -113 -111 -68 -160 -92 -174 -88 -21 7
-282 54 -452 82 -161 26 -143 9 -138 129 5 103 15 135 44 135 7 0 57 -6 111
-14z m-2637 -36 c0 -5 -5 -10 -11 -10 -5 0 -7 5 -4 10 3 6 8 10 11 10 2 0 4
-4 4 -10z m-43 -42 c-3 -8 -6 -5 -6 6 -1 11 2 17 5 13 3 -3 4 -12 1 -19z m40
-4 c-9 -9 -28 6 -21 18 4 6 10 6 17 -1 6 -6 8 -13 4 -17z m508 -104 c4 -6 15
-8 25 -5 11 3 32 -1 47 -9 16 -8 46 -13 67 -12 38 1 48 -5 53 -36 2 -14 -4
-18 -32 -18 -39 0 -47 -15 -12 -26 12 -4 28 -15 35 -25 7 -11 19 -19 26 -19 7
0 21 -8 30 -19 16 -17 15 -22 -15 -77 -18 -33 -40 -70 -51 -83 -22 -29 -23
-77 -3 -98 13 -12 28 -14 73 -8 31 4 84 7 118 6 69 -3 106 11 125 45 7 13 19
24 26 24 8 0 12 4 9 9 -3 5 8 14 24 21 17 7 30 14 30 15 0 15 -15 35 -26 35
-8 0 -14 4 -14 9 0 5 9 7 20 4 11 -3 20 -12 20 -19 0 -10 13 -14 45 -14 26 0
59 -7 76 -15 26 -14 32 -14 57 -1 l27 15 -25 1 c-23 1 -23 2 8 15 17 8 32 19
32 24 0 6 11 6 31 -1 22 -8 37 -7 55 1 31 14 34 14 34 -1 0 -7 14 -21 30 -30
17 -9 30 -13 30 -8 0 5 16 12 36 16 29 5 40 2 60 -17 18 -17 23 -30 19 -46 -4
-19 -1 -23 20 -23 14 0 25 -4 25 -10 0 -5 -11 -10 -24 -10 -14 0 -27 -4 -30
-9 -3 -5 -20 -7 -38 -5 -18 1 -40 3 -48 4 -12 0 -12 3 2 14 18 14 14 26 -9 26
-7 0 -13 -7 -13 -15 0 -11 -11 -15 -41 -15 -36 0 -39 -2 -26 -15 9 -8 13 -24
10 -36 -5 -19 -3 -21 26 -14 24 5 31 3 31 -8 0 -9 -6 -17 -12 -20 -14 -5 27
-47 46 -47 6 0 3 -5 -8 -11 -13 -8 -20 -8 -26 0 -11 19 -55 -6 -71 -40 -11
-22 -18 -26 -29 -19 -13 8 -13 10 2 10 11 0 18 12 23 41 8 47 3 56 -18 34 -20
-19 -27 -19 -42 1 -11 16 -75 31 -75 18 0 -9 44 -43 56 -44 7 0 14 -12 17 -26
4 -22 2 -25 -17 -20 -11 3 -39 0 -61 -5 -22 -6 -53 -10 -68 -10 -24 1 -28 -2
-25 -20 2 -15 -3 -23 -16 -25 -10 -1 -22 -8 -27 -15 -5 -9 -11 -8 -24 4 -9 10
-25 17 -35 17 -13 0 -17 5 -14 15 7 16 -12 20 -41 8 -15 -5 -14 -8 6 -20 l24
-14 -25 5 c-14 3 -42 6 -64 6 -33 0 -38 3 -33 20 3 11 0 23 -5 27 -6 3 -8 2
-5 -3 3 -6 3 -14 -1 -19 -10 -15 -70 -55 -81 -55 -5 0 -12 -7 -15 -16 -4 -10
-13 -13 -26 -9 -13 4 -20 2 -20 -7 0 -8 -4 -6 -11 5 -14 23 -46 22 -59 -4 -10
-18 -13 -19 -23 -5 -11 14 -63 16 -145 5 -20 -3 -64 -65 -71 -101 -6 -30 -9
-32 -60 -35 -58 -3 -63 0 -103 71 l-18 31 0 -35 0 -34 -25 33 c-57 78 -50 238
14 333 46 68 76 75 123 27 17 -16 37 -28 44 -25 16 6 19 66 3 66 -5 0 -8 4 -5
9 4 5 -8 13 -26 16 -49 11 -72 30 -92 75 -16 36 -19 77 -6 90 11 11 40 73 40
85 0 21 52 57 74 51 14 -4 16 -2 7 7 -9 9 -3 15 21 28 41 21 45 22 53 9z m225
-14 c0 -2 -7 -7 -16 -10 -8 -3 -12 -2 -9 4 6 10 25 14 25 6z m27 -33 c-3 -3
-11 -2 -17 2 -9 6 -9 10 1 16 14 8 27 -7 16 -18z m226 -33 c-3 -11 -9 -23 -14
-26 -10 -6 -12 29 -2 39 13 13 21 7 16 -13z m-131 -19 c-16 -10 -6 -19 53 -49
46 -23 80 -56 71 -70 -3 -5 -18 -12 -33 -15 -22 -4 -36 4 -80 48 -57 57 -62
69 -35 84 20 12 43 14 24 2z m75 -7 c-3 -3 -12 -4 -19 -1 -8 3 -5 6 6 6 11 1
17 -2 13 -5z m576 -335 c-8 -8 -16 -8 -30 0 -16 9 -14 10 12 11 21 0 26 -3 18
-11z m137 1 c0 -5 -4 -10 -9 -10 -6 0 -13 5 -16 10 -3 6 1 10 9 10 9 0 16 -4
16 -10z m-110 -50 c0 -5 -7 -10 -16 -10 -8 0 -12 5 -9 10 3 6 10 10 16 10 5 0
9 -4 9 -10z m71 -130 c6 0 8 -9 4 -19 -3 -11 -1 -22 5 -26 12 -8 4 -25 -13
-25 -7 0 -6 4 3 11 12 8 9 10 -12 6 -26 -4 -28 -2 -28 30 0 28 3 34 16 29 9
-3 20 -6 25 -6z m-136 -14 c11 -11 8 -15 -23 -24 -45 -14 -52 -8 -21 17 29 24
27 24 44 7z m-237 -8 c7 -7 12 -20 12 -30 0 -12 8 -18 23 -18 l22 -1 -22 -18
c-13 -11 -23 -24 -23 -29 0 -6 -10 -6 -25 1 -17 8 -24 18 -21 29 2 10 0 20 -4
23 -8 5 10 55 21 55 3 0 10 -5 17 -12z m133 -22 c-6 -8 -20 -16 -30 -19 -14
-3 -17 0 -14 14 4 12 14 19 30 19 21 0 23 -3 14 -14z m179 -11 c10 -13 10 -19
-4 -33 -23 -26 -20 -33 10 -22 31 12 34 12 34 1 0 -10 -53 -29 -80 -29 -8 0
-26 -4 -40 -8 -20 -5 -23 -4 -13 6 9 10 9 17 2 26 -12 15 -3 37 11 29 12 -7
51 26 44 37 -9 15 23 8 36 -7z m-373 -17 c-3 -8 -6 -5 -6 6 -1 11 2 17 5 13 3
-3 4 -12 1 -19z m494 5 c-10 -4 -8 -9 10 -20 23 -13 23 -14 2 -8 -15 4 -23 2
-23 -6 0 -7 -3 -9 -6 -6 -4 3 -16 1 -27 -4 -18 -10 -36 0 -37 22 0 8 52 27 75
27 13 0 15 -2 6 -5z m-334 -40 c-9 -9 -20 -13 -24 -9 -4 4 -1 11 7 16 25 16
35 11 17 -7z m-458 -22 c12 -8 11 -13 -10 -30 -29 -23 -46 -12 -27 18 14 24
17 24 37 12z m484 -8 c-13 -2 -23 -11 -23 -19 0 -8 -8 -14 -17 -14 -15 0 -16
2 -3 10 8 5 11 10 5 10 -5 0 -3 5 5 10 8 5 24 9 35 8 17 -1 17 -1 -2 -5z m43
-19 c-30 -21 -42 -17 -15 5 13 11 26 17 29 14 3 -2 -4 -11 -14 -19z m-436 -11
c0 -11 -7 -14 -25 -11 -18 4 -31 -2 -50 -23 -17 -20 -21 -29 -11 -29 23 0 46
11 41 20 -3 5 -1 11 5 15 5 3 10 -1 10 -9 0 -10 9 -16 22 -16 33 0 14 -11 -21
-12 -18 -1 -34 -5 -37 -10 -5 -7 -47 -2 -66 9 -4 2 10 21 30 42 28 29 45 38
70 39 22 0 32 -5 32 -15z m-639 -59 c10 -9 16 -20 14 -25 -3 -4 14 -12 37 -17
l43 -10 -51 -1 c-28 -1 -79 -4 -113 -7 -71 -8 -79 4 -36 55 21 24 32 29 56 26
17 -2 40 -11 50 -21z"/>
<path d="M8795 9150 c-3 -5 -1 -10 4 -10 6 0 11 5 11 10 0 6 -2 10 -4 10 -3 0
-8 -4 -11 -10z"/>
<path d="M7680 8811 c0 -5 5 -13 10 -16 6 -3 10 -2 10 4 0 5 -4 13 -10 16 -5
3 -10 2 -10 -4z"/>
<path d="M4771 8661 c-6 -10 -7 -21 -4 -25 9 -8 33 14 33 30 0 20 -18 17 -29
-5z"/>
<path d="M5484 8453 c2 -12 13 -19 35 -21 22 -2 31 0 26 7 -3 6 -13 11 -21 11
-8 0 -14 5 -14 10 0 6 -6 10 -14 10 -8 0 -13 -8 -12 -17z"/>
<path d="M5730 8178 c0 -18 20 -38 38 -38 19 0 10 20 -16 38 -19 12 -22 12
-22 0z"/>
<path d="M4940 7555 c0 -8 5 -15 10 -15 6 0 10 7 10 15 0 8 -4 15 -10 15 -5 0
-10 -7 -10 -15z"/>
<path d="M4580 6989 c0 -5 5 -7 10 -4 6 3 10 8 10 11 0 2 -4 4 -10 4 -5 0 -10
-5 -10 -11z"/>
<path d="M4555 6190 c-3 -5 -1 -10 4 -10 6 0 11 5 11 10 0 6 -2 10 -4 10 -3 0
-8 -4 -11 -10z"/>
<path d="M5799 8438 c17 -17 34 -28 38 -24 5 4 -5 19 -22 32 -43 34 -53 30
-16 -8z"/>
<path d="M6235 8060 c-3 -5 -1 -10 4 -10 6 0 11 5 11 10 0 6 -2 10 -4 10 -3 0
-8 -4 -11 -10z"/>
<path d="M6358 7903 c7 -3 16 -2 19 1 4 3 -2 6 -13 5 -11 0 -14 -3 -6 -6z"/>
<path d="M6442 7488 c7 -19 38 -22 38 -4 0 10 -9 16 -21 16 -12 0 -19 -5 -17
-12z"/>
<path d="M6415 7390 c-3 -5 -1 -10 4 -10 6 0 11 5 11 10 0 6 -2 10 -4 10 -3 0
-8 -4 -11 -10z"/>
<path d="M6081 7374 c0 -11 3 -14 6 -6 3 7 2 16 -1 19 -3 4 -6 -2 -5 -13z"/>
<path d="M6255 7350 c-3 -5 1 -10 10 -10 9 0 13 5 10 10 -3 6 -8 10 -10 10 -2
0 -7 -4 -10 -10z"/>
<path d="M5717 7334 c-8 -8 1 -24 14 -24 5 0 9 7 9 15 0 15 -12 20 -23 9z"/>
<path d="M6260 7310 c0 -5 9 -10 21 -10 11 0 17 5 14 10 -3 6 -13 10 -21 10
-8 0 -14 -4 -14 -10z"/>
<path d="M5637 7279 c-5 -19 -3 -20 30 -14 26 5 38 2 47 -10 9 -13 17 -14 44
-4 26 9 36 8 50 -2 15 -13 16 -12 4 3 -10 13 -10 17 0 21 7 3 3 6 -9 6 -12 1
-33 6 -46 12 -18 8 -30 8 -45 0 -14 -7 -23 -8 -27 -1 -11 18 -42 11 -48 -11z"/>
<path d="M6396 7273 c-6 -14 -5 -15 5 -6 7 7 10 15 7 18 -3 3 -9 -2 -12 -12z"/>
<path d="M5485 7190 c3 -5 11 -10 16 -10 6 0 7 5 4 10 -3 6 -11 10 -16 10 -6
0 -7 -4 -4 -10z"/>
<path d="M5530 7175 c0 -8 7 -15 15 -15 8 0 15 7 15 15 0 8 -7 15 -15 15 -8 0
-15 -7 -15 -15z"/>
<path d="M5385 7120 c-3 -5 1 -10 9 -10 9 0 16 5 16 10 0 6 -4 10 -9 10 -6 0
-13 -4 -16 -10z"/>
<path d="M5465 7110 c3 -5 8 -10 11 -10 2 0 4 5 4 10 0 6 -5 10 -11 10 -5 0
-7 -4 -4 -10z"/>
<path d="M5806 7014 c-9 -23 8 -38 23 -21 9 11 8 17 -3 26 -11 9 -15 8 -20 -5z"/>
<path d="M5476 7011 c-4 -5 -2 -12 3 -15 5 -4 12 -2 15 3 4 5 2 12 -3 15 -5 4
-12 2 -15 -3z"/>
<path d="M5627 6934 c-8 -8 1 -24 14 -24 5 0 9 7 9 15 0 15 -12 20 -23 9z"/>
<path d="M5051 6124 c0 -11 3 -14 6 -6 3 7 2 16 -1 19 -3 4 -6 -2 -5 -13z"/>
<path d="M4980 5789 c0 -5 5 -7 10 -4 6 3 10 8 10 11 0 2 -4 4 -10 4 -5 0 -10
-5 -10 -11z"/>
<path d="M4952 5770 c-10 -17 -10 -20 3 -20 8 0 15 9 15 20 0 11 -1 20 -3 20
-1 0 -8 -9 -15 -20z"/>
<path d="M4924 5719 c-1 -28 0 -29 15 -15 13 14 13 18 1 31 -13 12 -15 10 -16
-16z"/>
<path d="M4851 5681 c-7 -5 -11 -13 -7 -19 7 -12 54 -2 58 13 4 13 -33 18 -51
6z"/>
<path d="M4880 5624 c0 -8 5 -12 10 -9 6 3 10 10 10 16 0 5 -4 9 -10 9 -5 0
-10 -7 -10 -16z"/>
<path d="M5300 3712 c0 -15 24 -32 45 -31 19 0 19 1 -2 9 -13 5 -23 14 -23 20
0 5 -4 10 -10 10 -5 0 -10 -4 -10 -8z"/>
<path d="M11121 5124 c0 -11 3 -14 6 -6 3 7 2 16 -1 19 -3 4 -6 -2 -5 -13z"/>
<path d="M7150 1310 c0 -5 5 -10 10 -10 6 0 10 5 10 10 0 6 -4 10 -10 10 -5 0
-10 -4 -10 -10z"/>
<path d="M6880 1271 c0 -26 72 -73 106 -69 31 3 46 28 17 28 -23 0 -65 29 -58
40 6 9 -18 20 -46 20 -12 0 -19 -7 -19 -19z"/>
<path d="M6871 1224 c0 -11 3 -14 6 -6 3 7 2 16 -1 19 -3 4 -6 -2 -5 -13z"/>
<path d="M6918 1183 c7 -3 16 -2 19 1 4 3 -2 6 -13 5 -11 0 -14 -3 -6 -6z"/>
<path d="M6748 1018 c9 -9 15 -9 24 0 9 9 7 12 -12 12 -19 0 -21 -3 -12 -12z"/>
<path d="M7255 910 c-16 -7 -17 -9 -3 -9 9 -1 20 4 23 9 7 11 7 11 -20 0z"/>
</g>
</svg>
