<svg width="128" height="128" viewBox="0 0 128 128" fill="none" xmlns="http://www.w3.org/2000/svg">
  <rect width="128" height="128" rx="64" fill="#EBF4FF"/>
  <!-- Head -->
  <circle cx="64" cy="50" r="20" fill="#FED7AA"/>
  <!-- Hair -->
  <path d="M44 35C44 25 52 18 64 18C76 18 84 25 84 35C84 30 84 40 84 45L44 45C44 40 44 30 44 35Z" fill="#92400E"/>
  <!-- Eyes -->
  <circle cx="58" cy="48" r="2" fill="#1F2937"/>
  <circle cx="70" cy="48" r="2" fill="#1F2937"/>
  <!-- Eyebrows -->
  <path d="M54 44C56 43 60 43 62 44" stroke="#92400E" stroke-width="2" stroke-linecap="round"/>
  <path d="M66 44C68 43 72 43 74 44" stroke="#92400E" stroke-width="2" stroke-linecap="round"/>
  <!-- Nose -->
  <path d="M64 52L64 55" stroke="#E5B180" stroke-width="1.5" stroke-linecap="round"/>
  <!-- Mouth -->
  <path d="M60 58C62 60 66 60 68 58" stroke="#92400E" stroke-width="2" stroke-linecap="round"/>
  <!-- Body/Shirt -->
  <rect x="44" y="70" width="40" height="58" rx="20" fill="#3B82F6"/>
  <!-- Collar -->
  <path d="M54 70C58 72 70 72 74 70L74 78L54 78Z" fill="#1D4ED8"/>
  <!-- Arms -->
  <ellipse cx="35" cy="85" rx="12" ry="25" fill="#FED7AA"/>
  <ellipse cx="93" cy="85" rx="12" ry="25" fill="#FED7AA"/>
  <!-- Code symbol on shirt -->
  <text x="64" y="92" text-anchor="middle" fill="white" font-family="monospace" font-size="12" font-weight="bold">&lt;/&gt;</text>
</svg>