<?xml version="1.0" standalone="no"?>
<!DOCTYPE svg PUBLIC "-//W3C//DTD SVG 20010904//EN"
 "http://www.w3.org/TR/2001/REC-SVG-20010904/DTD/svg10.dtd">
<svg version="1.0" xmlns="http://www.w3.org/2000/svg"
 width="1024.000000pt" height="1536.000000pt" viewBox="0 0 1024.000000 1536.000000"
 preserveAspectRatio="xMidYMid meet">

<g transform="translate(0.000000,1536.000000) scale(0.100000,-0.100000)"
fill="#000000" stroke="none">
<path d="M4710 13509 c-36 -3 -57 -6 -47 -7 10 -1 16 -6 12 -12 -3 -6 -15 -5
-30 2 -28 13 -47 2 -25 -13 11 -8 7 -9 -17 -5 -20 3 -33 1 -37 -7 -3 -9 -5 -9
-5 1 -1 6 -12 12 -25 12 -13 0 -26 4 -28 10 -1 5 -47 12 -101 14 -82 3 -96 1
-86 -10 9 -11 7 -14 -8 -14 -11 0 -31 -8 -44 -18 -33 -26 -69 -34 -62 -15 4
11 -8 7 -43 -11 -52 -28 -64 -31 -64 -18 0 5 12 13 28 19 l27 11 -30 1 c-32 1
-182 -44 -202 -61 -7 -6 -11 -14 -8 -18 3 -4 -1 -13 -9 -19 -11 -9 -15 -9 -18
0 -3 9 -10 9 -28 -1 -15 -8 -20 -15 -12 -18 23 -7 1 -22 -26 -16 -20 4 -23 3
-12 -5 23 -16 3 -26 -46 -24 -50 2 -117 -20 -91 -30 9 -3 21 1 27 9 7 8 20 14
29 13 13 0 13 -2 1 -6 -8 -4 -21 -13 -29 -20 -8 -9 -23 -12 -37 -9 -16 4 -30
0 -44 -14 -26 -26 -25 -30 4 -30 14 0 28 -5 32 -12 5 -8 -5 -9 -34 -5 -23 3
-42 1 -42 -4 0 -5 -11 -9 -25 -9 -16 0 -25 -6 -25 -15 0 -8 -7 -15 -15 -15 -8
0 -15 -4 -15 -8 0 -5 -11 -15 -25 -22 -18 -10 -22 -16 -13 -22 10 -6 9 -8 -4
-8 -9 0 -28 -13 -41 -30 -14 -16 -32 -30 -39 -30 -8 0 -39 -30 -69 -66 -30
-36 -62 -70 -71 -75 -9 -5 -27 -30 -40 -55 -12 -26 -38 -58 -55 -72 -18 -13
-33 -28 -33 -33 0 -5 -11 -27 -25 -49 -14 -22 -25 -44 -25 -50 0 -6 -16 -33
-35 -61 -19 -28 -35 -59 -35 -69 0 -10 -6 -23 -13 -29 -8 -6 -19 -29 -26 -51
-6 -22 -16 -40 -21 -40 -6 0 -10 -4 -10 -10 0 -5 -13 -31 -30 -57 -16 -26 -30
-53 -30 -61 0 -7 -6 -19 -13 -26 -7 -8 -19 -33 -26 -57 -7 -24 -25 -80 -39
-124 -14 -44 -29 -111 -33 -150 -12 -115 -21 -165 -30 -165 -5 0 -9 -43 -9
-96 0 -94 7 -156 35 -299 19 -97 38 -252 31 -263 -7 -12 27 -216 58 -343 37
-154 53 -305 33 -312 -5 -1 7 -45 28 -96 21 -51 37 -104 37 -119 0 -15 7 -39
14 -54 20 -38 28 -138 11 -138 -9 0 -8 -3 1 -9 13 -8 15 -22 12 -81 -1 -14 6
-65 15 -115 20 -111 34 -204 40 -270 3 -27 8 -63 12 -80 4 -16 6 -36 4 -42 -1
-7 3 -13 10 -13 7 0 10 11 7 30 -3 17 -1 30 3 30 4 0 2 11 -5 24 -7 14 -12 54
-11 91 1 36 -2 61 -6 54 -4 -7 -7 4 -6 24 0 21 6 37 11 37 6 0 5 4 -3 9 -9 6
-13 26 -12 57 6 174 5 251 -2 266 -5 11 -1 20 10 27 15 8 16 12 6 22 -17 18
-16 29 3 29 8 0 12 5 9 10 -4 6 -11 7 -17 4 -8 -5 -9 -1 -5 10 4 10 7 23 7 29
0 7 5 6 11 -3 8 -11 9 -9 3 10 -4 14 -9 31 -12 39 -3 8 -1 12 4 9 5 -4 9 22 8
60 -1 52 3 68 15 74 13 5 13 7 -3 7 -16 1 -17 3 -5 18 11 13 11 17 1 20 -6 3
-9 10 -5 16 11 18 12 51 1 64 -6 7 -5 19 1 32 6 11 8 27 4 37 -4 10 0 20 11
26 12 7 14 14 7 26 -9 18 2 49 23 65 7 5 2 7 -11 4 -26 -6 -32 10 -8 19 10 4
14 14 10 28 -2 11 -2 15 1 9 3 -7 13 -13 21 -13 11 0 13 4 5 13 -11 14 -9 73
3 85 4 4 5 -2 2 -13 -7 -19 -7 -19 8 -1 11 14 12 24 3 39 -8 16 -8 19 5 14 11
-4 13 0 9 15 -3 14 -1 19 6 14 6 -3 13 -2 17 4 3 5 1 10 -5 10 -6 0 -9 4 -6 8
12 21 15 67 3 74 -9 6 -9 10 -1 16 6 4 15 18 19 32 7 25 7 25 -10 5 -15 -18
-16 -18 -11 -2 3 10 6 26 6 34 0 13 2 14 18 2 15 -12 16 -12 4 2 -7 10 -10 28
-6 48 4 19 2 31 -4 31 -5 0 -8 -10 -6 -22 4 -22 4 -21 -6 1 -6 14 -7 27 -3 30
13 10 9 81 -4 81 -7 0 -13 5 -13 11 0 6 6 9 14 6 11 -5 13 4 9 44 -3 37 -1 49
9 49 9 0 9 3 2 8 -16 10 -28 52 -15 52 6 0 11 7 11 15 0 8 9 15 20 15 11 0 20
5 20 10 0 6 -5 10 -11 10 -7 0 1 12 17 27 16 15 35 26 43 24 9 -1 12 3 8 13
-4 9 4 28 18 45 14 16 25 32 25 36 0 5 11 23 25 41 17 23 21 34 12 37 -8 4 -6
6 4 6 9 1 24 10 34 21 10 11 22 17 26 14 5 -3 9 2 9 10 0 9 5 16 10 16 6 0 10
6 10 13 0 7 9 18 21 25 12 8 18 19 15 28 -4 10 3 14 26 14 30 0 31 1 12 15
-21 16 -15 18 44 16 19 0 30 3 27 9 -4 6 7 13 24 16 17 4 31 10 31 15 0 5 7 9
15 9 8 0 25 10 37 22 27 27 48 32 48 11 0 -9 -6 -13 -13 -10 -10 4 -13 -2 -9
-19 6 -35 20 -29 31 14 12 43 47 73 53 44 3 -15 5 -15 23 3 12 12 30 19 44 17
14 -2 21 0 17 7 -4 6 16 17 49 26 30 9 55 21 55 27 0 5 7 7 16 4 9 -4 23 -1
31 5 11 10 15 8 20 -11 6 -22 7 -22 19 -5 10 13 25 18 53 17 24 -1 41 3 44 11
2 6 2 2 0 -10 -4 -29 -2 -29 34 6 18 17 40 28 54 27 13 -1 26 2 29 6 3 4 28 9
55 12 28 2 58 7 68 11 9 4 17 3 17 -3 0 -6 9 -8 20 -5 11 3 26 0 33 -6 9 -6
35 -9 68 -6 30 3 95 8 144 10 50 2 94 4 99 5 4 0 6 6 3 14 -4 9 3 16 19 20 13
4 24 11 24 16 0 6 9 10 20 10 11 0 20 -4 20 -10 0 -5 -7 -10 -16 -10 -12 0
-10 -5 7 -19 15 -12 26 -15 30 -9 4 6 21 9 38 6 28 -4 31 -2 26 16 -3 12 -2
15 1 9 8 -18 24 -16 24 2 0 19 -1 19 46 -2 22 -9 42 -17 46 -17 3 -1 9 -4 13
-8 4 -4 13 -4 20 -2 7 3 16 1 20 -5 3 -6 17 -11 31 -11 14 0 23 -4 19 -10 -9
-14 24 -25 36 -13 16 16 74 -1 131 -36 27 -17 55 -31 62 -31 6 0 16 -4 22 -9
5 -5 25 -11 44 -14 19 -2 52 -12 74 -21 47 -20 62 -21 47 -2 -10 12 -32 20
-96 33 -11 2 -24 8 -29 13 -11 11 34 8 52 -4 7 -4 21 -4 32 -1 11 4 20 2 20
-3 0 -5 14 -9 32 -9 21 0 36 -7 45 -20 12 -17 21 -20 55 -15 32 4 39 2 33 -8
-5 -8 -4 -11 3 -6 17 10 3 34 -21 39 -15 3 -11 5 11 6 17 0 32 6 32 11 0 6 5
10 10 10 14 0 12 -28 -2 -33 -7 -2 -9 -8 -5 -13 4 -5 11 -4 15 2 16 25 94 23
93 -1 -1 -13 40 -13 57 -1 8 6 17 5 24 -2 19 -19 29 -14 23 11 -5 17 -2 24 9
24 8 0 13 -4 10 -9 -3 -5 -1 -15 5 -22 9 -10 8 -15 -4 -20 -8 -3 -15 -14 -15
-24 0 -23 23 -45 35 -34 5 4 5 1 1 -5 -8 -14 30 -61 40 -50 9 9 61 -19 72 -39
5 -8 15 -17 23 -19 48 -11 59 -19 59 -41 0 -14 6 -24 14 -24 8 0 27 -11 41
-24 16 -15 33 -22 42 -19 13 5 15 1 11 -21 -4 -19 0 -29 13 -37 11 -5 19 -16
19 -24 0 -8 4 -15 9 -15 12 0 10 72 -2 88 -6 8 -6 12 2 12 18 0 44 -61 32 -73
-19 -19 -12 -27 17 -17 27 10 27 10 6 -7 -33 -28 -37 -60 -8 -67 16 -4 24 -14
24 -27 0 -11 -4 -18 -9 -15 -5 3 -11 0 -14 -7 -3 -8 3 -13 14 -13 14 0 19 8
19 28 0 18 5 28 15 28 8 0 15 -4 15 -10 0 -5 -5 -10 -12 -10 -9 0 -9 -3 0 -12
7 -7 24 -12 40 -13 22 0 27 -5 29 -25 l1 -25 -5 24 c-3 17 -7 20 -13 12 -6
-10 -12 -10 -28 -2 -14 7 -23 8 -27 1 -3 -5 1 -10 10 -10 9 0 27 -11 41 -25
14 -14 30 -22 37 -18 7 4 6 0 -2 -10 -14 -18 -36 -24 -26 -7 3 6 1 10 -4 10
-14 0 -14 -17 -1 -25 6 -4 8 -23 5 -43 -3 -20 -2 -31 1 -24 9 19 24 14 24 -7
0 -11 6 -22 13 -25 10 -5 10 -7 0 -12 -15 -7 -17 -50 -3 -59 6 -3 10 -12 10
-18 -1 -20 -39 36 -43 63 -4 22 -4 22 -5 -5 -1 -16 4 -41 11 -55 24 -46 27
-70 9 -71 -16 0 -16 -1 -1 -11 15 -11 15 -13 -5 -30 l-21 -19 25 5 c14 3 19 3
13 0 -7 -3 -13 -12 -13 -20 0 -9 5 -12 10 -9 9 6 15 -27 12 -67 -1 -10 1 -18
5 -18 3 0 12 8 19 18 12 15 13 15 9 -6 -2 -13 -16 -35 -30 -48 -24 -22 -34
-41 -16 -29 5 3 17 -5 25 -17 12 -17 18 -20 28 -10 7 7 17 12 22 12 6 -1 1 -9
-11 -19 -12 -10 -19 -21 -16 -25 4 -3 2 -6 -3 -6 -5 0 -17 12 -26 28 -12 19
-18 22 -18 10 0 -9 5 -20 10 -23 20 -12 10 -26 -10 -15 -17 9 -20 8 -18 -7 0
-10 0 -39 0 -65 -2 -37 -6 -48 -22 -53 -11 -3 -20 -13 -20 -22 0 -9 6 -13 13
-10 8 3 20 2 27 -3 10 -6 8 -13 -10 -31 l-22 -24 12 24 c12 22 11 24 -11 18
-13 -4 -30 -7 -36 -7 -19 0 -16 -18 5 -23 13 -4 11 -5 -5 -6 -17 -1 -23 5 -23
19 0 11 6 20 14 20 8 0 17 13 21 30 4 17 15 32 26 35 11 4 18 9 16 12 -14 14
-45 -11 -51 -40 -6 -27 -8 -29 -17 -15 -16 28 -48 41 -65 27 -18 -15 -18 -25
0 -32 10 -4 12 1 9 16 -4 20 -3 20 9 6 7 -9 17 -16 21 -17 20 -1 16 -10 -8
-16 -24 -6 -36 -36 -15 -36 6 0 10 5 10 12 0 6 2 9 5 6 3 -3 2 -16 -3 -29 l-9
-23 -14 24 c-7 14 -13 28 -14 32 0 12 -34 48 -45 48 -18 0 -10 -22 10 -27 11
-3 20 -12 20 -20 0 -13 -4 -12 -27 3 -15 9 -36 26 -47 36 -22 20 -36 23 -36 8
0 -5 7 -10 15 -10 8 0 15 -5 15 -11 0 -6 -7 -8 -16 -5 -9 3 -20 6 -25 6 -4 0
-6 6 -4 13 3 7 -12 20 -33 29 -20 10 -38 14 -40 8 -4 -10 -48 6 -74 28 -10 8
-18 10 -22 3 -4 -6 -18 -5 -39 3 -39 15 -93 14 -110 -3 -9 -10 -9 -11 4 -6 9
3 22 -1 29 -10 12 -14 10 -15 -16 -11 -16 3 -45 10 -64 16 -46 13 -50 12 -20
-6 24 -14 23 -15 -28 -11 -29 2 -55 0 -58 -5 -4 -5 -17 -7 -30 -4 -14 4 -24 2
-24 -4 0 -5 -13 -10 -29 -10 -29 0 -49 -14 -34 -23 10 -5 -12 1 -34 10 -11 4
-14 3 -9 -5 4 -7 1 -12 -8 -12 -8 0 -52 -18 -98 -40 -46 -22 -88 -40 -95 -40
-7 0 -17 -8 -22 -19 -6 -10 -26 -22 -45 -25 -19 -4 -44 -18 -54 -31 -11 -13
-22 -21 -26 -18 -3 3 -11 -8 -17 -25 -6 -18 -15 -30 -19 -27 -5 3 -11 -4 -15
-15 -3 -11 -13 -26 -21 -34 -9 -9 -10 -17 -4 -21 5 -3 19 9 30 27 23 38 27 21
5 -22 -9 -17 -11 -30 -5 -30 5 0 10 4 10 8 0 14 36 52 43 45 4 -3 14 0 23 8
15 12 16 11 10 -9 -9 -28 -2 -28 39 4 l33 25 4 -23 c3 -21 5 -21 39 15 20 20
39 37 43 37 4 0 0 -7 -8 -16 -28 -27 -17 -36 16 -13 17 13 28 18 24 11 -5 -8
0 -11 16 -8 13 3 28 5 33 6 6 1 1 5 -10 10 -16 7 -14 9 15 9 26 1 31 -2 20 -9
-13 -8 -12 -10 3 -10 9 0 17 3 17 8 0 9 49 32 70 32 9 0 20 4 25 9 6 5 39 12
75 16 36 4 71 11 78 18 10 8 16 7 22 -3 7 -11 11 -11 24 -1 8 7 20 10 26 6 6
-4 18 1 26 11 14 17 15 17 10 2 -3 -10 -2 -18 3 -18 11 0 41 34 41 47 0 6 9
13 20 16 11 3 20 1 20 -4 0 -5 -4 -9 -10 -9 -5 0 -10 -4 -10 -9 0 -4 24 -6 53
-4 47 4 50 3 34 -10 -12 -10 -31 -13 -59 -9 -28 3 -39 2 -34 -6 9 -14 117 -6
128 10 5 9 8 9 8 2 0 -7 21 -15 48 -19 76 -11 172 -37 172 -46 0 -14 -30 -10
-31 4 0 6 -4 2 -10 -11 -5 -13 -14 -20 -20 -16 -8 5 -8 8 0 14 9 5 8 10 -4 20
-12 10 -15 10 -15 -4 0 -9 -4 -16 -10 -16 -21 0 -9 -19 20 -32 35 -15 38 -24
10 -24 -11 0 -20 4 -20 8 0 4 -5 8 -12 8 -6 0 -8 -3 -5 -7 4 -3 -1 -12 -11
-19 -15 -12 -11 -13 26 -10 32 3 42 0 42 -11 0 -10 6 -13 15 -9 8 3 22 9 30
12 8 3 15 1 15 -5 0 -6 -7 -11 -15 -11 -8 0 -15 -5 -15 -11 0 -6 -7 -8 -16 -5
-12 5 -15 2 -12 -12 3 -11 1 -27 -4 -37 -8 -14 -7 -16 8 -13 11 2 18 11 18 20
-1 14 3 15 23 7 32 -12 33 -12 33 6 0 8 -6 15 -14 15 -8 0 -18 5 -22 12 -4 7
-3 8 5 4 6 -4 18 -2 26 4 8 6 22 10 32 7 14 -4 13 -5 -4 -6 -17 -1 -21 -5 -16
-18 3 -10 13 -24 21 -30 13 -11 8 -13 -32 -13 -38 0 -46 -3 -44 -17 2 -11 -6
-19 -22 -24 -23 -6 -23 -7 -3 -8 12 -1 28 -8 36 -16 8 -8 17 -11 20 -8 4 3 21
7 39 9 17 2 35 10 40 16 5 10 11 8 21 -6 8 -11 19 -16 25 -12 6 3 15 -1 20
-10 9 -16 23 -16 64 1 11 4 18 0 23 -14 4 -13 12 -18 23 -15 9 3 4 -5 -12 -19
-16 -14 -26 -31 -23 -38 4 -9 6 -7 6 5 1 11 4 17 7 13 3 -3 17 4 30 16 24 20
24 22 7 35 -16 12 -16 13 -1 10 9 -2 16 1 15 7 -1 5 -10 8 -20 7 -9 -2 -23 3
-30 10 -17 17 -16 67 1 61 6 -3 12 0 12 6 0 6 8 11 18 11 13 0 14 2 3 9 -9 6
-10 11 -2 15 6 4 15 5 21 1 14 -8 0 -35 -18 -35 -8 0 -12 -3 -9 -7 4 -3 -2
-13 -13 -20 -21 -15 -19 -33 3 -28 36 8 76 28 71 36 -3 5 0 9 6 9 6 0 8 -13 5
-32 -3 -18 -2 -28 2 -23 14 17 43 18 37 0 -4 -8 -1 -22 6 -30 10 -12 9 -15 -9
-15 -12 0 -21 6 -21 15 0 9 -9 15 -21 15 -18 0 -17 -3 10 -26 17 -14 38 -23
46 -20 11 4 15 -2 14 -27 -1 -30 -1 -31 -9 -7 -6 22 -8 23 -15 8 -4 -10 -11
-16 -15 -13 -5 3 -20 -6 -34 -20 -20 -19 -26 -22 -26 -10 0 9 7 18 15 21 8 4
13 17 12 35 -2 32 -27 50 -27 19 0 -11 -4 -20 -10 -20 -5 0 -10 -4 -10 -10 0
-5 7 -7 15 -4 8 4 15 1 15 -5 0 -6 -7 -11 -16 -11 -8 0 -13 -4 -10 -8 3 -5 -6
-15 -19 -22 -14 -7 -25 -20 -25 -29 0 -13 2 -13 9 -2 5 8 14 10 21 6 9 -5 11
-4 6 3 -4 7 -3 12 3 12 14 0 20 -12 26 -54 5 -29 3 -36 -10 -36 -9 0 -14 -4
-10 -10 10 -16 35 1 35 24 0 42 31 57 61 30 23 -21 25 -36 4 -28 -8 4 -15 1
-15 -5 0 -6 10 -11 23 -11 16 0 18 -3 8 -9 -10 -7 -11 -13 -2 -30 7 -11 9 -21
5 -21 -3 0 -1 -7 6 -15 15 -19 7 -30 -16 -21 -11 4 -14 13 -10 29 3 14 -1 31
-10 43 -15 18 -15 18 -11 -3 6 -26 -17 -32 -27 -7 -3 8 -10 13 -15 10 -10 -7
-2 -56 10 -56 5 0 6 7 3 15 -5 11 -2 13 11 9 10 -4 15 -14 12 -25 -3 -11 -1
-17 3 -14 5 3 15 -4 23 -16 11 -15 16 -17 20 -7 3 10 9 8 21 -7 17 -22 22 -70
6 -60 -5 3 -10 17 -10 31 0 20 -4 24 -19 19 -12 -4 -23 0 -28 9 -5 9 -9 -3
-10 -34 -1 -44 1 -48 14 -35 8 8 18 15 23 15 13 0 20 -29 9 -36 -6 -4 -6 -11
2 -20 6 -8 9 -17 6 -21 -11 -10 13 -44 26 -37 9 5 9 4 0 -6 -10 -11 -16 -10
-32 4 -19 18 -20 17 -27 -8 -5 -20 -9 -24 -19 -16 -10 8 -14 4 -19 -15 -4 -14
-4 -30 -1 -35 4 -6 -2 -10 -12 -10 -15 0 -16 -2 -3 -10 18 -11 32 7 24 33 -3
11 0 17 9 17 8 0 17 -10 21 -22 4 -19 7 -20 18 -9 10 11 10 14 1 18 -15 6 -17
43 -3 43 6 0 10 -9 10 -21 0 -11 5 -17 10 -14 6 4 7 11 4 17 -4 7 -2 8 4 4 9
-5 9 -13 2 -26 -7 -13 -7 -21 0 -25 5 -3 10 -12 9 -18 0 -9 -2 -9 -6 1 -8 21
-21 13 -26 -15 -4 -27 -4 -27 -12 -5 -4 12 -11 22 -15 22 -10 0 -40 -35 -40
-46 0 -5 5 -1 11 9 12 21 29 22 29 2 0 -8 -6 -15 -12 -15 -9 0 -9 -3 -3 -8 14
-9 11 -75 -3 -80 -7 -2 -12 1 -12 7 0 6 -5 11 -11 11 -8 0 -8 -5 1 -15 10 -12
10 -15 0 -15 -9 0 -10 -3 -1 -13 22 -27 -2 -137 -26 -114 -4 4 -1 13 5 19 15
15 16 28 2 28 -5 0 -10 -7 -10 -15 0 -8 -5 -15 -12 -15 -9 0 -9 -3 -1 -11 6
-6 9 -18 6 -26 -4 -9 4 -24 18 -35 l24 -20 -27 6 c-16 4 -28 2 -28 -4 0 -5 5
-10 11 -10 6 0 8 -9 4 -22 -6 -17 -4 -20 10 -15 9 4 18 7 21 7 2 0 1 8 -2 18
-5 14 -4 15 5 2 23 -32 14 -40 -46 -41 -27 -1 -28 -5 -8 -26 18 -18 13 -29 -7
-17 -17 11 -49 16 -65 9 -11 -4 -10 -10 3 -30 9 -14 19 -23 22 -21 3 3 -1 12
-8 21 -7 9 -10 19 -6 22 4 4 11 1 15 -6 5 -8 14 -10 22 -6 9 6 11 3 6 -9 -5
-13 -1 -19 13 -23 31 -8 24 -24 -7 -17 -23 5 -26 4 -15 -7 15 -16 16 -37 1
-22 -6 6 -18 9 -25 6 -8 -3 -20 0 -28 6 -10 9 -15 8 -19 -3 -4 -9 -1 -13 6
-10 9 3 14 -7 15 -31 2 -27 -1 -35 -14 -35 -8 0 -14 -6 -11 -12 2 -7 12 -12
21 -12 19 2 22 -12 4 -19 -10 -4 -10 -8 2 -16 15 -10 34 -5 25 8 -2 5 7 13 20
19 28 13 34 35 9 30 -20 -4 -39 24 -31 45 5 14 9 13 41 -1 34 -15 52 -38 21
-26 -8 4 -15 1 -15 -5 0 -6 10 -11 23 -11 21 -1 21 -1 -5 -18 -23 -13 -28 -25
-29 -57 -1 -22 -4 -30 -6 -18 -4 18 -8 20 -31 14 -15 -5 -33 -6 -41 -3 -8 3
-11 0 -7 -7 4 -6 2 -11 -4 -11 -8 0 -10 10 -6 28 5 27 5 27 -9 -3 -10 -23 -11
-32 -2 -40 15 -12 20 -55 7 -55 -5 0 -16 14 -25 30 -19 36 -21 37 -27 6 -3
-16 -1 -23 7 -20 6 3 17 -1 24 -9 17 -21 -2 -64 -31 -70 -21 -4 -21 -4 3 -6
26 -1 57 -26 46 -37 -10 -10 -28 7 -21 18 5 8 1 9 -10 5 -10 -4 -20 -7 -22 -7
-2 0 -4 -5 -4 -11 0 -5 4 -8 9 -4 5 3 12 -4 16 -15 5 -15 11 -18 23 -12 24 12
41 9 51 -7 6 -9 11 -10 15 -2 4 6 2 11 -3 11 -23 0 -9 19 17 23 26 4 26 4 5
12 -29 9 -20 25 13 23 17 -2 23 -7 19 -18 -5 -12 -3 -12 6 -3 12 12 6 44 -8
42 -21 -3 -31 3 -36 21 -3 11 -10 20 -17 20 -6 0 -9 -4 -6 -9 7 -11 -14 -20
-31 -13 -7 2 -13 8 -13 13 0 4 7 6 16 2 12 -4 14 0 8 21 -4 16 -2 26 5 26 6 0
8 -7 5 -15 -5 -11 1 -15 19 -15 32 0 57 -9 57 -22 0 -5 8 -17 17 -26 16 -16
16 -16 10 2 -4 10 -2 25 4 32 10 12 9 13 -5 8 -9 -3 -16 -1 -16 6 0 6 -4 8
-10 5 -5 -3 -10 -1 -10 5 0 7 7 9 16 6 25 -10 44 12 38 43 -5 24 -2 29 28 38
18 6 25 11 15 12 -14 1 -16 6 -11 28 6 21 4 25 -9 20 -10 -4 -17 2 -21 16 -7
27 3 37 15 14 13 -23 29 -22 29 2 0 23 -26 47 -33 31 -3 -6 -4 -5 -3 2 2 7 13
13 26 13 13 0 25 6 28 14 3 8 0 11 -6 7 -6 -3 -22 5 -36 19 -26 26 -19 33 16
14 13 -7 24 -7 30 -1 6 6 3 12 -7 16 -10 4 -14 2 -9 -6 4 -7 3 -8 -4 -4 -18
11 -14 29 3 22 19 -7 33 23 16 33 -9 6 -8 11 4 21 17 14 21 35 4 25 -10 -7 10
35 22 45 9 8 7 44 -3 56 -5 8 -3 17 6 27 8 8 16 32 17 53 1 22 6 44 11 51 5 6
10 27 10 45 0 18 6 39 12 47 6 8 10 15 8 15 -2 1 -1 12 2 26 3 14 7 48 10 75
9 102 19 160 30 167 8 6 8 8 -1 8 -13 0 -6 79 8 95 5 5 9 17 9 28 0 10 4 16 9
13 5 -4 3 -26 -5 -53 -8 -27 -13 -55 -10 -63 2 -8 4 -5 5 8 0 12 5 22 11 22 5
0 7 6 4 14 -3 8 -1 17 5 21 6 3 11 -1 11 -9 0 -9 4 -16 10 -16 5 0 7 7 3 16
-5 13 -2 15 17 9 16 -5 20 -4 15 5 -4 6 -16 10 -26 7 -10 -3 -22 -1 -25 4 -3
5 -1 9 3 9 9 0 12 18 16 88 1 23 5 42 8 42 9 0 18 51 12 67 -3 7 -9 13 -14 13
-4 0 -6 -7 -3 -15 4 -8 1 -15 -5 -15 -6 0 -11 7 -11 15 0 8 -5 15 -11 15 -5 0
-7 -4 -4 -10 3 -5 1 -18 -4 -29 -8 -14 -8 -21 2 -24 9 -4 9 -6 0 -6 -7 -1 -13
-10 -13 -20 0 -14 -5 -18 -20 -14 -16 4 -18 9 -9 25 8 15 8 22 0 27 -7 5 -9
20 -5 39 4 17 10 29 15 26 5 -3 9 -1 9 5 0 5 -6 11 -12 14 -10 3 -10 9 -1 23
6 11 16 18 21 17 5 -1 8 6 5 15 -3 12 4 22 22 30 17 8 25 18 22 27 -4 9 4 16
26 21 29 6 30 7 12 20 -16 12 -16 14 -2 14 9 0 20 -8 26 -17 9 -16 10 -16 8 4
0 12 -4 20 -8 17 -4 -2 -10 0 -13 5 -4 5 -2 12 3 16 6 3 8 12 5 19 -6 16 29
31 46 21 5 -3 10 -2 10 4 0 5 -6 12 -12 15 -10 5 -10 7 0 12 9 4 10 9 2 19 -8
10 -6 15 10 20 11 3 18 11 15 16 -4 5 4 13 17 18 22 9 22 10 -5 10 -53 2 -93
-26 -123 -84 -15 -30 -31 -52 -36 -49 -4 3 -4 13 1 22 5 9 12 44 16 76 4 33
11 70 16 82 4 13 9 42 10 66 1 24 6 53 10 65 4 11 11 47 14 80 8 65 29 166 40
182 23 38 36 407 21 616 -7 103 -36 256 -47 249 -14 -8 -32 39 -31 78 1 21 -2
46 -7 56 -37 69 -71 146 -71 158 0 8 -10 25 -22 37 -13 13 -24 36 -26 53 -3
27 -9 49 -28 99 -4 11 -6 23 -6 27 2 10 -51 38 -123 62 l-59 21 -11 62 c-8 44
-8 64 -1 67 7 3 6 10 -4 18 -19 17 -37 46 -51 81 -6 15 -14 27 -18 27 -8 0
-29 40 -27 52 0 3 -10 18 -23 31 -12 14 -20 30 -17 35 3 5 -12 21 -33 35 -29
19 -48 45 -76 104 -20 43 -40 80 -44 83 -4 3 -19 38 -35 77 -27 72 -54 102
-102 117 -12 4 -34 18 -48 31 -14 13 -26 22 -26 19 0 -2 -21 7 -47 21 -25 15
-74 37 -109 50 -34 13 -73 31 -87 39 -13 9 -60 23 -103 30 -43 8 -99 21 -124
29 -80 27 -158 47 -178 47 -12 0 -33 5 -49 12 -15 6 -31 11 -34 10 -4 -1 -21
3 -38 8 -17 5 -31 5 -31 0 0 -5 -28 -8 -62 -8 -42 1 -56 4 -43 9 16 6 17 8 3
8 -10 1 -23 -9 -29 -21 -12 -22 -12 -22 -20 -3 -4 11 -8 14 -8 8 -1 -7 -6 -13
-12 -13 -5 0 -7 5 -3 12 4 6 3 8 -3 5 -6 -4 -24 -3 -39 3 -34 11 -321 17 -414
9z m20 -19 c8 -5 12 -12 9 -15 -8 -8 -39 5 -39 16 0 11 11 11 30 -1z m170 -10
c12 -7 10 -9 -8 -7 -12 0 -22 5 -22 9 0 11 12 10 30 -2z m-525 -28 c-3 -3 -11
0 -18 7 -9 10 -8 11 6 5 10 -3 15 -9 12 -12z m595 8 c12 -7 10 -9 -8 -7 -12 0
-22 5 -22 9 0 11 12 10 30 -2z m375 0 c3 -5 1 -10 -4 -10 -6 0 -11 5 -11 10 0
6 2 10 4 10 3 0 8 -4 11 -10z m-1250 -73 c11 -1 42 2 68 6 31 4 46 3 42 -3 -3
-6 -24 -13 -45 -16 -22 -4 -37 -10 -34 -15 3 -5 -3 -6 -12 -2 -11 4 -15 3 -10
-5 3 -6 2 -13 -4 -17 -5 -3 -10 -2 -10 4 0 6 -13 4 -33 -4 -21 -9 -38 -10 -48
-4 -22 14 -37 11 -35 -8 0 -10 -5 -17 -11 -15 -7 1 -13 -3 -13 -9 0 -6 -9 -9
-20 -6 -11 3 -20 1 -20 -4 0 -17 -18 -9 -23 11 -3 13 0 20 9 20 8 0 14 5 14
10 0 6 9 10 19 10 10 0 21 7 25 15 6 15 36 21 36 7 0 -4 9 -8 20 -9 11 -1 20
2 20 8 0 5 -9 9 -20 9 -13 0 -18 5 -14 14 4 11 16 13 42 9 21 -3 46 -6 57 -6z
m169 -33 c28 -11 17 -19 -25 -21 -23 0 -49 -9 -60 -19 -20 -18 -21 -18 -8 8
13 31 58 46 93 32z m-259 -34 c3 -5 1 -10 -4 -10 -6 0 -11 5 -11 10 0 6 2 10
4 10 3 0 8 -4 11 -10z m-125 -28 c0 -12 -23 -32 -37 -32 -7 0 -13 5 -13 10 0
6 7 10 15 10 8 0 15 5 15 10 0 6 5 10 10 10 6 0 10 -4 10 -8z m30 -32 c0 -5
-5 -10 -11 -10 -5 0 -7 5 -4 10 3 6 8 10 11 10 2 0 4 -4 4 -10z m-50 -44 c0
-2 -9 -6 -20 -9 -11 -3 -20 -1 -20 4 0 5 9 9 20 9 11 0 20 -2 20 -4z m800
-1081 c-9 -11 -9 -15 -1 -15 7 0 9 -5 5 -11 -4 -8 -9 -7 -15 2 -4 8 -13 15
-19 15 -24 3 -23 7 5 14 17 4 32 8 34 9 2 0 -2 -6 -9 -14z m440 5 c0 -5 -4
-10 -10 -10 -5 0 -10 5 -10 10 0 6 5 10 10 10 6 0 10 -4 10 -10z m35 -8 c-3
-3 -11 0 -18 7 -9 10 -8 11 6 5 10 -3 15 -9 12 -12z m-548 -8 c-3 -3 -12 -4
-19 -1 -8 3 -5 6 6 6 11 1 17 -2 13 -5z m173 -10 c0 -2 -19 -4 -42 -3 -31 0
-37 3 -24 8 18 7 66 3 66 -5z m150 6 c0 -5 -4 -10 -10 -10 -5 0 -10 5 -10 10
0 6 5 10 10 10 6 0 10 -4 10 -10z m-350 -30 c0 -5 -2 -10 -4 -10 -3 0 -8 5
-11 10 -3 6 -1 10 4 10 6 0 11 -4 11 -10z m1184 -75 c-4 -8 -8 -15 -10 -15 -2
0 -4 7 -4 15 0 8 4 15 10 15 5 0 7 -7 4 -15z m156 -4 c0 -17 -18 -21 -24 -6
-3 9 0 15 9 15 8 0 15 -4 15 -9z m37 -7 c-3 -3 -12 -4 -19 -1 -8 3 -5 6 6 6
11 1 17 -2 13 -5z m33 -24 c0 -5 -4 -10 -10 -10 -5 0 -10 5 -10 10 0 6 5 10
10 10 6 0 10 -4 10 -10z m-2250 -20 c-8 -5 -19 -10 -25 -10 -5 0 -3 5 5 10 8
5 20 10 25 10 6 0 3 -5 -5 -10z m2335 0 c3 -5 2 -10 -4 -10 -5 0 -13 5 -16 10
-3 6 -2 10 4 10 5 0 13 -4 16 -10z m37 -56 c6 -18 15 -31 20 -28 4 3 15 -2 24
-10 9 -9 11 -16 4 -16 -6 0 -8 -4 -5 -10 9 -14 -1 -13 -35 5 -23 12 -28 21
-26 43 3 23 0 27 -20 27 -13 0 -24 -6 -24 -12 0 -7 -5 -13 -10 -13 -11 0 -10
31 2 40 3 3 18 6 32 6 20 2 28 -5 38 -32z m-35 -26 c-3 -8 -6 -5 -6 6 -1 11 2
17 5 13 3 -3 4 -12 1 -19z m143 -63 c0 -6 -40 3 -50 12 -2 2 2 8 9 13 13 8 41
-9 41 -25z m30 -6 c0 -6 -4 -7 -10 -4 -5 3 -10 11 -10 16 0 6 5 7 10 4 6 -3
10 -11 10 -16z m40 -29 c0 -5 -5 -10 -11 -10 -5 0 -7 5 -4 10 3 6 8 10 11 10
2 0 4 -4 4 -10z m55 -42 c6 -4 2 -8 -7 -8 -10 0 -18 7 -18 17 0 9 3 12 8 7 4
-5 12 -12 17 -16z m-45 -14 c0 -8 -4 -12 -10 -9 -5 3 -10 10 -10 16 0 5 5 9
10 9 6 0 10 -7 10 -16z m90 -35 c0 -6 -4 -7 -10 -4 -5 3 -10 11 -10 16 0 6 5
7 10 4 6 -3 10 -11 10 -16z m38 -14 c-3 -3 -9 2 -12 12 -6 14 -5 15 5 6 7 -7
10 -15 7 -18z m-38 -55 c0 -5 -4 -10 -10 -10 -5 0 -10 5 -10 10 0 6 5 10 10
10 6 0 10 -4 10 -10z m170 -44 c0 -2 -7 -7 -16 -10 -8 -3 -12 -2 -9 4 6 10 25
14 25 6z m-66 -60 c-3 -9 -10 -13 -15 -10 -5 3 -3 11 4 19 15 16 19 13 11 -9z
m-3317 -208 c-3 -8 -6 -5 -6 6 -1 11 2 17 5 13 3 -3 4 -12 1 -19z m3 -272 c0
-3 -4 -8 -10 -11 -5 -3 -10 -1 -10 4 0 6 5 11 10 11 6 0 10 -2 10 -4z m3440
-62 c0 -8 -4 -12 -10 -9 -5 3 -10 13 -10 21 0 8 5 12 10 9 6 -3 10 -13 10 -21z
m20 -91 c0 -5 -4 -15 -10 -23 -11 -18 -25 -7 -17 15 6 15 27 21 27 8z m-30
-119 c0 -3 -7 -12 -15 -20 -13 -14 -15 -13 -15 5 0 12 6 21 15 21 8 0 15 -3
15 -6z m75 -52 c-7 -8 -35 13 -35 26 0 13 3 12 19 -4 10 -10 17 -20 16 -22z
m-55 17 c0 -19 -30 -43 -42 -31 -7 7 -3 12 11 17 12 3 19 11 16 16 -4 5 -1 9
4 9 6 0 11 -5 11 -11z m33 -58 c9 -16 17 -33 17 -38 0 -4 -5 0 -11 9 -7 13
-15 15 -32 9 -22 -9 -56 13 -42 27 3 3 10 0 15 -7 5 -9 14 -11 26 -6 18 8 18
8 1 12 -9 3 -15 9 -12 14 10 15 20 10 38 -20z m-566 13 c-3 -3 -12 -4 -19 -1
-8 3 -5 6 6 6 11 1 17 -2 13 -5z m467 -31 c4 -5 13 -8 19 -8 5 0 12 -6 15 -12
2 -7 0 -13 -5 -13 -13 1 -59 40 -47 40 6 0 14 -3 18 -7z m149 -23 c-3 -12 -8
-19 -11 -16 -5 6 5 36 12 36 2 0 2 -9 -1 -20z m-643 -2 c0 -11 -22 -10 -39 1
-10 7 -7 9 12 8 15 -1 27 -5 27 -9z m582 -20 c-2 -14 4 -32 12 -41 14 -13 13
-15 -5 -20 -15 -4 -19 -2 -15 9 4 12 1 14 -14 9 -11 -4 -20 -2 -20 4 0 6 7 11
15 11 8 0 15 7 15 16 0 12 -4 14 -12 7 -15 -11 -68 -26 -68 -19 0 3 16 13 35
22 19 9 35 21 35 26 0 5 6 8 13 5 6 -2 11 -15 9 -29z m-167 -67 c-6 -5 -25 10
-25 20 0 5 6 4 14 -3 8 -7 12 -15 11 -17z m105 18 c0 -5 -9 -9 -19 -9 -11 0
-22 4 -25 9 -3 5 6 9 19 9 14 0 25 -4 25 -9z m-601 -18 c10 -7 7 -9 -12 -8
-14 1 -23 5 -20 10 6 9 15 9 32 -2z m171 -1 c0 -5 -4 -10 -9 -10 -6 0 -13 5
-16 10 -3 6 1 10 9 10 9 0 16 -4 16 -10z m-230 -10 c0 -5 -7 -10 -15 -10 -8 0
-15 5 -15 10 0 6 7 10 15 10 8 0 15 -4 15 -10z m691 -3 c25 0 25 -1 7 -19 -22
-22 -28 -23 -28 -3 0 8 -3 14 -7 14 -19 -3 -33 2 -33 12 0 7 7 8 18 3 9 -4 29
-7 43 -7z m122 -2 c4 -8 2 -17 -3 -20 -6 -4 -10 3 -10 14 0 25 6 27 13 6z
m-503 -5 c0 -13 -11 -13 -30 0 -12 8 -11 10 8 10 12 0 22 -4 22 -10z m450 6
c0 -11 -19 -15 -25 -6 -3 5 1 10 9 10 9 0 16 -2 16 -4z m-213 -28 c-3 -8 -6
-5 -6 6 -1 11 2 17 5 13 3 -3 4 -12 1 -19z m37 14 c3 -5 -1 -9 -9 -9 -8 0 -12
4 -9 9 3 4 7 8 9 8 2 0 6 -4 9 -8z m137 -35 c-8 -8 -11 -7 -11 4 0 20 13 34
18 19 3 -7 -1 -17 -7 -23z m-51 -8 c0 -5 -4 -9 -8 -9 -5 0 -9 7 -9 15 0 8 4
12 9 9 4 -3 8 -9 8 -15z m-970 -14 c-7 -9 -15 -13 -17 -11 -6 6 20 36 26 30 2
-2 -2 -10 -9 -19z m914 9 c9 -24 7 -34 -6 -34 -6 0 -8 3 -5 7 4 3 0 15 -10 25
-14 16 -14 18 -1 18 9 0 19 -7 22 -16z m141 7 c3 -5 1 -12 -5 -16 -5 -3 -10 1
-10 9 0 18 6 21 15 7z m-29 -25 c15 -8 31 -13 36 -10 4 3 8 1 8 -4 0 -20 -14
-20 -40 -2 -16 11 -33 20 -39 20 -19 0 -12 -16 12 -27 21 -11 21 -11 2 -19
-11 -4 -24 -12 -28 -18 -6 -7 -7 -5 -4 5 3 9 -2 27 -10 40 -9 12 -11 19 -5 15
6 -3 13 -2 17 4 8 13 18 13 51 -4z m74 5 c0 -6 -4 -13 -10 -16 -5 -3 -10 1
-10 9 0 9 5 16 10 16 6 0 10 -4 10 -9z m-1280 -15 c0 -3 -4 -8 -10 -11 -5 -3
-10 -1 -10 4 0 6 5 11 10 11 6 0 10 -2 10 -4z m1135 -16 c3 -6 -4 -10 -17 -10
-18 0 -20 2 -8 10 19 12 18 12 25 0z m175 -5 c11 -13 10 -14 -4 -9 -11 4 -16
1 -16 -10 0 -9 -5 -16 -10 -16 -13 0 -9 32 5 42 13 10 11 10 25 -7z m-393 -1
c-3 -3 -12 -4 -19 -1 -8 3 -5 6 6 6 11 1 17 -2 13 -5z m-1057 -8 c0 -3 -4 -8
-10 -11 -5 -3 -10 -1 -10 4 0 6 5 11 10 11 6 0 10 -2 10 -4z m1089 -18 c0 -22
-1 -22 -9 -3 -5 11 -9 14 -9 8 -1 -7 -6 -13 -12 -13 -8 0 -8 5 1 15 18 22 30
18 29 -7z m307 -5 c-10 -10 -19 5 -10 18 6 11 8 11 12 0 2 -7 1 -15 -2 -18z
m-138 -18 c-9 -9 -30 14 -23 25 6 9 10 8 17 -4 6 -10 8 -19 6 -21z m22 25 c0
-5 -2 -10 -4 -10 -3 0 -8 5 -11 10 -3 6 -1 10 4 10 6 0 11 -4 11 -10z m75 0
c-3 -5 0 -10 7 -10 10 0 10 -2 -1 -9 -16 -10 -41 -4 -41 11 0 5 5 6 10 3 6 -3
10 -1 10 4 0 6 5 11 11 11 5 0 7 -4 4 -10z m-218 -6 c-3 -3 -12 -4 -19 -1 -8
3 -5 6 6 6 11 1 17 -2 13 -5z m153 -24 c0 -5 -4 -10 -10 -10 -5 0 -10 5 -10
10 0 6 5 10 10 10 6 0 10 -4 10 -10z m133 3 c-7 -2 -21 -2 -30 0 -10 3 -4 5
12 5 17 0 24 -2 18 -5z m-25 -26 c10 -8 16 -7 22 3 5 8 12 11 16 7 4 -3 1 -13
-5 -21 -8 -10 -9 -16 -1 -21 14 -9 13 -25 -3 -25 -8 0 -19 11 -25 25 -18 38
-38 41 -66 8 -14 -15 -26 -22 -26 -15 0 7 7 15 15 18 21 8 19 26 -2 20 -41
-12 -73 -14 -73 -4 0 5 6 8 14 5 8 -3 22 0 32 8 20 14 80 10 102 -8z m-193 3
c3 -5 1 -10 -4 -10 -6 0 -11 5 -11 10 0 6 2 10 4 10 3 0 8 -4 11 -10z m89 -44
c-3 -9 -10 -13 -15 -10 -5 3 -3 11 4 19 15 16 19 13 11 -9z m-58 -6 c13 0 24
-4 24 -9 0 -14 -53 3 -56 17 -1 7 0 8 3 2 2 -5 16 -10 29 -10z m-36 -15 c8 -9
8 -15 2 -15 -6 0 -13 6 -16 13 -3 6 -4 3 -1 -9 6 -24 -33 -51 -59 -41 -9 4
-16 2 -16 -3 0 -13 -27 -13 -35 0 -3 5 -1 18 4 27 10 17 10 17 11 0 0 -17 1
-17 16 -3 11 12 20 13 34 6 15 -8 19 -5 24 15 7 29 18 32 36 10z m200 -9 c0
-11 -19 -15 -25 -6 -3 5 1 10 9 10 9 0 16 -2 16 -4z m55 -5 c3 -5 1 -12 -5
-16 -5 -3 -10 1 -10 9 0 18 6 21 15 7z m-202 -21 c3 -11 2 -20 -3 -20 -12 0
-31 26 -23 33 11 12 21 7 26 -13z m22 -37 c-10 -7 -21 -10 -24 -7 -3 4 0 9 7
11 6 3 12 14 12 26 1 21 1 21 12 3 9 -15 7 -22 -7 -33z m203 -122 c3 -9 -1
-11 -14 -7 -11 3 -26 1 -34 -5 -12 -8 -10 -9 8 -4 13 4 22 2 22 -4 0 -6 -4
-11 -10 -11 -19 0 -25 -2 -37 -12 -23 -19 -15 15 10 39 24 24 48 26 55 4z m12
-41 c0 -5 -4 -10 -10 -10 -5 0 -10 5 -10 10 0 6 5 10 10 10 6 0 10 -4 10 -10z
m143 -35 c4 -8 2 -17 -3 -20 -6 -4 -10 0 -10 7 0 9 -3 9 -10 -2 -8 -12 -10
-11 -10 8 0 25 25 30 33 7z m-13 -55 c0 -5 -4 -10 -10 -10 -5 0 -10 5 -10 10
0 6 5 10 10 10 6 0 10 -4 10 -10z m-120 -124 c0 -3 -4 -8 -10 -11 -5 -3 -10
-1 -10 4 0 6 5 11 10 11 6 0 10 -2 10 -4z m34 -62 c3 -8 2 -12 -4 -9 -6 3 -10
10 -10 16 0 14 7 11 14 -7z m-34 -234 c13 -8 13 -10 -2 -10 -9 0 -20 5 -23 10
-8 13 5 13 25 0z m0 -60 c0 -5 -4 -10 -10 -10 -5 0 -10 5 -10 10 0 6 5 10 10
10 6 0 10 -4 10 -10z m-10 -45 c0 -7 -7 -15 -15 -19 -9 -3 -15 0 -15 8 0 8 -6
17 -12 20 -7 3 -2 3 11 0 17 -5 21 -3 16 6 -5 9 -4 11 3 6 7 -4 12 -13 12 -21z
m-10 -45 c0 -5 -4 -10 -10 -10 -5 0 -10 5 -10 10 0 6 5 10 10 10 6 0 10 -4 10
-10z m-15 -30 c3 -5 1 -10 -4 -10 -6 0 -11 5 -11 10 0 6 2 10 4 10 3 0 8 -4
11 -10z m-15 -30 c0 -5 -5 -10 -11 -10 -5 0 -7 5 -4 10 3 6 8 10 11 10 2 0 4
-4 4 -10z m40 0 c0 -5 -4 -10 -10 -10 -5 0 -10 5 -10 10 0 6 5 10 10 10 6 0
10 -4 10 -10z m-51 -29 c8 -5 9 -11 3 -15 -14 -8 -43 4 -36 15 7 11 15 11 33
0z m51 -1 c0 -5 -4 -10 -9 -10 -6 0 -13 5 -16 10 -3 6 1 10 9 10 9 0 16 -4 16
-10z m-30 -30 c0 -5 -5 -10 -11 -10 -5 0 -7 5 -4 10 3 6 8 10 11 10 2 0 4 -4
4 -10z m22 -22 c-7 -7 -12 -8 -12 -2 0 14 12 26 19 19 2 -3 -1 -11 -7 -17z
m-12 -29 c0 -14 -17 -10 -23 5 -4 10 -1 13 9 9 7 -3 14 -9 14 -14z m-45 -63
c12 -12 12 -15 -2 -21 -10 -3 -14 -3 -10 1 4 4 2 13 -4 21 -15 17 -1 17 16 -1z
m-6 -70 c9 -10 8 -15 -4 -20 -10 -4 -15 1 -15 14 0 24 4 25 19 6z m-33 -43
c-10 -10 -19 5 -10 18 6 11 8 11 12 0 2 -7 1 -15 -2 -18z m38 -106 c7 -6 6 -7
-4 -4 -8 2 -16 12 -17 23 -2 13 -1 15 4 4 3 -8 11 -19 17 -23z m-29 -46 c1
-34 -2 -38 -22 -37 -27 1 -30 11 -7 20 11 4 14 13 10 31 -4 17 -2 25 6 25 8 0
13 -14 13 -39z m-70 -30 c-3 -5 1 -11 7 -14 7 -2 10 -8 6 -12 -12 -13 -20 1
-24 37 -3 26 -1 30 7 15 5 -9 8 -21 4 -26z m-25 21 c0 -13 -12 -22 -22 -16
-10 6 -1 24 13 24 5 0 9 -4 9 -8z m-22 -121 c27 -23 27 -27 2 -27 -11 0 -20 3
-20 7 0 4 -3 14 -6 23 -8 21 -2 20 24 -3z m32 9 c0 -5 -5 -10 -11 -10 -5 0 -7
5 -4 10 3 6 8 10 11 10 2 0 4 -4 4 -10z"/>
<path d="M4060 13365 c7 -8 16 -12 21 -9 13 8 1 24 -18 24 -13 0 -13 -3 -3
-15z"/>
<path d="M4246 13489 c2 -4 -2 -10 -8 -12 -7 -3 -3 -6 8 -6 12 -1 27 6 34 14
11 13 9 15 -13 13 -14 -1 -24 -5 -21 -9z"/>
<path d="M4165 13480 c-13 -5 -14 -9 -5 -9 8 0 24 4 35 9 13 5 14 9 5 9 -8 0
-24 -4 -35 -9z"/>
<path d="M3758 13303 c7 -3 16 -2 19 1 4 3 -2 6 -13 5 -11 0 -14 -3 -6 -6z"/>
<path d="M6167 13249 c7 -7 15 -10 18 -7 3 3 -2 9 -12 12 -14 6 -15 5 -6 -5z"/>
<path d="M5020 12109 c0 -5 5 -7 10 -4 6 3 10 8 10 11 0 2 -4 4 -10 4 -5 0
-10 -5 -10 -11z"/>
<path d="M4827 12096 c-3 -8 2 -16 14 -19 23 -6 24 -1 5 18 -12 12 -15 12 -19
1z"/>
<path d="M4317 12059 c7 -7 15 -10 18 -7 3 3 -2 9 -12 12 -14 6 -15 5 -6 -5z"/>
<path d="M4230 12039 c0 -5 11 -9 25 -9 33 0 33 15 0 16 -14 1 -25 -2 -25 -7z"/>
<path d="M4040 11999 c0 -5 5 -7 10 -4 6 3 10 8 10 11 0 2 -4 4 -10 4 -5 0
-10 -5 -10 -11z"/>
<path d="M4090 12000 c0 -12 17 -12 45 0 17 7 15 9 -12 9 -18 1 -33 -3 -33 -9z"/>
<path d="M4025 11964 c-19 -15 -18 -15 15 -8 19 5 49 9 67 9 17 0 29 3 26 8
-8 13 -88 7 -108 -9z"/>
<path d="M5940 11930 c-13 -8 -12 -10 3 -10 9 0 17 5 17 10 0 12 -1 12 -20 0z"/>
<path d="M5840 11920 c0 -5 5 -10 10 -10 6 0 10 5 10 10 0 6 -4 10 -10 10 -5
0 -10 -4 -10 -10z"/>
<path d="M3780 11906 c0 -2 7 -6 15 -10 8 -3 15 -1 15 4 0 6 -7 10 -15 10 -8
0 -15 -2 -15 -4z"/>
<path d="M5930 11890 c0 -6 4 -9 9 -5 5 3 12 -2 14 -10 4 -12 5 -12 3 1 -1 19
-26 32 -26 14z"/>
<path d="M3420 11670 c0 -5 5 -10 11 -10 5 0 7 5 4 10 -3 6 -8 10 -11 10 -2 0
-4 -4 -4 -10z"/>
<path d="M6220 11640 c0 -4 9 -10 20 -13 11 -3 20 -2 20 3 0 4 -9 10 -20 13
-11 3 -20 2 -20 -3z"/>
<path d="M6290 11633 c0 -5 4 -15 10 -23 11 -18 25 -7 17 15 -6 15 -27 21 -27
8z"/>
<path d="M3390 11619 c0 -5 5 -7 10 -4 6 3 10 8 10 11 0 2 -4 4 -10 4 -5 0
-10 -5 -10 -11z"/>
<path d="M6335 11580 c-3 -5 -2 -10 3 -10 6 0 19 -14 30 -31 12 -19 21 -26 23
-17 6 17 -47 72 -56 58z"/>
<path d="M3300 11519 c0 -5 5 -7 10 -4 6 3 10 8 10 11 0 2 -4 4 -10 4 -5 0
-10 -5 -10 -11z"/>
<path d="M3250 11455 c-11 -13 -10 -14 4 -9 9 3 16 10 16 15 0 13 -6 11 -20
-6z"/>
<path d="M6470 11389 c0 -5 5 -7 10 -4 6 3 10 8 10 11 0 2 -4 4 -10 4 -5 0
-10 -5 -10 -11z"/>
<path d="M6480 11366 c0 -2 7 -7 16 -10 8 -3 12 -2 9 4 -6 10 -25 14 -25 6z"/>
<path d="M6495 11220 c-3 -5 -1 -10 4 -10 6 0 11 5 11 10 0 6 -2 10 -4 10 -3
0 -8 -4 -11 -10z"/>
<path d="M6525 11120 c-3 -5 -2 -10 4 -10 5 0 13 5 16 10 3 6 2 10 -4 10 -5 0
-13 -4 -16 -10z"/>
<path d="M6505 11060 c-16 -7 -17 -9 -3 -9 9 -1 20 4 23 9 7 11 7 11 -20 0z"/>
<path d="M6520 10959 c0 -5 5 -7 10 -4 6 3 10 8 10 11 0 2 -4 4 -10 4 -5 0
-10 -5 -10 -11z"/>
<path d="M6540 10930 c0 -11 2 -20 4 -20 2 0 6 9 9 20 3 11 1 20 -4 20 -5 0
-9 -9 -9 -20z"/>
<path d="M6542 10894 c-12 -8 -22 -20 -22 -25 0 -6 7 -4 15 4 8 9 20 17 27 20
7 2 10 7 7 10 -3 4 -15 0 -27 -9z"/>
<path d="M6490 10890 c0 -5 5 -10 11 -10 5 0 7 5 4 10 -3 6 -8 10 -11 10 -2 0
-4 -4 -4 -10z"/>
<path d="M6520 10830 c0 -5 7 -10 15 -10 8 0 15 5 15 10 0 6 -7 10 -15 10 -8
0 -15 -4 -15 -10z"/>
<path d="M6498 10796 c-10 -7 -18 -16 -18 -19 0 -12 28 4 34 19 6 17 6 17 -16
0z"/>
<path d="M6411 10774 c0 -11 3 -14 6 -6 3 7 2 16 -1 19 -3 4 -6 -2 -5 -13z"/>
<path d="M6340 10756 c0 -2 7 -6 15 -10 8 -3 15 -1 15 4 0 6 -7 10 -15 10 -8
0 -15 -2 -15 -4z"/>
<path d="M6328 10728 c5 -5 16 -8 23 -6 8 3 3 7 -10 11 -17 4 -21 3 -13 -5z"/>
<path d="M6380 10725 c-11 -13 -10 -14 4 -9 9 3 16 10 16 15 0 13 -6 11 -20
-6z"/>
<path d="M6510 10726 c0 -9 5 -16 10 -16 6 0 10 4 10 9 0 6 -4 13 -10 16 -5 3
-10 -1 -10 -9z"/>
<path d="M6446 10719 c3 -6 0 -15 -7 -20 -7 -4 -10 -11 -6 -16 9 -8 27 15 27
35 0 6 -5 12 -11 12 -5 0 -7 -5 -3 -11z"/>
<path d="M6470 10721 c0 -6 5 -13 10 -16 6 -3 10 1 10 9 0 9 -4 16 -10 16 -5
0 -10 -4 -10 -9z"/>
<path d="M6340 10699 c0 -5 5 -7 10 -4 6 3 10 8 10 11 0 2 -4 4 -10 4 -5 0
-10 -5 -10 -11z"/>
<path d="M6376 10694 c-22 -21 -20 -27 4 -14 11 6 20 15 20 20 0 14 -6 12 -24
-6z"/>
<path d="M3786 10653 c-16 -8 -34 -16 -40 -18 -6 -1 -18 -5 -27 -9 -9 -4 -20
-6 -25 -4 -5 1 -19 -3 -31 -10 -13 -7 -23 -8 -23 -3 0 5 9 12 19 16 11 3 21
11 24 18 7 19 -61 18 -96 -2 -18 -10 -67 -37 -109 -60 -70 -38 -119 -85 -124
-117 -1 -6 -5 -20 -8 -31 -11 -33 10 -73 38 -73 13 0 27 -7 30 -16 4 -9 9 -14
12 -11 8 8 -19 47 -33 47 -6 0 -15 5 -19 11 -4 8 1 9 16 4 16 -5 20 -4 15 4
-4 8 3 10 25 6 23 -4 29 -2 24 6 -5 9 0 10 15 6 18 -4 21 -2 17 10 -6 14 -4
14 16 -1 45 -32 57 -36 63 -26 3 5 -3 10 -14 10 -11 0 -23 5 -26 10 -9 14 48
13 63 -2 9 -9 12 -8 12 5 0 12 -8 17 -31 17 -19 0 -28 4 -23 11 4 7 25 9 61 4
39 -5 53 -3 49 4 -4 6 -17 11 -29 11 -12 0 -31 7 -41 15 -17 13 -18 15 -3 15
9 0 17 -5 17 -11 0 -7 7 -8 18 -4 9 4 37 9 62 11 l45 3 -24 -20 c-26 -21 -24
-30 5 -30 11 0 46 1 79 2 33 1 71 -3 85 -9 19 -7 29 -6 42 5 13 12 21 13 31 5
7 -6 35 -13 62 -16 28 -4 64 -9 80 -12 29 -6 29 -5 10 9 -30 23 -15 27 30 10
24 -10 76 -16 132 -17 62 -1 93 -5 93 -12 0 -7 9 -14 20 -17 13 -3 18 -1 13 6
-4 6 0 8 10 4 20 -7 22 4 5 21 -6 6 -9 15 -5 18 3 4 12 -5 18 -19 12 -26 39
-45 39 -27 0 18 19 10 25 -10 4 -11 20 -27 37 -36 23 -12 29 -13 25 -2 -2 7
-10 12 -17 10 -7 -2 -10 3 -7 12 4 9 1 18 -5 22 -7 5 -8 2 -3 -6 5 -9 4 -11
-4 -6 -6 4 -9 12 -5 17 3 6 9 8 12 5 3 -3 12 0 20 7 13 10 15 9 10 -10 -4 -13
-2 -23 3 -23 13 0 28 41 22 60 -5 15 29 -20 58 -62 10 -13 21 -19 25 -15 5 5
1 14 -8 21 -10 7 -22 25 -27 40 -6 14 -19 29 -28 33 -10 3 -29 16 -43 28 -32
29 -100 65 -122 65 -10 0 -26 4 -36 9 -102 56 -175 73 -314 74 -65 1 -118 4
-118 8 0 10 -73 7 -87 -3 -7 -6 -17 -7 -22 -4 -5 4 -16 -2 -23 -12 -7 -10 -25
-21 -40 -24 -23 -4 -25 -3 -15 13 12 20 40 31 75 32 22 1 23 2 6 14 -22 16
-22 16 -58 -4z m-46 -47 c0 -6 -70 -46 -81 -46 -5 0 -9 7 -9 15 0 8 6 12 15 9
8 -3 24 1 37 10 22 15 38 20 38 12z m125 -6 c-3 -5 -14 -10 -23 -9 -14 0 -13
2 3 9 27 11 27 11 20 0z m435 -20 c0 -5 -2 -10 -4 -10 -3 0 -8 5 -11 10 -3 6
-1 10 4 10 6 0 11 -4 11 -10z m55 -20 c3 -5 1 -10 -4 -10 -6 0 -11 5 -11 10 0
6 2 10 4 10 3 0 8 -4 11 -10z m-590 -20 c-3 -5 -15 -10 -26 -10 -11 0 -17 5
-14 10 3 6 15 10 26 10 11 0 17 -4 14 -10z m30 -51 c10 -16 0 -21 -29 -13 -14
3 -23 10 -20 15 7 12 41 11 49 -2z m410 1 c3 -5 1 -10 -4 -10 -6 0 -11 5 -11
10 0 6 2 10 4 10 3 0 8 -4 11 -10z m-680 -30 c3 -5 1 -10 -4 -10 -6 0 -11 5
-11 10 0 6 2 10 4 10 3 0 8 -4 11 -10z m370 0 c3 -5 1 -10 -4 -10 -6 0 -11 5
-11 10 0 6 2 10 4 10 3 0 8 -4 11 -10z m645 0 c0 -5 -2 -10 -4 -10 -3 0 -8 5
-11 10 -3 6 -1 10 4 10 6 0 11 -4 11 -10z m-260 -10 c0 -5 -5 -10 -11 -10 -5
0 -7 5 -4 10 3 6 8 10 11 10 2 0 4 -4 4 -10z m100 -30 c0 -5 -5 -10 -11 -10
-5 0 -7 5 -4 10 3 6 8 10 11 10 2 0 4 -4 4 -10z"/>
<path d="M3700 10640 c-9 -6 -10 -10 -3 -10 6 0 15 5 18 10 8 12 4 12 -15 0z"/>
<path d="M6145 10480 c-3 -5 -13 -6 -22 -3 -11 4 -14 3 -9 -5 10 -17 46 -15
46 3 0 17 -6 19 -15 5z"/>
<path d="M6181 10478 c-1 -9 4 -20 9 -23 8 -5 7 -11 -1 -21 -9 -11 -9 -14 1
-14 7 0 10 -6 7 -14 -6 -15 39 -20 49 -5 3 5 -4 9 -15 9 -26 0 -31 10 -20 38
8 22 39 31 39 12 0 -5 5 -10 11 -10 8 0 7 5 -2 16 -8 10 -22 14 -40 10 -17 -3
-30 0 -33 7 -2 7 -5 5 -5 -5z"/>
<path d="M7130 10475 c0 -8 4 -15 10 -15 5 0 7 7 4 15 -4 8 -8 15 -10 15 -2 0
-4 -7 -4 -15z"/>
<path d="M5680 10442 c0 -5 14 -7 30 -4 17 2 30 6 30 8 0 2 -13 4 -30 4 -16 0
-30 -4 -30 -8z"/>
<path d="M5640 10430 c-8 -5 -10 -10 -5 -10 6 0 17 5 25 10 8 5 11 10 5 10 -5
0 -17 -5 -25 -10z"/>
<path d="M6225 10430 c4 -6 11 -8 16 -5 14 9 11 15 -7 15 -8 0 -12 -5 -9 -10z"/>
<path d="M7135 10399 c2 -45 15 -66 15 -26 0 15 5 27 10 27 16 0 12 14 -9 27
-17 11 -18 8 -16 -28z"/>
<path d="M6110 10418 c0 -8 10 -13 23 -13 31 2 33 19 2 23 -16 2 -25 -2 -25
-10z"/>
<path d="M4565 10389 c-7 -22 9 -48 22 -34 5 4 2 10 -5 12 -9 4 -10 8 -2 18 7
8 7 15 1 19 -5 4 -13 -3 -16 -15z"/>
<path d="M3495 10380 c3 -5 8 -10 11 -10 2 0 4 5 4 10 0 6 -5 10 -11 10 -5 0
-7 -4 -4 -10z"/>
<path d="M3440 10367 c14 -6 28 -16 32 -22 5 -6 8 -3 8 6 0 9 -10 19 -22 23
-36 9 -45 6 -18 -7z"/>
<path d="M7171 10362 c-7 -13 -10 -28 -7 -35 2 -7 5 -5 5 5 1 9 6 18 13 20 6
2 9 11 6 18 -3 11 -8 9 -17 -8z"/>
<path d="M5270 10339 c0 -11 5 -17 10 -14 6 3 10 13 10 21 0 8 -4 14 -10 14
-5 0 -10 -9 -10 -21z"/>
<path d="M3350 10335 c23 -12 24 -14 6 -21 -11 -4 -28 -2 -40 6 -18 12 -19 11
-9 -2 10 -11 10 -17 1 -26 -9 -9 -8 -12 5 -12 9 0 17 5 17 10 0 6 6 10 13 10
8 0 22 8 31 19 15 17 15 19 1 25 -9 3 -24 6 -33 6 -12 -1 -10 -5 8 -15z"/>
<path d="M6285 10330 c10 -11 20 -18 23 -15 7 6 -18 35 -31 35 -5 0 -2 -9 8
-20z"/>
<path d="M7121 10328 c0 -7 4 -21 8 -31 6 -17 8 -17 20 -3 12 14 11 16 -5 17
-11 0 -14 3 -6 6 6 2 10 9 6 14 -8 13 -24 11 -23 -3z"/>
<path d="M6220 10320 c0 -5 5 -10 10 -10 6 0 10 5 10 10 0 6 -4 10 -10 10 -5
0 -10 -4 -10 -10z"/>
<path d="M5165 10300 c3 -5 8 -10 11 -10 2 0 4 5 4 10 0 6 -5 10 -11 10 -5 0
-7 -4 -4 -10z"/>
<path d="M6250 10299 c0 -6 6 -9 14 -6 8 3 17 1 19 -6 2 -7 8 -8 13 -4 5 4 2
12 -6 17 -20 13 -40 12 -40 -1z"/>
<path d="M7079 10275 c-13 -8 -32 -18 -42 -21 -15 -5 -16 -9 -5 -15 11 -8 11
-11 -1 -18 -9 -6 -11 -16 -6 -27 6 -17 8 -17 16 6 14 34 16 35 38 16 11 -10
17 -25 14 -33 -4 -10 -2 -14 6 -12 14 5 14 8 5 46 -4 14 -2 34 4 44 16 24 1
31 -29 14z"/>
<path d="M2729 10265 c-1 -11 -1 -27 0 -37 1 -9 -3 -19 -9 -23 -5 -3 -10 -12
-10 -18 1 -7 9 -2 19 9 9 12 26 23 36 25 17 4 16 7 -8 34 -24 27 -27 28 -28
10z"/>
<path d="M3460 10270 c0 -5 5 -10 10 -10 6 0 10 5 10 10 0 6 -4 10 -10 10 -5
0 -10 -4 -10 -10z"/>
<path d="M5650 10269 c-114 -29 -260 -103 -253 -126 3 -9 13 -7 34 7 70 47 86
57 119 69 19 7 44 17 55 23 12 5 55 15 95 23 65 11 69 13 30 13 -25 0 -61 -4
-80 -9z"/>
<path d="M7030 10269 c0 -5 5 -7 10 -4 6 3 10 8 10 11 0 2 -4 4 -10 4 -5 0
-10 -5 -10 -11z"/>
<path d="M4034 10258 c-3 -4 4 -8 15 -8 12 0 21 4 21 8 0 5 -7 9 -15 9 -9 0
-18 -4 -21 -9z"/>
<path d="M4112 10261 c-8 -5 -3 -8 15 -8 55 0 181 -35 205 -58 13 -12 36 -25
51 -29 17 -4 25 -11 21 -18 -4 -7 -3 -8 5 -4 6 4 9 11 6 16 -11 17 -121 78
-150 83 -35 6 -91 17 -120 22 -11 2 -26 1 -33 -4z"/>
<path d="M5988 10250 c101 -30 120 -41 114 -64 -5 -18 -3 -19 10 -8 13 11 16
7 23 -30 8 -43 8 -43 15 -13 6 25 16 18 11 -9 -1 -4 4 -14 10 -22 6 -8 9 -14
5 -14 -8 0 -92 37 -128 56 -89 48 -302 73 -400 48 -58 -15 -118 -43 -118 -55
0 -5 -8 -9 -19 -9 -10 0 -30 -11 -45 -25 -15 -14 -31 -25 -35 -25 -5 0 -14 -6
-20 -14 -10 -12 -5 -13 31 -9 24 3 54 13 68 21 43 28 89 52 100 52 5 0 10 -8
10 -18 0 -29 56 -110 89 -126 74 -39 168 -5 211 77 l24 45 47 -32 c26 -17 48
-34 48 -37 1 -4 -10 -10 -24 -13 -14 -4 -23 -11 -20 -17 4 -5 15 -7 25 -4 10
3 21 1 25 -5 3 -5 -1 -10 -9 -10 -9 0 -16 -5 -16 -11 0 -6 -7 -9 -15 -6 -8 4
-17 2 -20 -2 -2 -5 4 -11 15 -14 11 -3 20 -2 20 3 0 4 10 10 23 13 20 6 21 5
4 -7 -20 -16 -13 -46 12 -46 9 0 22 -4 30 -9 12 -8 12 -11 -1 -24 -16 -16 -45
-7 -34 11 3 6 -3 13 -14 17 -11 3 -20 11 -20 16 0 6 -9 7 -21 4 -13 -4 -19 -3
-16 2 4 5 -1 10 -9 10 -8 0 -13 -6 -10 -14 7 -18 -9 -17 -24 2 -13 16 -30 12
-30 -7 0 -6 3 -9 6 -5 4 3 13 -1 21 -9 9 -9 20 -11 27 -6 20 15 41 8 39 -13
-1 -11 0 -14 3 -7 7 14 34 17 34 3 0 -5 7 -16 15 -24 13 -13 11 -16 -12 -22
-21 -5 -23 -9 -13 -18 10 -9 14 -9 17 1 3 6 11 12 19 12 8 0 14 7 14 15 0 15
17 20 54 17 13 -2 16 2 12 14 -4 11 -2 15 8 11 8 -3 17 -1 20 6 3 9 8 8 16 -3
10 -13 11 -12 6 3 -5 15 -1 18 21 15 15 -2 28 2 30 10 3 6 -2 12 -11 12 -27 0
-6 28 25 35 24 6 28 9 18 21 -8 10 -8 14 -1 14 7 0 16 -15 21 -32 5 -18 10
-27 10 -19 1 9 9 11 26 7 31 -8 33 9 3 18 -20 5 -21 8 -8 17 12 8 10 9 -7 4
-24 -7 -30 4 -12 22 8 8 7 13 -1 18 -7 4 -16 2 -20 -5 -5 -9 -9 -9 -14 -1 -9
15 1 30 28 41 17 7 17 9 4 9 -10 1 -18 6 -18 12 0 6 9 8 23 4 17 -5 19 -4 7 4
-19 13 -60 14 -60 2 0 -6 5 -13 10 -16 12 -7 4 -25 -11 -25 -6 0 -7 5 -4 10 4
6 1 18 -6 26 -9 11 -8 18 6 34 10 11 15 23 11 27 -7 7 -20 -8 -29 -32 -3 -5
-8 -7 -12 -3 -4 4 -2 14 5 23 10 13 9 15 -9 15 -12 0 -24 7 -27 15 -4 8 -10
15 -15 15 -5 0 -32 11 -61 24 -51 24 -141 47 -176 45 -9 0 11 -9 46 -19z
m-268 -109 c0 -26 -17 -36 -36 -20 -14 12 -14 14 2 26 25 18 34 16 34 -6z
m113 -10 c6 -25 1 -30 -22 -24 -13 3 -17 11 -14 24 7 25 29 25 36 0z m294
-206 c0 -17 -13 -20 -21 -6 -4 5 0 12 6 14 7 3 13 6 14 6 0 1 1 -6 1 -14z m47
7 c2 -4 -5 -9 -17 -9 -17 -2 -19 0 -7 7 18 12 18 12 24 2z"/>
<path d="M6226 10237 c-7 -32 7 -67 18 -48 4 6 2 11 -3 11 -6 0 -11 7 -11 16
0 9 5 12 12 8 8 -5 9 -2 5 9 -4 11 -1 17 8 17 8 0 15 4 15 8 0 4 -9 8 -19 8
-13 0 -21 -9 -25 -29z"/>
<path d="M3865 10245 l-40 -14 50 6 c28 3 59 9 70 14 36 14 -36 9 -80 -6z"/>
<path d="M6280 10240 c0 -5 5 -10 11 -10 5 0 7 5 4 10 -3 6 -8 10 -11 10 -2 0
-4 -4 -4 -10z"/>
<path d="M7116 10237 c3 -10 9 -15 12 -12 3 3 0 11 -7 18 -10 9 -11 8 -5 -6z"/>
<path d="M3740 10218 c-75 -31 -108 -50 -134 -77 -17 -18 -35 -27 -45 -24 -13
4 -13 3 -2 -5 7 -5 10 -15 7 -21 -18 -28 19 -7 59 34 45 47 113 84 153 85 12
0 22 5 22 10 0 13 -27 12 -60 -2z"/>
<path d="M6670 10226 c0 -2 7 -6 15 -10 8 -3 15 -1 15 4 0 6 -7 10 -15 10 -8
0 -15 -2 -15 -4z"/>
<path d="M6314 10198 c-4 -6 -3 -8 4 -4 5 3 12 1 14 -5 2 -7 11 -10 18 -7 11
3 10 8 -7 16 -16 9 -24 9 -29 0z"/>
<path d="M6997 10190 c3 -11 1 -20 -5 -20 -6 0 -8 -9 -5 -20 3 -11 10 -20 15
-20 5 0 6 5 2 11 -3 6 -1 15 6 19 7 4 9 16 5 29 -8 27 -25 28 -18 1z"/>
<path d="M3950 10179 c-61 -8 -191 -50 -260 -84 -25 -12 -62 -28 -82 -34 -21
-7 -38 -19 -38 -27 0 -8 -4 -14 -9 -14 -5 0 -8 -10 -8 -23 0 -17 6 -23 26 -25
14 -1 34 -12 44 -23 10 -12 21 -18 25 -14 4 4 1 10 -5 12 -24 9 -13 23 18 23
26 0 29 3 24 20 -6 18 -3 20 18 15 14 -4 28 -2 32 5 4 6 15 8 26 5 14 -5 19
-2 19 13 0 13 6 19 18 18 10 0 16 6 16 17 -1 10 5 17 16 17 10 0 20 6 23 13 3
7 8 5 13 -8 16 -42 60 -89 99 -106 56 -26 98 -24 146 8 43 28 62 57 74 111 8
38 9 38 58 12 20 -11 40 -19 44 -18 16 4 58 -15 76 -33 18 -19 57 -26 57 -11
0 15 -102 92 -129 98 -14 3 -53 14 -86 25 -62 19 -147 22 -255 8z m37 -54 c-4
-8 -14 -15 -23 -15 -16 0 -16 2 1 20 20 22 31 20 22 -5z m100 5 c-3 -13 -1
-19 7 -18 6 2 13 -1 14 -7 2 -5 -6 -11 -18 -13 -16 -3 -20 2 -20 27 0 17 5 31
11 31 6 0 9 -9 6 -20z"/>
<path d="M6284 10175 c11 -8 22 -12 25 -9 6 6 -19 24 -34 24 -5 -1 -1 -7 9
-15z"/>
<path d="M6400 10180 c0 -5 5 -10 10 -10 6 0 10 5 10 10 0 6 -4 10 -10 10 -5
0 -10 -4 -10 -10z"/>
<path d="M6445 10180 c3 -5 8 -10 11 -10 2 0 4 5 4 10 0 6 -5 10 -11 10 -5 0
-7 -4 -4 -10z"/>
<path d="M6351 10154 c0 -11 3 -14 6 -6 3 7 2 16 -1 19 -3 4 -6 -2 -5 -13z"/>
<path d="M6580 10166 c0 -2 7 -7 16 -10 8 -3 12 -2 9 4 -6 10 -25 14 -25 6z"/>
<path d="M6476 10143 c-6 -14 -5 -15 5 -6 7 7 10 15 7 18 -3 3 -9 -2 -12 -12z"/>
<path d="M6530 10145 c-7 -9 -11 -17 -9 -20 3 -2 10 5 17 15 14 24 10 26 -8 5z"/>
<path d="M7110 10143 c0 -13 5 -23 10 -23 13 0 13 11 0 30 -8 12 -10 11 -10
-7z"/>
<path d="M6270 10140 c0 -5 5 -10 10 -10 6 0 10 5 10 10 0 6 -4 10 -10 10 -5
0 -10 -4 -10 -10z"/>
<path d="M6710 10146 c0 -2 7 -7 16 -10 8 -3 12 -2 9 4 -6 10 -25 14 -25 6z"/>
<path d="M5360 10130 c-8 -5 -11 -13 -6 -17 5 -4 11 -2 13 5 3 6 9 10 14 6 5
-3 9 0 9 5 0 13 -10 14 -30 1z"/>
<path d="M7175 10129 c-5 -7 -4 -14 2 -16 6 -2 9 -17 7 -34 -2 -18 2 -37 11
-46 8 -8 13 -18 10 -23 -3 -5 -1 -11 5 -15 16 -10 12 31 -5 45 -9 7 -12 22 -9
40 7 34 -9 70 -21 49z"/>
<path d="M6625 10100 c-10 -11 -13 -20 -7 -20 6 0 16 9 22 20 6 11 9 20 7 20
-2 0 -12 -9 -22 -20z"/>
<path d="M7135 10100 c-3 -5 1 -20 9 -32 9 -12 16 -17 16 -11 0 7 -4 14 -10
18 -5 3 -7 12 -3 20 6 17 -3 20 -12 5z"/>
<path d="M6348 10093 c7 -3 16 -2 19 1 4 3 -2 6 -13 5 -11 0 -14 -3 -6 -6z"/>
<path d="M6580 10079 c0 -5 5 -7 10 -4 6 3 10 8 10 11 0 2 -4 4 -10 4 -5 0
-10 -5 -10 -11z"/>
<path d="M6340 10050 c0 -11 4 -20 9 -20 5 0 7 9 4 20 -3 11 -7 20 -9 20 -2 0
-4 -9 -4 -20z"/>
<path d="M4351 10029 c0 -9 -12 -20 -26 -23 -14 -4 -25 -11 -25 -17 0 -6 9 -7
23 -3 12 4 42 9 67 10 25 1 48 3 53 3 4 1 7 5 7 11 0 5 -10 8 -22 6 -13 -2
-31 1 -42 6 -13 7 -16 7 -12 -1 4 -6 3 -11 -3 -11 -5 0 -12 8 -14 18 -4 14 -5
15 -6 1z"/>
<path d="M5377 10018 c-3 -8 0 -15 6 -16 37 -4 67 -11 76 -16 5 -4 9 3 8 14
-1 11 -6 20 -13 20 -6 0 -25 3 -41 6 -21 4 -32 2 -36 -8z"/>
<path d="M6642 10021 c-11 -7 -11 -9 1 -14 9 -3 18 1 21 9 6 16 -2 18 -22 5z"/>
<path d="M7145 10020 c-3 -5 -1 -10 4 -10 6 0 11 5 11 10 0 6 -2 10 -4 10 -3
0 -8 -4 -11 -10z"/>
<path d="M6710 9993 c0 -16 4 -21 15 -17 8 4 12 11 9 16 -4 6 0 14 7 19 10 6
7 8 -9 6 -16 -1 -22 -8 -22 -24z"/>
<path d="M3756 9958 c3 -4 9 -8 15 -8 5 0 9 4 9 8 0 5 -7 9 -15 9 -8 0 -12 -4
-9 -9z"/>
<path d="M3800 9950 c0 -6 7 -10 15 -10 8 0 15 2 15 4 0 2 -7 6 -15 10 -8 3
-15 1 -15 -4z"/>
<path d="M6260 9950 c0 -5 5 -10 10 -10 6 0 10 5 10 10 0 6 -4 10 -10 10 -5 0
-10 -4 -10 -10z"/>
<path d="M3850 9929 c0 -11 5 -17 10 -14 6 3 10 13 10 21 0 8 -4 14 -10 14 -5
0 -10 -9 -10 -21z"/>
<path d="M6655 9940 c-3 -5 -4 -10 -1 -10 2 0 12 -3 20 -6 12 -5 15 -2 10 10
-7 18 -20 21 -29 6z"/>
<path d="M7210 9931 c0 -6 4 -13 10 -16 6 -3 7 1 4 9 -7 18 -14 21 -14 7z"/>
<path d="M3938 9913 c7 -3 16 -2 19 1 4 3 -2 6 -13 5 -11 0 -14 -3 -6 -6z"/>
<path d="M6660 9899 c0 -5 5 -7 10 -4 6 3 10 8 10 11 0 2 -4 4 -10 4 -5 0 -10
-5 -10 -11z"/>
<path d="M6690 9871 c0 -22 17 -37 28 -26 4 4 2 10 -5 12 -7 2 -9 11 -6 19 3
8 0 14 -6 14 -6 0 -11 -9 -11 -19z"/>
<path d="M6120 9849 c0 -5 5 -7 10 -4 6 3 10 8 10 11 0 2 -4 4 -10 4 -5 0 -10
-5 -10 -11z"/>
<path d="M6945 9840 c-3 -5 -1 -10 4 -10 6 0 11 5 11 10 0 6 -2 10 -4 10 -3 0
-8 -4 -11 -10z"/>
<path d="M6720 9820 c-6 -11 -16 -17 -22 -14 -7 4 -8 3 -4 -4 11 -18 22 -14
34 13 14 30 7 34 -8 5z"/>
<path d="M5955 9810 c-3 -6 1 -7 9 -4 18 7 21 14 7 14 -6 0 -13 -4 -16 -10z"/>
<path d="M5985 9800 c-3 -5 -1 -10 4 -10 6 0 11 5 11 10 0 6 -2 10 -4 10 -3 0
-8 -4 -11 -10z"/>
<path d="M5190 9770 c0 -5 5 -10 11 -10 5 0 7 5 4 10 -3 6 -8 10 -11 10 -2 0
-4 -4 -4 -10z"/>
<path d="M6760 9769 c0 -5 5 -7 10 -4 6 3 10 8 10 11 0 2 -4 4 -10 4 -5 0 -10
-5 -10 -11z"/>
<path d="M6707 9756 c-4 -10 -5 -21 -2 -24 9 -9 17 6 13 25 -3 17 -4 17 -11
-1z"/>
<path d="M7137 9749 c7 -7 15 -10 18 -7 3 3 -2 9 -12 12 -14 6 -15 5 -6 -5z"/>
<path d="M6747 9733 c-11 -10 -8 -43 3 -43 5 0 7 7 4 15 -4 8 -1 15 5 15 6 0
11 5 11 10 0 11 -13 13 -23 3z"/>
<path d="M6701 9654 c0 -11 3 -14 6 -6 3 7 2 16 -1 19 -3 4 -6 -2 -5 -13z"/>
<path d="M6672 9604 c-7 -8 -8 -14 -3 -14 10 0 25 19 20 25 -2 1 -10 -3 -17
-11z"/>
<path d="M7090 9595 c0 -8 4 -15 10 -15 5 0 7 7 4 15 -4 8 -8 15 -10 15 -2 0
-4 -7 -4 -15z"/>
<path d="M7060 9583 c0 -16 -4 -21 -15 -17 -11 5 -13 2 -9 -9 5 -13 9 -14 25
-4 22 13 22 16 9 37 -8 12 -10 11 -10 -7z"/>
<path d="M6995 9550 c-3 -5 -2 -10 4 -10 5 0 13 5 16 10 3 6 2 10 -4 10 -5 0
-13 -4 -16 -10z"/>
<path d="M7066 9528 c-13 -41 -15 -68 -6 -68 5 0 10 3 11 8 0 4 2 22 3 40 4
32 -1 43 -8 20z"/>
<path d="M7095 9519 c-4 -6 -5 -12 -2 -15 2 -3 7 2 10 11 7 17 1 20 -8 4z"/>
<path d="M6646 9508 c3 -5 10 -6 15 -3 13 9 11 12 -6 12 -8 0 -12 -4 -9 -9z"/>
<path d="M7026 9506 c10 -8 21 -12 24 -10 5 6 -21 24 -34 24 -6 0 -1 -6 10
-14z"/>
<path d="M6700 9490 c0 -5 7 -10 15 -10 8 0 15 5 15 10 0 6 -7 10 -15 10 -8 0
-15 -4 -15 -10z"/>
<path d="M6643 9464 c-12 -13 -18 -24 -13 -24 11 0 40 29 40 41 0 12 -1 11
-27 -17z"/>
<path d="M6997 9484 c-4 -4 -4 -18 -1 -30 5 -17 2 -24 -9 -24 -11 0 -13 6 -9
22 3 14 2 19 -6 14 -7 -4 -12 -15 -12 -25 0 -10 -7 -24 -15 -31 -17 -15 -19
-7 -5 21 8 13 7 19 0 19 -6 0 -16 -11 -22 -25 -6 -14 -16 -25 -22 -25 -22 -1
-58 -49 -51 -70 5 -15 3 -19 -9 -14 -12 5 -16 0 -14 -17 3 -24 31 -40 55 -31
7 2 15 19 19 38 5 29 8 31 21 19 28 -29 77 31 51 62 -7 9 -7 13 0 13 6 0 16
-8 21 -17 9 -16 10 -16 11 4 0 12 5 25 11 28 6 4 8 13 5 21 -3 8 0 11 10 7 10
-3 14 -13 11 -25 -4 -15 -3 -17 8 -8 14 12 10 40 -6 40 -5 0 -9 9 -9 20 0 19
-20 27 -33 14z m-40 -138 c-7 -17 -37 -22 -37 -6 0 6 7 10 16 10 11 0 14 5 9
18 -5 13 -3 14 6 5 6 -6 9 -19 6 -27z m-69 -21 c-3 -3 -9 2 -12 12 -6 14 -5
15 5 6 7 -7 10 -15 7 -18z"/>
<path d="M7196 9455 c-9 -26 -7 -32 5 -12 6 10 9 21 6 23 -2 3 -7 -2 -11 -11z"/>
<path d="M6680 9436 c0 -14 4 -26 8 -26 11 0 12 39 1 45 -5 4 -9 -5 -9 -19z"/>
<path d="M6700 9390 c0 -5 5 -10 11 -10 5 0 7 5 4 10 -3 6 -8 10 -11 10 -2 0
-4 -4 -4 -10z"/>
<path d="M7135 9390 c-3 -5 -1 -10 4 -10 6 0 11 5 11 10 0 6 -2 10 -4 10 -3 0
-8 -4 -11 -10z"/>
<path d="M3046 9372 c-3 -5 1 -9 9 -9 8 0 12 4 9 9 -3 4 -7 8 -9 8 -2 0 -6 -4
-9 -8z"/>
<path d="M6660 9360 c0 -5 5 -10 10 -10 6 0 10 5 10 10 0 6 -4 10 -10 10 -5 0
-10 -4 -10 -10z"/>
<path d="M7111 9367 c2 -1 13 -9 24 -17 19 -14 19 -14 6 3 -7 9 -18 17 -24 17
-6 0 -8 -1 -6 -3z"/>
<path d="M6990 9351 c0 -5 5 -13 10 -16 6 -3 10 -2 10 4 0 5 -4 13 -10 16 -5
3 -10 2 -10 -4z"/>
<path d="M6610 9340 c0 -5 5 -10 11 -10 5 0 7 5 4 10 -3 6 -8 10 -11 10 -2 0
-4 -4 -4 -10z"/>
<path d="M6631 9294 c0 -11 3 -14 6 -6 3 7 2 16 -1 19 -3 4 -6 -2 -5 -13z"/>
<path d="M7126 9295 c-3 -8 -1 -15 4 -15 6 0 10 7 10 15 0 8 -2 15 -4 15 -2 0
-6 -7 -10 -15z"/>
<path d="M6910 9289 c0 -5 5 -7 10 -4 6 3 10 8 10 11 0 2 -4 4 -10 4 -5 0 -10
-5 -10 -11z"/>
<path d="M6636 9271 c-18 -7 -18 -8 -3 -14 9 -3 17 -16 17 -27 0 -11 4 -20 8
-20 4 0 8 16 8 35 0 37 -1 38 -30 26z"/>
<path d="M7085 9250 c-3 -6 1 -7 9 -4 18 7 21 14 7 14 -6 0 -13 -4 -16 -10z"/>
<path d="M6597 9228 c2 -5 13 -8 24 -8 10 0 19 3 19 8 0 4 -11 7 -24 7 -13 0
-22 -3 -19 -7z"/>
<path d="M6620 9193 c-13 -15 -12 -16 4 -10 10 4 22 7 27 7 6 0 7 5 4 10 -9
14 -18 12 -35 -7z"/>
<path d="M7000 9190 c0 -5 7 -7 15 -4 8 4 15 8 15 10 0 2 -7 4 -15 4 -8 0 -15
-4 -15 -10z"/>
<path d="M6555 9103 c-3 -10 -3 -14 1 -10 4 4 13 2 21 -4 17 -15 17 -1 -1 16
-12 12 -15 12 -21 -2z"/>
<path d="M5295 9100 c-3 -5 -1 -10 4 -10 6 0 11 5 11 10 0 6 -2 10 -4 10 -3 0
-8 -4 -11 -10z"/>
<path d="M5259 9068 c-12 -5 -35 -19 -51 -33 -16 -14 -39 -25 -51 -25 -18 0
-19 -2 -7 -10 10 -7 11 -10 3 -11 -7 -1 -17 -2 -22 -3 -19 -2 -34 -25 -27 -42
6 -15 8 -15 25 5 10 11 23 21 30 21 6 0 11 4 11 8 0 8 86 32 111 32 5 0 9 -8
9 -17 1 -16 2 -16 15 1 15 19 15 19 15 -2 0 -14 -8 -24 -24 -28 -17 -4 -22
-11 -19 -25 5 -19 23 -27 23 -11 0 5 13 8 30 7 16 -1 31 4 34 12 3 7 12 13 20
13 10 0 13 6 10 15 -4 8 -1 15 5 15 6 0 11 19 11 46 0 28 -4 43 -10 39 -6 -4
-8 -11 -5 -16 8 -12 2 -11 -32 3 -34 14 -74 17 -104 6z m111 -90 c0 -6 -3 -8
-7 -5 -3 4 -15 -1 -26 -10 -19 -17 -20 -17 -8 5 12 23 41 31 41 10z m-248 -20
c-7 -7 -12 -8 -12 -2 0 6 3 14 7 17 3 4 9 5 12 2 2 -3 -1 -11 -7 -17z"/>
<path d="M6605 9070 c3 -5 8 -10 11 -10 2 0 4 5 4 10 0 6 -5 10 -11 10 -5 0
-7 -4 -4 -10z"/>
<path d="M4592 9055 c-37 -16 -51 -42 -31 -57 11 -8 10 -9 -3 -4 -21 6 -22 2
-7 -25 10 -19 12 -20 29 -4 11 10 20 12 24 7 3 -6 0 -12 -6 -15 -8 -2 -1 -16
21 -36 19 -17 35 -30 38 -28 8 9 -10 37 -29 43 -12 3 -17 11 -14 21 3 8 6 18
6 21 0 4 26 7 58 7 31 0 63 4 70 9 15 10 16 -3 1 -24 -8 -11 -12 -12 -16 -2
-8 19 -19 14 -20 -10 0 -13 1 -17 4 -10 3 6 9 9 14 6 6 -3 16 0 24 6 8 6 19 9
25 5 5 -3 10 0 10 8 0 19 -74 77 -113 88 -41 11 -45 11 -85 -6z"/>
<path d="M5425 9060 c-3 -5 -1 -10 4 -10 6 0 11 5 11 10 0 6 -2 10 -4 10 -3 0
-8 -4 -11 -10z"/>
<path d="M6531 9043 c0 -4 4 -17 9 -28 8 -19 9 -19 9 2 1 12 -3 25 -9 28 -5 3
-10 3 -9 -2z"/>
<path d="M6567 9023 c-4 -3 -7 -11 -7 -17 0 -6 5 -5 12 2 6 6 9 14 7 17 -3 3
-9 2 -12 -2z"/>
<path d="M6626 9011 c-4 -5 -2 -12 3 -15 5 -4 12 -2 15 3 4 5 2 12 -3 15 -5 4
-12 2 -15 -3z"/>
<path d="M5190 8966 c0 -9 -6 -13 -14 -10 -7 3 -16 -2 -19 -10 -7 -19 14 -21
31 -4 9 9 13 7 18 -5 3 -9 10 -17 15 -17 11 0 -1 31 -18 48 -11 11 -13 11 -13
-2z"/>
<path d="M6520 8974 c0 -7 27 -34 34 -34 4 0 1 9 -6 20 -12 19 -28 27 -28 14z"/>
<path d="M4520 8960 c0 -5 5 -10 10 -10 6 0 10 5 10 10 0 6 -4 10 -10 10 -5 0
-10 -4 -10 -10z"/>
<path d="M4808 8944 c2 -13 8 -21 13 -18 5 3 9 -2 9 -11 0 -9 5 -13 10 -10 6
4 17 1 25 -5 12 -10 15 -10 15 1 -1 8 -18 26 -39 40 l-38 26 5 -23z"/>
<path d="M5067 8941 c6 -22 -12 -30 -20 -8 -4 9 -6 9 -6 0 -1 -7 -8 -10 -18
-6 -12 5 -15 2 -10 -10 7 -18 -8 -24 -18 -7 -9 15 -45 12 -51 -5 -4 -10 -14
-13 -29 -9 -15 4 -24 0 -29 -11 -3 -10 -2 -14 5 -10 5 4 21 -1 34 -9 14 -9 25
-14 25 -10 0 4 7 1 15 -6 12 -10 15 -10 15 3 0 22 19 32 33 17 9 -9 7 -15 -7
-26 -11 -8 -15 -14 -9 -14 7 0 19 8 29 18 10 9 19 16 21 15 12 -10 21 1 17 22
-3 20 0 25 16 25 25 0 26 12 1 34 -19 17 -19 17 -14 -3z m-82 -41 c3 -5 2 -10
-4 -10 -5 0 -13 5 -16 10 -3 6 -2 10 4 10 5 0 13 -4 16 -10z"/>
<path d="M4655 8940 c4 -6 11 -8 16 -5 14 9 11 15 -7 15 -8 0 -12 -5 -9 -10z"/>
<path d="M4550 8930 c0 -5 5 -10 10 -10 6 0 10 5 10 10 0 6 -4 10 -10 10 -5 0
-10 -4 -10 -10z"/>
<path d="M4580 8921 c0 -5 5 -13 10 -16 6 -3 10 -2 10 4 0 5 -4 13 -10 16 -5
3 -10 2 -10 -4z"/>
<path d="M3890 8850 c0 -6 -5 -8 -11 -4 -7 4 -10 1 -7 -7 6 -18 43 -18 43 0 0
8 -6 16 -12 19 -7 2 -13 -1 -13 -8z"/>
<path d="M6465 8850 c-3 -5 -1 -10 4 -10 6 0 11 5 11 10 0 6 -2 10 -4 10 -3 0
-8 -4 -11 -10z"/>
<path d="M6410 8809 c0 -5 5 -7 10 -4 6 3 10 8 10 11 0 2 -4 4 -10 4 -5 0 -10
-5 -10 -11z"/>
<path d="M6505 8800 c3 -5 8 -10 11 -10 2 0 4 5 4 10 0 6 -5 10 -11 10 -5 0
-7 -4 -4 -10z"/>
<path d="M6627 8785 c3 -8 9 -12 14 -9 12 7 11 11 -5 17 -10 4 -13 1 -9 -8z"/>
<path d="M6430 8761 c0 -5 5 -13 10 -16 6 -3 10 -2 10 4 0 5 -4 13 -10 16 -5
3 -10 2 -10 -4z"/>
<path d="M6462 8720 c0 -14 2 -19 5 -12 2 6 2 18 0 25 -3 6 -5 1 -5 -13z"/>
<path d="M6430 8720 c0 -5 5 -10 11 -10 5 0 7 5 4 10 -3 6 -8 10 -11 10 -2 0
-4 -4 -4 -10z"/>
<path d="M6325 8700 c3 -5 8 -10 11 -10 2 0 4 5 4 10 0 6 -5 10 -11 10 -5 0
-7 -4 -4 -10z"/>
<path d="M6663 8703 c-15 -5 -17 -23 -4 -23 5 0 11 7 15 15 3 8 4 15 3 14 -1
0 -8 -3 -14 -6z"/>
<path d="M6366 8677 c3 -10 9 -15 12 -12 3 3 0 11 -7 18 -10 9 -11 8 -5 -6z"/>
<path d="M6430 8683 c5 -2 10 -9 10 -14 0 -12 -27 -11 -33 1 -3 6 -4 5 -3 -2
4 -18 41 -16 41 1 0 8 -6 15 -13 17 -7 1 -8 0 -2 -3z"/>
<path d="M6552 8668 c5 -15 28 -23 28 -10 0 5 -7 13 -16 16 -10 4 -14 1 -12
-6z"/>
<path d="M6497 8664 c-3 -3 4 -15 15 -26 11 -11 17 -23 13 -26 -3 -4 -9 -1
-13 5 -5 8 -15 7 -37 -3 l-30 -14 33 5 c17 2 32 0 32 -5 0 -19 19 -10 32 14
11 22 15 23 31 11 15 -11 17 -17 8 -32 -10 -17 -10 -17 -11 1 0 19 0 19 -13 1
-11 -14 -21 -17 -46 -12 -21 5 -30 3 -26 -4 5 -7 -5 -8 -28 -4 -34 7 -58 -7
-37 -20 5 -3 10 -1 10 4 0 6 7 11 15 11 8 0 15 -5 15 -12 0 -6 3 -9 6 -5 11
11 45 -29 38 -46 -3 -10 -1 -17 5 -17 6 0 11 -6 11 -13 0 -7 5 -18 12 -25 16
-16 41 17 26 35 -13 16 -3 17 24 2 27 -14 36 -2 12 16 -25 19 -54 19 -54 0 0
-8 -5 -15 -11 -15 -6 0 -8 7 -5 16 3 9 6 19 6 24 0 4 25 7 56 5 42 -3 54 -1
45 8 -14 14 -15 30 -1 22 5 -3 7 0 4 9 -3 8 2 26 11 39 16 24 15 26 -5 37 -27
15 -35 8 -20 -19 6 -12 7 -21 2 -21 -6 0 -12 8 -14 18 -4 12 -14 17 -34 16
-16 -1 -39 4 -50 12 -12 7 -24 11 -27 8z m123 -84 c0 -5 -5 -10 -11 -10 -5 0
-7 -5 -3 -12 5 -7 2 -9 -9 -5 -9 3 -17 2 -19 -3 -2 -5 -12 -2 -22 6 -19 13
-19 14 6 14 15 0 30 5 33 10 3 6 10 10 16 10 5 0 9 -4 9 -10z m-90 -26 c0 -2
-7 -4 -15 -4 -8 0 -15 4 -15 10 0 5 7 7 15 4 8 -4 15 -8 15 -10z"/>
<path d="M6460 8635 c0 -9 6 -12 15 -9 8 4 15 7 15 9 0 2 -7 5 -15 9 -9 3 -15
0 -15 -9z"/>
<path d="M6430 8630 c0 -5 5 -10 11 -10 5 0 7 5 4 10 -3 6 -8 10 -11 10 -2 0
-4 -4 -4 -10z"/>
<path d="M6356 8585 c4 -8 8 -15 10 -15 2 0 4 7 4 15 0 8 -4 15 -10 15 -5 0
-7 -7 -4 -15z"/>
<path d="M6267 8573 c-10 -9 -9 -23 1 -23 5 0 9 7 9 15 0 17 -1 18 -10 8z"/>
<path d="M6386 8565 c4 -8 8 -15 10 -15 2 0 4 7 4 15 0 8 -4 15 -10 15 -5 0
-7 -7 -4 -15z"/>
<path d="M6380 8531 c0 -5 7 -12 16 -15 24 -9 27 -7 10 9 -17 17 -26 19 -26 6z"/>
<path d="M6427 8514 c-5 -26 7 -33 17 -9 3 8 12 15 20 15 10 0 13 -6 10 -15
-4 -8 -2 -15 4 -15 11 0 24 39 14 41 -52 9 -60 7 -65 -17z"/>
<path d="M6350 8510 c0 -5 5 -10 11 -10 5 0 7 5 4 10 -3 6 -8 10 -11 10 -2 0
-4 -4 -4 -10z"/>
<path d="M6420 8470 c-8 -5 -12 -11 -9 -14 2 -3 11 -1 19 4 8 5 12 11 9 14 -2
3 -11 1 -19 -4z"/>
<path d="M6493 8450 c4 -18 7 -39 7 -46 0 -8 5 -14 12 -14 6 0 9 3 5 6 -3 4 1
14 10 23 15 15 15 16 0 19 -9 2 -17 10 -17 17 0 8 -5 17 -12 21 -8 5 -9 -2 -5
-26z"/>
<path d="M5126 8456 c5 -13 -24 -31 -34 -21 -3 3 0 5 6 5 7 0 12 4 12 8 0 5
-10 8 -22 6 -13 -1 -26 -3 -30 -3 -13 -2 -9 -36 5 -50 10 -11 8 -13 -9 -9 -12
3 -28 1 -37 -3 -16 -9 -47 -2 -47 10 0 4 12 8 27 9 33 3 35 5 27 26 -8 20 -24
21 -24 1 0 -9 -9 -15 -24 -15 -13 0 -29 7 -36 15 -7 8 -20 14 -29 14 -13 -1
-13 -2 2 -6 21 -6 23 -23 1 -23 -8 0 -12 -5 -9 -10 3 -6 -1 -13 -10 -16 -13
-5 -13 -9 -3 -23 11 -14 10 -14 -7 1 -20 17 -54 17 -117 2 -18 -4 -28 -2 -28
5 0 5 7 8 15 5 10 -4 15 0 15 11 0 12 -5 15 -16 11 -9 -3 -22 -6 -29 -6 -7 0
-16 -8 -18 -17 -4 -14 -5 -12 -6 5 -1 24 -29 30 -49 10 -9 -9 -12 -9 -12 1 0
7 -6 9 -12 6 -7 -4 -4 1 6 9 11 9 23 16 28 16 4 0 8 5 8 11 0 8 -5 8 -15 -1
-8 -7 -15 -9 -15 -6 0 4 -9 2 -19 -4 -14 -7 -21 -6 -25 3 -3 6 -3 2 0 -10 3
-13 1 -23 -5 -23 -6 0 -11 5 -11 10 0 6 -7 10 -15 10 -8 0 -15 5 -15 12 0 9
-3 9 -12 0 -17 -17 -28 -15 -29 6 -1 11 -4 9 -9 -8 -4 -14 -8 -20 -9 -15 -1
12 -41 15 -41 4 0 -4 -10 -9 -22 -12 -22 -6 -22 -6 -4 8 19 14 19 15 -7 15
-15 0 -27 -4 -27 -10 0 -5 -4 -10 -10 -10 -5 0 -7 7 -3 16 4 11 1 15 -13 12
-11 -2 -22 -7 -25 -12 -4 -4 -33 1 -64 12 -54 20 -75 21 -75 4 0 -4 25 -18 55
-31 31 -14 57 -33 61 -44 4 -14 8 -16 14 -7 5 8 9 6 15 -7 6 -16 8 -15 17 7 5
15 12 20 16 14 4 -6 15 -10 25 -8 10 1 21 -4 24 -12 6 -17 24 -19 21 -3 -2 6
3 14 10 16 6 3 12 -2 12 -11 0 -8 4 -17 9 -20 5 -3 8 0 7 7 0 6 4 13 9 14 6 0
9 -3 8 -7 -1 -4 6 -10 17 -13 13 -3 17 -1 13 10 -5 12 -2 13 13 5 10 -5 37
-10 59 -10 74 -1 104 -5 99 -13 -5 -9 37 -6 54 5 7 4 12 4 12 -1 0 -4 19 -9
43 -9 121 -4 157 -9 153 -19 -2 -7 0 -18 5 -26 7 -11 9 -11 9 2 0 24 46 33 73
14 29 -20 47 -19 47 4 0 11 4 22 9 26 6 3 8 -4 6 -15 -3 -17 -1 -18 14 -11 12
7 22 6 28 0 8 -8 17 -8 31 0 10 6 22 7 26 4 3 -3 6 -1 6 6 0 7 4 10 9 6 5 -3
12 -1 16 5 8 13 67 -20 61 -35 -2 -6 5 -12 15 -12 22 -2 23 1 7 27 -18 28 1
39 22 12 10 -12 20 -28 23 -35 2 -6 8 -9 12 -5 4 4 2 14 -5 23 -19 23 -6 28
15 5 16 -18 17 -22 3 -37 -9 -10 -13 -25 -11 -33 4 -13 3 -13 -5 -1 -8 12 -14
12 -25 3 -8 -7 -21 -10 -29 -7 -17 7 -33 -21 -18 -30 6 -4 10 -1 10 5 0 6 5 8
10 5 15 -9 12 -25 -5 -25 -8 0 -15 -4 -15 -9 0 -5 -9 -13 -21 -16 -26 -9 -59
-36 -59 -50 1 -29 17 -36 47 -19 27 16 32 16 61 1 18 -8 30 -12 27 -7 -3 5 4
11 15 15 11 3 20 11 20 16 0 13 -18 11 -22 -2 -3 -9 -12 -9 -33 -1 -26 9 -27
11 -7 11 14 1 26 10 31 24 8 20 10 20 16 4 7 -17 8 -17 22 3 8 11 19 18 24 14
6 -3 8 6 4 23 -3 15 -2 22 1 16 3 -7 10 -13 15 -13 5 0 8 6 7 13 -2 6 3 11 10
10 17 -4 15 12 -4 31 -8 9 -11 16 -5 16 5 0 17 -7 25 -16 21 -21 20 -6 -1 20
-10 12 -11 15 -3 9 20 -19 30 -16 30 8 0 11 4 18 8 15 5 -3 9 2 9 10 0 9 -6
13 -16 9 -11 -4 -10 -1 4 15 22 24 26 25 19 5 -10 -26 10 -16 31 15 11 17 28
33 38 36 9 3 15 10 12 15 -9 13 29 11 43 -3 7 -7 12 -10 13 -7 7 39 4 49 -12
44 -10 -3 -31 1 -48 9 -19 10 -32 12 -36 6 -4 -6 -10 -8 -15 -5 -4 3 -36 7
-70 10 -46 4 -59 2 -54 -8 4 -6 -1 -4 -12 5 -16 14 -23 15 -33 5 -9 -9 -14 -9
-20 2 -7 11 -9 11 -14 0 -4 -9 -8 -11 -14 -4 -11 15 -39 12 -35 -4 1 -7 -3
-11 -10 -9 -7 3 -19 -2 -26 -11 -10 -14 -11 -12 -6 12 4 17 2 27 -5 27 -6 0
-11 -6 -11 -13 0 -8 -11 -12 -30 -11 -26 2 -30 -1 -30 -23 0 -13 -4 -22 -9
-19 -5 4 -8 17 -6 31 1 14 -2 25 -6 25 -5 0 -9 -12 -9 -27 0 -14 -3 -23 -6
-20 -4 3 -16 0 -28 -8 -24 -17 -36 -19 -36 -5 0 6 5 10 10 10 18 0 53 38 45
49 -9 16 -25 13 -19 -3z m214 -21 c7 -9 8 -15 2 -15 -5 0 -12 7 -16 15 -3 8
-4 15 -2 15 2 0 9 -7 16 -15z m-260 -5 c0 -5 -4 -10 -10 -10 -5 0 -10 5 -10
10 0 6 5 10 10 10 6 0 10 -4 10 -10z m-540 -30 c-24 -15 -36 -11 -14 4 10 8
21 12 24 10 2 -3 -2 -9 -10 -14z m404 4 c12 -5 13 -9 3 -19 -14 -15 -27 -10
-27 11 0 16 2 16 24 8z m506 -62 c0 -5 -12 -14 -27 -21 l-28 -11 24 20 c26 22
31 24 31 12z m-63 -8 c-3 -3 -12 -4 -19 -1 -8 3 -5 6 6 6 11 1 17 -2 13 -5z
m98 -43 c-6 -5 -25 10 -25 20 0 5 6 4 14 -3 8 -7 12 -15 11 -17z m-395 9 c0
-5 -4 -10 -10 -10 -5 0 -10 5 -10 10 0 6 5 10 10 10 6 0 10 -4 10 -10z m333
-55 c4 -8 2 -17 -3 -20 -6 -4 -10 3 -10 14 0 25 6 27 13 6z m-53 -45 c0 -5 -2
-10 -4 -10 -3 0 -8 5 -11 10 -3 6 -1 10 4 10 6 0 11 -4 11 -10z m25 -20 c3 -5
1 -10 -4 -10 -6 0 -11 5 -11 10 0 6 2 10 4 10 3 0 8 -4 11 -10z m-55 -24 c0
-3 -4 -8 -10 -11 -5 -3 -10 -1 -10 4 0 6 5 11 10 11 6 0 10 -2 10 -4z m-70
-46 c0 -5 -5 -10 -11 -10 -5 0 -7 5 -4 10 3 6 8 10 11 10 2 0 4 -4 4 -10z"/>
<path d="M6370 8464 c0 -11 32 -44 43 -44 4 0 7 5 7 10 0 6 -4 9 -9 8 -5 -2
-17 6 -25 17 -8 11 -16 15 -16 9z"/>
<path d="M4780 8456 c0 -2 7 -6 15 -10 8 -3 15 -1 15 4 0 6 -7 10 -15 10 -8 0
-15 -2 -15 -4z"/>
<path d="M4836 8443 c-6 -14 -5 -15 5 -6 7 7 10 15 7 18 -3 3 -9 -2 -12 -12z"/>
<path d="M6450 8445 c0 -8 5 -15 10 -15 14 0 12 -16 -3 -32 -8 -7 -11 -20 -9
-27 4 -12 3 -12 -11 0 -8 8 -13 17 -11 21 2 4 0 9 -5 12 -16 11 -22 -11 -6
-24 19 -16 19 -26 -1 -34 -11 -4 -15 -2 -11 7 3 8 -3 13 -14 14 -10 1 -19 -2
-19 -8 0 -5 -8 -9 -17 -10 -14 0 -15 -2 -3 -6 8 -4 20 -13 27 -22 7 -9 13 -11
13 -5 0 5 -5 15 -12 22 -7 7 -8 12 -2 12 6 0 15 -5 22 -12 9 -9 15 -9 24 0 22
22 29 12 13 -19 -11 -19 -22 -29 -31 -25 -8 3 -14 1 -14 -4 0 -6 -7 -10 -15
-10 -8 0 -15 5 -15 10 0 6 -5 10 -11 10 -5 0 -8 -4 -4 -9 3 -5 -3 -12 -12 -14
-10 -3 -3 -5 15 -6 30 -1 32 -3 32 -38 0 -25 3 -33 9 -24 6 8 11 9 15 3 7 -12
-33 -54 -44 -47 -5 3 -11 -2 -14 -11 -5 -12 -1 -14 15 -9 18 6 19 5 8 -12 -12
-20 -39 -27 -39 -11 0 4 -5 8 -12 8 -6 0 -1 -11 11 -24 l22 -24 -20 -15 c-14
-9 -19 -20 -15 -31 5 -12 0 -16 -17 -15 -13 0 -18 3 -11 6 6 2 11 17 11 31 -2
24 -2 24 -6 5 -2 -13 -9 -23 -14 -23 -5 0 -9 -12 -9 -26 0 -16 4 -23 12 -18 7
4 8 3 4 -4 -10 -16 -26 -15 -26 2 0 18 -31 30 -40 16 -4 -6 -13 -10 -21 -8 -8
2 -15 -7 -16 -22 -2 -21 -1 -22 5 -6 6 14 11 16 16 8 10 -17 -25 -72 -45 -72
-10 0 -19 6 -22 13 -2 6 -8 8 -13 4 -7 -7 5 -20 28 -29 3 -2 8 -12 10 -23 2
-15 -3 -21 -24 -23 -17 -2 -28 1 -28 9 0 6 8 9 20 6 14 -3 20 0 20 11 0 8 -3
12 -7 9 -3 -4 -13 -1 -21 6 -13 10 -14 9 -8 -1 4 -7 1 -15 -8 -18 -11 -4 -13
-11 -7 -23 7 -12 3 -22 -15 -38 -22 -19 -26 -20 -31 -6 -3 8 0 31 6 50 7 19
10 37 7 40 -3 4 -6 0 -6 -7 0 -20 -40 -49 -58 -44 -16 5 -16 5 0 -5 21 -14 62
-80 54 -88 -3 -3 -8 2 -12 11 -10 26 -25 19 -18 -9 4 -15 2 -25 -5 -25 -6 0
-8 6 -5 14 3 8 1 17 -5 21 -6 3 -11 -2 -12 -12 -1 -13 -3 -11 -9 7 -6 18 -8
20 -9 7 -1 -18 -37 -56 -55 -57 -4 0 2 8 14 18 16 13 24 32 27 68 l5 49 -36 0
c-20 0 -36 -3 -36 -7 0 -5 6 -8 13 -8 8 0 7 -4 -3 -10 -11 -7 -12 -12 -3 -18
6 -4 14 -21 17 -37 6 -28 6 -28 -5 -7 -13 23 -29 30 -29 11 0 -5 -4 -8 -10 -4
-5 3 -18 0 -29 -7 -24 -15 -27 -13 -36 31 -5 23 -4 31 4 27 6 -4 11 -18 11
-32 0 -13 4 -24 9 -24 6 0 9 18 8 40 -1 42 -4 45 -27 30 -9 -5 -19 -5 -27 2
-9 7 -13 7 -13 0 0 -6 4 -13 9 -17 5 -3 8 -22 6 -43 -2 -21 2 -40 8 -44 9 -6
9 -8 1 -8 -7 0 -25 15 -42 34 -26 30 -31 32 -35 16 -3 -12 5 -25 25 -40 16
-12 27 -24 24 -28 -4 -3 -12 0 -18 6 -18 18 -30 14 -23 -7 7 -23 -12 -38 -28
-22 -17 17 -25 13 -23 -11 0 -11 -5 -23 -11 -25 -7 -3 -13 2 -13 11 0 31 -19
16 -31 -24 -11 -35 -13 -38 -25 -22 -19 25 -25 10 -11 -27 10 -26 9 -33 -3
-41 -9 -6 -18 -5 -23 3 -6 9 -10 9 -13 1 -4 -9 -11 -9 -29 0 -14 6 -25 14 -25
19 0 4 -5 7 -12 7 -6 0 -3 -9 7 -20 14 -16 16 -23 7 -32 -9 -9 -12 -8 -12 5 0
9 -4 17 -10 17 -5 0 -10 -9 -10 -20 0 -24 -30 -16 -31 9 0 9 -3 11 -5 5 -8
-18 15 -66 28 -58 7 4 8 3 4 -4 -14 -23 -55 20 -57 58 l-1 35 -8 -40 c-8 -42
-5 -59 11 -50 5 4 9 2 9 -3 0 -6 -7 -13 -16 -16 -22 -8 -26 -8 -19 3 3 5 1 12
-4 15 -5 3 -11 -3 -14 -14 -7 -29 -25 -24 -30 8 -3 22 -4 19 -6 -11 -1 -34 -3
-37 -25 -31 -22 5 -24 3 -22 -20 3 -27 -9 -36 -17 -13 -3 9 -7 9 -19 -1 -12
-9 -23 -10 -43 -2 -15 6 -30 8 -33 5 -3 -3 0 -5 7 -5 9 0 9 -5 1 -21 -11 -19
-23 -19 -26 2 -1 5 -2 14 -3 19 0 6 -5 10 -11 10 -5 0 -7 -7 -4 -15 5 -11 2
-13 -10 -9 -11 4 -22 -1 -31 -12 -13 -17 -16 -17 -25 -4 -6 10 -10 11 -10 3 0
-7 -7 -13 -15 -13 -9 0 -15 6 -14 13 3 24 -1 37 -12 37 -6 0 -8 -8 -5 -18 5
-14 1 -18 -18 -17 -13 0 -28 3 -32 8 -13 12 -36 8 -28 -5 4 -7 4 -10 -1 -6 -4
4 -14 3 -22 -3 -16 -14 -17 0 0 22 7 9 22 15 35 14 12 -1 21 3 19 9 -2 6 -11
10 -19 10 -11 -1 -14 5 -10 19 3 14 1 18 -6 13 -7 -4 -12 -13 -12 -20 0 -7 -9
-21 -20 -31 -11 -10 -20 -24 -20 -32 0 -19 -29 -16 -38 5 -7 17 -42 27 -42 11
0 -5 -5 -9 -11 -9 -6 0 -8 9 -4 23 3 12 3 18 -2 12 -5 -5 -24 -23 -42 -40 -25
-22 -32 -25 -27 -11 5 15 2 17 -19 12 -20 -5 -27 -2 -35 16 -9 20 -10 19 -7
-10 2 -20 0 -31 -7 -29 -6 3 -10 10 -8 17 2 8 -3 10 -13 6 -23 -9 -39 3 -25
19 7 9 6 16 -5 25 -9 7 -18 10 -22 6 -3 -3 -1 -6 5 -6 7 0 12 -4 12 -8 0 -5
-15 -9 -32 -9 -18 0 -27 2 -20 5 6 2 12 13 11 25 0 12 -3 17 -5 10 -3 -7 -12
-9 -20 -6 -8 3 -14 -1 -14 -8 -1 -9 -4 -8 -11 4 -14 24 -28 21 -35 -7 -4 -16
-11 -23 -20 -19 -8 3 -14 0 -14 -7 0 -9 -3 -10 -13 -1 -8 6 -16 10 -18 8 -2
-1 1 3 8 9 16 14 17 38 2 28 -6 -3 -15 0 -20 7 -7 11 -9 9 -9 -7 0 -12 -7 -24
-15 -28 -18 -7 -20 5 -2 23 10 11 7 12 -16 7 -22 -5 -27 -4 -20 6 14 22 11 59
-5 53 -7 -2 -10 -1 -7 5 9 14 -64 45 -77 32 -12 -12 -43 12 -43 32 0 14 -46
21 -54 8 -3 -5 -17 -12 -31 -16 l-25 -7 21 19 c19 16 20 20 7 38 -7 10 -15 17
-16 15 -1 -2 -30 -1 -64 3 -60 7 -63 8 -64 34 0 15 -3 21 -6 15 -5 -14 -24
-18 -22 -5 3 17 -2 26 -9 15 -4 -6 -20 -15 -35 -18 -20 -6 -27 -4 -27 8 0 10
7 13 19 10 21 -5 38 14 25 27 -21 19 -51 19 -72 0 -14 -13 -23 -16 -28 -9 -4
8 -9 7 -15 -2 -6 -11 -14 -8 -35 11 -23 21 -26 22 -20 6 5 -15 4 -17 -7 -7 -8
6 -13 22 -12 35 2 14 -3 33 -10 43 -12 16 -13 12 -8 -26 4 -31 2 -46 -8 -53
-12 -8 -12 -9 1 -5 18 4 35 -11 45 -42 4 -12 9 -20 12 -17 3 2 11 -1 18 -7 9
-9 10 -16 3 -25 -6 -7 -8 -16 -4 -19 4 -4 11 -1 15 6 6 9 11 10 15 2 4 -6 4
-15 1 -21 -3 -5 1 -10 9 -10 8 0 13 -6 11 -12 -7 -18 15 -47 22 -30 7 18 21
15 34 -10 10 -18 9 -20 -7 -14 -18 6 -18 5 -1 -8 9 -7 17 -25 17 -40 0 -17 5
-26 16 -26 10 0 14 -5 10 -16 -3 -9 -2 -12 5 -9 6 4 13 -2 16 -14 3 -12 9 -21
14 -21 5 0 9 -7 9 -15 0 -9 9 -15 21 -15 15 0 19 -4 15 -16 -3 -9 -6 -18 -6
-21 0 -3 -7 0 -15 7 -10 9 -15 9 -15 1 0 -11 13 -15 38 -12 6 1 12 -7 12 -19
0 -15 8 -22 30 -27 17 -3 40 -16 53 -29 12 -13 26 -24 30 -24 12 0 40 -30 34
-36 -7 -7 -65 35 -71 53 -6 15 -46 18 -46 3 0 -5 8 -10 18 -10 10 0 33 -14 51
-32 36 -35 71 -47 71 -23 0 8 3 15 8 15 4 0 7 -11 7 -26 0 -20 -4 -24 -19 -20
-14 4 -16 2 -8 -6 7 -7 20 -12 31 -13 17 -1 19 3 15 29 -4 29 -3 29 15 -9 11
-22 20 -34 20 -27 1 6 6 12 12 12 6 0 9 -8 7 -17 -2 -10 -11 -17 -20 -17 -18
2 -32 -33 -17 -42 5 -3 8 0 7 8 -2 8 5 12 20 11 14 -2 21 1 17 7 -7 12 12 40
26 40 5 0 9 -5 9 -11 0 -5 -4 -8 -9 -5 -10 7 -7 -51 3 -62 4 -4 7 -2 6 3 -6
26 2 45 18 45 14 0 15 -2 2 -10 -12 -8 -11 -10 6 -10 24 0 48 -23 37 -34 -4
-4 0 -4 10 0 10 3 17 1 17 -6 0 -6 8 -19 17 -28 12 -13 17 -14 21 -4 3 10 7
10 18 1 8 -7 18 -9 22 -5 10 10 -27 36 -43 30 -7 -3 -16 0 -21 7 -5 9 1 11 24
6 22 -4 32 -3 33 6 0 6 6 -1 14 -17 12 -28 25 -35 70 -37 11 -1 42 -6 68 -11
41 -9 50 -8 60 6 11 14 15 14 42 -5 28 -19 22 -20 -22 -2 -12 5 -15 2 -11 -9
4 -9 1 -21 -5 -27 -8 -8 -7 -11 5 -11 9 0 18 8 21 18 3 13 6 10 11 -10 9 -31
25 -38 22 -10 -1 12 7 17 27 18 16 1 31 -4 33 -10 3 -7 50 -12 136 -14 132 -3
154 -6 129 -21 -7 -5 -9 -11 -4 -14 5 -3 17 3 26 14 10 11 22 17 27 14 6 -3
16 -3 23 2 21 14 67 9 67 -6 0 -12 2 -13 13 -2 10 10 8 15 -7 27 -16 11 -17
14 -4 14 9 0 18 -7 22 -15 3 -8 16 -15 28 -14 22 0 22 1 3 9 -13 6 -15 9 -5 9
8 0 21 -3 29 -8 9 -6 19 -4 28 4 18 19 16 24 -7 18 -11 -3 -20 0 -20 6 0 6 7
11 15 11 8 0 15 6 15 13 0 8 4 7 10 -3 7 -11 10 -11 10 -2 0 9 5 10 19 2 20
-10 34 -1 37 25 0 6 2 16 2 23 1 6 7 12 13 12 8 0 7 -5 -2 -16 -10 -13 -10
-17 0 -24 8 -4 10 -13 7 -19 -4 -6 -2 -19 3 -28 9 -15 10 -12 11 15 0 28 4 33
30 39 17 3 30 10 30 15 0 5 -10 7 -22 3 -22 -6 -22 -6 -4 9 11 9 31 16 45 16
21 0 23 2 11 10 -10 7 -11 10 -2 10 20 0 25 -28 8 -45 -9 -9 -16 -22 -16 -28
0 -7 5 -4 11 6 6 9 14 15 19 12 5 -3 11 4 15 15 6 20 25 28 25 11 0 -6 23 0
52 12 28 11 46 23 40 25 -7 2 -26 -4 -43 -12 -18 -9 -37 -16 -43 -16 -16 1 34
40 50 40 8 0 14 4 14 10 0 11 -28 9 -47 -3 -18 -11 -16 0 4 34 10 16 24 29 33
29 12 -1 12 -3 -2 -11 -10 -5 -18 -18 -17 -27 0 -10 3 -12 6 -5 3 8 15 11 31
8 15 -3 21 -2 15 1 -7 3 -13 11 -13 17 0 13 49 57 63 57 6 0 2 -6 -9 -14 -10
-8 -15 -18 -11 -22 4 -5 12 -2 17 6 11 19 22 8 14 -14 -7 -18 -20 -21 -29 -6
-8 13 -25 13 -25 0 0 -5 3 -9 8 -8 4 0 15 -2 25 -7 10 -4 23 -2 32 5 18 15 20
40 4 40 -6 0 -9 7 -5 15 3 8 1 15 -4 15 -6 0 -10 8 -10 18 1 15 2 15 13 1 14
-19 48 -19 71 0 8 7 20 10 25 7 5 -4 13 -1 17 5 5 9 -4 10 -36 5 -37 -6 -41
-5 -31 8 7 8 10 20 7 25 -4 5 -1 13 5 16 6 4 13 -2 16 -14 5 -19 7 -19 26 -6
12 8 32 15 44 15 13 0 23 4 23 9 0 6 -12 6 -32 0 -47 -13 -51 -12 -28 11 12
12 26 18 32 14 7 -5 9 -2 6 7 -3 8 0 20 7 26 10 9 14 9 19 -2 3 -8 1 -15 -4
-15 -6 0 -10 -4 -10 -10 0 -19 21 -10 30 14 5 13 15 26 22 29 10 4 10 6 1 6
-7 1 -13 7 -13 15 0 9 7 12 20 9 11 -3 20 -9 20 -12 0 -4 6 -8 14 -8 8 0 15 3
14 6 -2 20 4 31 17 31 8 0 15 4 15 10 0 5 -7 7 -16 3 -14 -5 -15 -3 -5 15 6
11 21 23 33 25 22 4 21 4 -2 5 -27 1 -70 -28 -70 -48 0 -6 5 -8 10 -5 6 3 10
1 10 -4 0 -6 -6 -11 -14 -11 -30 0 -26 21 8 54 20 18 36 39 36 45 0 7 8 11 18
9 9 -2 26 4 36 14 20 18 20 18 0 34 -18 15 -17 15 7 1 25 -15 26 -14 38 19 7
19 16 32 20 30 4 -3 13 -1 21 4 13 8 12 14 -4 42 -10 18 -13 27 -5 21 19 -18
29 -16 29 7 0 11 5 20 11 20 6 0 9 -6 6 -13 -6 -16 20 -53 30 -43 4 4 1 11 -7
16 -11 7 -11 11 -1 24 9 11 10 16 2 16 -6 0 -11 4 -11 10 0 5 10 9 21 7 21 -2
23 2 31 61 1 6 8 12 16 12 10 0 13 8 10 25 -5 26 6 34 16 13 3 -7 4 -4 1 8 -6
23 31 78 46 69 8 -6 10 -1 13 33 1 7 7 17 15 21 9 6 12 18 8 32 -6 23 -5 23 8
5 8 -11 18 -17 21 -13 4 4 2 13 -5 21 -9 11 -6 21 18 47 17 18 34 29 38 25 4
-4 0 -12 -9 -17 -10 -5 -15 -16 -12 -24 4 -9 0 -15 -10 -15 -9 0 -16 -4 -16
-10 0 -5 7 -10 16 -10 13 0 14 -3 5 -14 -8 -10 -8 -16 3 -25 11 -10 14 -7 15
16 1 64 2 68 10 55 10 -17 41 -4 41 17 0 15 12 28 50 51 8 5 12 12 8 15 -3 4
-15 1 -26 -6 -16 -10 -23 -9 -43 9 -12 12 -26 22 -31 22 -4 0 -8 5 -8 10 0 12
41 -7 52 -24 8 -13 54 10 63 32 8 21 -4 30 -15 12 -8 -13 -10 -12 -10 3 0 9 6
17 14 17 14 0 15 47 1 89 -4 13 -2 21 6 21 9 0 8 4 -1 15 -9 10 -9 15 -1 15 6
0 11 5 11 10 0 6 -7 10 -15 10 -8 0 -15 -6 -15 -13 0 -18 -69 -87 -87 -87 -13
0 -13 3 -3 15 7 8 16 13 20 10 10 -6 60 55 67 83 4 18 8 20 19 11 11 -9 14 -8
14 4 0 9 -4 18 -9 22 -5 3 -7 21 -5 41 4 33 3 34 -11 20 -9 -9 -13 -20 -10
-26 3 -5 -2 -10 -12 -10 -16 -1 -16 -2 -2 -13 14 -10 14 -16 2 -44 -15 -39
-27 -45 -13 -7 14 35 12 44 -5 38 -8 -4 -12 -10 -9 -15 3 -5 0 -9 -5 -9 -6 0
-11 7 -11 15 0 8 -5 15 -10 15 -6 0 -10 -6 -9 -12 1 -7 -3 -26 -9 -41 -7 -16
-12 -36 -12 -46 0 -10 -3 -21 -7 -25 -5 -4 -8 -13 -8 -18 0 -6 -6 -13 -13 -16
-7 -2 -10 2 -6 12 4 12 0 16 -15 16 -12 0 -21 5 -21 11 0 5 4 7 10 4 11 -7 51
12 48 23 -3 13 14 67 29 90 13 21 12 26 -2 48 -18 28 -25 30 -25 9z m55 -125
c-3 -5 -12 -10 -18 -10 -7 0 -6 4 3 10 19 12 23 12 15 0z m-95 -80 c0 -5 -4
-10 -10 -10 -5 0 -10 5 -10 10 0 6 5 10 10 10 6 0 10 -4 10 -10z m157 -16 c4
-11 -34 -74 -44 -74 -23 1 -35 18 -24 36 9 17 10 17 11 2 0 -10 6 -18 14 -18
10 0 12 7 8 22 -3 14 -2 19 6 14 7 -4 12 -1 12 9 0 10 -5 13 -12 9 -7 -4 -8
-3 -4 5 8 13 28 10 33 -5z m-148 -71 c-2 -31 -3 -33 -6 -10 -3 18 -9 25 -16
20 -7 -4 -6 0 2 10 19 24 21 22 20 -20z m-32 -45 c-3 -8 -6 -5 -6 6 -1 11 2
17 5 13 3 -3 4 -12 1 -19z m122 -22 c8 -10 9 -16 1 -21 -5 -3 -10 -16 -10 -27
0 -33 -11 -14 -15 26 -3 38 5 45 24 22z m-117 -38 c-8 -8 -9 -4 -5 13 4 13 8
18 11 10 2 -7 -1 -18 -6 -23z m-39 7 c-3 -9 -8 -14 -10 -11 -3 3 -2 9 2 15 9
16 15 13 8 -4z m-18 -55 c3 -5 1 -10 -4 -10 -6 0 -11 5 -11 10 0 6 2 10 4 10
3 0 8 -4 11 -10z m-99 -22 c-3 -13 -6 -30 -6 -39 0 -9 -6 -19 -13 -22 -10 -4
-11 4 -3 39 6 24 15 44 19 44 5 0 7 -10 3 -22z m15 -35 c-12 -20 -14 -14 -5
12 4 9 9 14 11 11 3 -2 0 -13 -6 -23z m89 -33 c0 -5 -5 -10 -11 -10 -5 0 -7 5
-4 10 3 6 8 10 11 10 2 0 4 -4 4 -10z m-145 -30 c3 -5 1 -10 -4 -10 -6 0 -11
5 -11 10 0 6 2 10 4 10 3 0 8 -4 11 -10z m-235 -66 c0 -17 -22 -14 -28 4 -2 7
3 12 12 12 9 0 16 -7 16 -16z m170 6 c0 -5 -5 -10 -11 -10 -5 0 -7 5 -4 10 3
6 8 10 11 10 2 0 4 -4 4 -10z m28 -15 c-3 -3 -9 2 -12 12 -6 14 -5 15 5 6 7
-7 10 -15 7 -18z m132 -5 c0 -5 -4 -10 -10 -10 -5 0 -10 5 -10 10 0 6 5 10 10
10 6 0 10 -4 10 -10z m-42 -75 c-3 -3 -9 2 -12 12 -6 14 -5 15 5 6 7 -7 10
-15 7 -18z m-2364 -11 c23 -9 20 -23 -4 -17 -11 3 -20 0 -20 -6 0 -6 -5 -11
-10 -11 -7 0 -7 6 0 20 12 22 12 22 34 14z m-39 -54 c3 -6 -1 -7 -9 -4 -18 7
-21 14 -7 14 6 0 13 -4 16 -10z m1849 -58 c2 -4 -5 -9 -17 -9 -17 -2 -19 0 -7
7 18 12 18 12 24 2z m-1594 -12 c-8 -5 -22 -9 -30 -9 -10 0 -8 3 5 9 27 12 43
12 25 0z m2000 -4 c0 -3 -4 -8 -10 -11 -5 -3 -10 -1 -10 4 0 6 5 11 10 11 6 0
10 -2 10 -4z m-1924 -27 c-14 -9 -16 -13 -5 -20 7 -4 11 -10 8 -13 -2 -3 -11
-1 -18 4 -18 11 -6 40 16 40 17 -1 17 -1 -1 -11z m94 -43 c0 -2 -7 -9 -15 -16
-13 -11 -14 -10 -9 4 5 14 24 23 24 12z m50 -62 c0 -2 -11 -4 -25 -4 -17 0
-23 4 -20 15 16 50 15 50 30 21 8 -16 15 -30 15 -32z m-383 -6 c-3 -8 -6 -5
-6 6 -1 11 2 17 5 13 3 -3 4 -12 1 -19z m1548 -8 c-3 -5 -12 -10 -18 -10 -7 0
-6 4 3 10 19 12 23 12 15 0z m-105 -10 c0 -5 -5 -10 -11 -10 -5 0 -7 5 -4 10
3 6 8 10 11 10 2 0 4 -4 4 -10z m-1073 -6 c-3 -3 -12 -4 -19 -1 -8 3 -5 6 6 6
11 1 17 -2 13 -5z m-342 -14 c3 -5 1 -10 -4 -10 -6 0 -11 5 -11 10 0 6 2 10 4
10 3 0 8 -4 11 -10z m528 -10 c3 -11 2 -20 -3 -20 -4 0 -10 9 -13 20 -3 11 -2
20 3 20 4 0 10 -9 13 -20z m-37 -47 c-10 -10 -19 5 -10 18 6 11 8 11 12 0 2
-7 1 -15 -2 -18z m358 -4 c-17 -7 -17 -8 -1 -8 9 -1 17 -5 17 -11 0 -6 -9 -6
-24 0 -13 5 -26 8 -28 7 -2 -1 6 6 17 15 11 9 24 14 29 10 5 -3 1 -9 -10 -13z
m319 -15 c-7 -19 -10 -18 -16 5 -3 13 -1 18 9 14 7 -2 10 -11 7 -19z m-173 6
c18 -12 2 -12 -25 0 -13 6 -15 9 -5 9 8 0 22 -4 30 -9z m60 6 c0 -9 -30 -14
-35 -6 -4 6 3 10 14 10 12 0 21 -2 21 -4z m84 -21 c3 -8 1 -15 -4 -15 -6 0
-10 7 -10 15 0 8 2 15 4 15 2 0 6 -7 10 -15z m-1074 1 c0 -3 -4 -8 -10 -11 -5
-3 -10 -1 -10 4 0 6 5 11 10 11 6 0 10 -2 10 -4z m643 -31 c-3 -9 -8 -14 -10
-11 -3 3 -2 9 2 15 9 16 15 13 8 -4z m-613 1 c0 -9 -30 -14 -35 -6 -4 6 3 10
14 10 12 0 21 -2 21 -4z m1520 -206 c0 -5 -4 -10 -10 -10 -5 0 -10 5 -10 10 0
6 5 10 10 10 6 0 10 -4 10 -10z m-10 -29 c0 -6 -4 -13 -10 -16 -5 -3 -10 1
-10 9 0 9 5 16 10 16 6 0 10 -4 10 -9z m-993 -77 c-3 -3 -12 -4 -19 -1 -8 3
-5 6 6 6 11 1 17 -2 13 -5z m78 -12 c-3 -3 -11 0 -18 7 -9 10 -8 11 6 5 10 -3
15 -9 12 -12z m422 -28 c-3 -3 -12 -4 -19 -1 -8 3 -5 6 6 6 11 1 17 -2 13 -5z
m113 2 c0 -3 -4 -8 -10 -11 -5 -3 -10 -1 -10 4 0 6 5 11 10 11 6 0 10 -2 10
-4z m-60 -34 c0 -4 -11 -9 -25 -10 -14 -1 -25 3 -25 8 0 6 11 10 25 10 14 0
25 -4 25 -8z"/>
<path d="M4856 8425 c-3 -8 -1 -15 4 -15 6 0 10 7 10 15 0 8 -2 15 -4 15 -2 0
-6 -7 -10 -15z"/>
<path d="M6591 8424 c0 -11 3 -14 6 -6 3 7 2 16 -1 19 -3 4 -6 -2 -5 -13z"/>
<path d="M4703 8419 c11 -7 23 -7 28 -2 5 5 -3 9 -19 11 -24 1 -25 0 -9 -9z"/>
<path d="M4786 8415 c7 -17 20 -20 28 -6 3 5 -1 12 -10 15 -22 9 -24 8 -18 -9z"/>
<path d="M6310 8415 c-11 -13 -10 -14 4 -9 9 3 16 10 16 15 0 13 -6 11 -20 -6z"/>
<path d="M6370 8415 c0 -5 5 -17 10 -25 5 -8 10 -10 10 -5 0 6 -5 17 -10 25
-5 8 -10 11 -10 5z"/>
<path d="M6435 8410 c3 -5 8 -10 11 -10 2 0 4 5 4 10 0 6 -5 10 -11 10 -5 0
-7 -4 -4 -10z"/>
<path d="M6280 8396 c0 -8 4 -17 9 -20 5 -4 7 3 4 14 -6 23 -13 26 -13 6z"/>
<path d="M4370 8340 c0 -5 5 -10 11 -10 5 0 7 5 4 10 -3 6 -8 10 -11 10 -2 0
-4 -4 -4 -10z"/>
<path d="M6282 8333 c2 -9 10 -18 18 -20 12 -4 13 -3 1 5 -7 5 -10 15 -7 21 4
6 2 11 -4 11 -6 0 -10 -8 -8 -17z"/>
<path d="M4415 8320 c3 -5 8 -10 11 -10 2 0 4 5 4 10 0 6 -5 10 -11 10 -5 0
-7 -4 -4 -10z"/>
<path d="M4461 8314 c0 -11 3 -14 6 -6 3 7 2 16 -1 19 -3 4 -6 -2 -5 -13z"/>
<path d="M5256 8306 c3 -8 13 -17 22 -21 13 -5 13 -2 -3 15 -21 24 -26 25 -19
6z"/>
<path d="M6260 8311 c0 -6 4 -13 10 -16 6 -3 7 1 4 9 -7 18 -14 21 -14 7z"/>
<path d="M6400 8310 c0 -5 5 -10 10 -10 6 0 10 5 10 10 0 6 -4 10 -10 10 -5 0
-10 -4 -10 -10z"/>
<path d="M4893 8285 c-3 -9 -3 -18 -1 -21 3 -3 8 4 11 16 6 23 -1 27 -10 5z"/>
<path d="M5576 8283 c-6 -14 -5 -15 5 -6 7 7 10 15 7 18 -3 3 -9 -2 -12 -12z"/>
<path d="M5190 8282 c0 -12 19 -26 26 -19 2 2 -2 10 -11 17 -9 8 -15 8 -15 2z"/>
<path d="M6255 8260 c-3 -5 -2 -10 4 -10 5 0 13 5 16 10 3 6 2 10 -4 10 -5 0
-13 -4 -16 -10z"/>
<path d="M6350 8240 c0 -5 5 -10 11 -10 5 0 7 5 4 10 -3 6 -8 10 -11 10 -2 0
-4 -4 -4 -10z"/>
<path d="M6320 8222 c0 -10 -5 -23 -12 -30 -9 -9 -9 -12 0 -12 12 0 32 31 32
49 0 6 -4 11 -10 11 -5 0 -10 -8 -10 -18z"/>
<path d="M4480 8220 c0 -5 5 -10 10 -10 6 0 10 5 10 10 0 6 -4 10 -10 10 -5 0
-10 -4 -10 -10z"/>
<path d="M5275 8220 c3 -5 8 -10 11 -10 2 0 4 5 4 10 0 6 -5 10 -11 10 -5 0
-7 -4 -4 -10z"/>
<path d="M5510 8215 c-19 -22 -8 -25 13 -3 9 10 13 18 8 18 -5 0 -14 -7 -21
-15z"/>
<path d="M6098 8223 c7 -3 16 -2 19 1 4 3 -2 6 -13 5 -11 0 -14 -3 -6 -6z"/>
<path d="M4546 8193 c-9 -22 5 -35 24 -22 12 9 12 10 -3 5 -15 -5 -17 -2 -12
14 8 24 0 27 -9 3z"/>
<path d="M6200 8190 c0 -5 5 -10 11 -10 5 0 7 5 4 10 -3 6 -8 10 -11 10 -2 0
-4 -4 -4 -10z"/>
<path d="M6340 8190 c0 -5 5 -10 10 -10 6 0 10 5 10 10 0 6 -4 10 -10 10 -5 0
-10 -4 -10 -10z"/>
<path d="M5263 8176 c5 -16 27 -19 27 -3 0 7 -7 14 -15 14 -9 0 -14 -5 -12
-11z"/>
<path d="M5470 8180 c0 -5 5 -10 11 -10 5 0 7 5 4 10 -3 6 -8 10 -11 10 -2 0
-4 -4 -4 -10z"/>
<path d="M6273 8172 c13 -15 15 -25 6 -55 -5 -20 -17 -43 -25 -52 -14 -13 -14
-15 1 -15 9 0 19 9 22 20 6 23 23 26 41 8 9 -9 12 -9 12 0 0 7 -4 12 -8 12
-14 0 -33 48 -22 55 6 4 15 3 20 0 6 -3 10 1 10 11 0 11 -6 15 -20 11 -13 -3
-20 0 -20 9 0 8 -7 14 -17 14 -15 0 -15 -1 0 -18z"/>
<path d="M4620 8176 c0 -2 8 -10 18 -17 15 -13 16 -12 3 4 -13 16 -21 21 -21
13z"/>
<path d="M5230 8160 c0 -5 5 -10 10 -10 6 0 10 5 10 10 0 6 -4 10 -10 10 -5 0
-10 -4 -10 -10z"/>
<path d="M5462 8144 c-7 -8 -8 -14 -3 -14 10 0 25 19 20 25 -2 1 -10 -3 -17
-11z"/>
<path d="M6257 8139 c-3 -13 -10 -18 -17 -14 -9 6 -9 2 0 -15 8 -15 8 -20 1
-16 -6 4 -11 0 -11 -8 0 -30 28 -5 35 31 7 39 1 57 -8 22z"/>
<path d="M5205 8130 c-3 -5 1 -10 9 -10 9 0 16 5 16 10 0 6 -4 10 -9 10 -6 0
-13 -4 -16 -10z"/>
<path d="M5436 8103 c-6 -14 -5 -15 5 -6 7 7 10 15 7 18 -3 3 -9 -2 -12 -12z"/>
<path d="M5040 8089 c5 -36 -23 -76 -32 -48 -2 6 -16 13 -30 14 -19 2 -25 -1
-21 -11 7 -20 -7 -17 -23 4 -12 16 -13 15 -14 -5 0 -13 -5 -23 -11 -23 -5 0
-7 5 -4 10 9 15 -37 30 -52 18 -7 -6 -13 -7 -13 -2 0 4 -5 3 -12 -4 -18 -18
-28 -15 -21 6 6 15 3 14 -17 -3 l-23 -20 7 25 c7 24 6 24 -8 6 -9 -11 -16 -29
-16 -40 0 -20 -1 -20 -16 2 -19 28 -31 28 -36 -1 -4 -21 0 -23 36 -25 22 0 42
-6 44 -12 3 -7 9 -7 19 2 14 11 15 10 8 -12 -7 -22 -6 -23 8 -11 9 7 14 17 11
22 -3 5 0 9 5 9 6 0 11 -6 11 -14 0 -21 27 -40 33 -24 4 10 6 10 6 1 1 -14 33
-18 45 -6 4 4 25 6 46 4 24 -1 40 2 40 8 0 6 7 11 15 11 9 0 12 -6 9 -15 -4
-8 -1 -15 6 -15 6 0 9 4 5 9 -3 5 -1 12 4 16 5 3 14 -3 20 -12 10 -17 10 -17
11 2 1 19 1 19 14 2 13 -16 14 -16 20 5 4 17 8 20 15 10 6 -11 16 -10 47 7 50
27 62 27 38 -1 l-19 -22 28 18 c16 10 31 15 34 12 4 -3 16 7 27 23 12 15 26
26 32 24 6 -2 16 8 22 22 7 15 8 25 2 25 -6 0 -10 -4 -10 -10 0 -5 -5 -10 -11
-10 -5 0 -7 5 -4 10 3 6 1 10 -4 10 -6 0 -11 -6 -11 -12 0 -9 -4 -8 -10 2 -6
10 -10 11 -10 3 0 -7 -7 -13 -15 -13 -8 0 -15 -5 -15 -11 0 -6 -7 -4 -15 5 -8
8 -15 22 -15 31 0 11 -7 15 -20 13 -12 -2 -20 -7 -20 -12 3 -15 -24 -26 -32
-13 -6 9 -8 9 -8 -1 0 -7 -7 -20 -15 -28 -12 -13 -15 -13 -15 -2 0 8 6 20 13
28 10 12 9 12 -5 2 -12 -9 -18 -10 -23 -2 -5 7 -11 5 -20 -7 -7 -10 -17 -14
-21 -10 -5 4 -3 11 3 15 7 5 6 11 -4 21 -12 11 -14 11 -13 0z m160 -29 c0 -5
-5 -10 -11 -10 -5 0 -7 5 -4 10 3 6 8 10 11 10 2 0 4 -4 4 -10z m-205 -20 c3
-5 1 -10 -4 -10 -6 0 -11 5 -11 10 0 6 2 10 4 10 3 0 8 -4 11 -10z m191 -9
c13 11 17 8 12 -8 -3 -9 -58 -11 -58 -3 0 3 6 12 13 19 10 10 13 9 15 -4 3
-13 7 -14 18 -4z m104 10 c0 -5 -7 -12 -16 -15 -14 -5 -15 -4 -4 9 14 17 20
19 20 6z m-400 -11 c0 -5 -2 -10 -4 -10 -3 0 -8 5 -11 10 -3 6 -1 10 4 10 6 0
11 -4 11 -10z m210 6 c0 -3 -4 -8 -10 -11 -5 -3 -10 -1 -10 4 0 6 5 11 10 11
6 0 10 -2 10 -4z m-245 -16 c-3 -5 -14 -10 -23 -9 -14 0 -13 2 3 9 27 11 27
11 20 0z m110 -40 c3 -5 1 -10 -4 -10 -6 0 -11 5 -11 10 0 6 2 10 4 10 3 0 8
-4 11 -10z"/>
<path d="M5128 8093 c6 -2 18 -2 25 0 6 3 1 5 -13 5 -14 0 -19 -2 -12 -5z"/>
<path d="M4567 8074 c3 -7 9 -14 14 -14 14 0 10 17 -5 23 -10 4 -13 1 -9 -9z"/>
<path d="M5400 8079 c0 -5 5 -7 10 -4 6 3 10 8 10 11 0 2 -4 4 -10 4 -5 0 -10
-5 -10 -11z"/>
<path d="M4595 8059 c-10 -15 3 -25 16 -12 7 7 7 13 1 17 -6 3 -14 1 -17 -5z"/>
<path d="M4631 8053 c0 -13 4 -23 10 -23 5 0 7 -4 4 -10 -3 -5 3 -10 14 -10
11 0 25 9 31 19 15 29 13 30 -19 21 -24 -7 -31 -5 -34 8 -3 12 -5 10 -6 -5z"/>
<path d="M6205 8060 c-3 -5 1 -10 10 -10 9 0 13 5 10 10 -3 6 -8 10 -10 10 -2
0 -7 -4 -10 -10z"/>
<path d="M3595 8050 c3 -5 8 -10 11 -10 2 0 4 5 4 10 0 6 -5 10 -11 10 -5 0
-7 -4 -4 -10z"/>
<path d="M6541 8051 c-9 -6 -10 -11 -2 -15 6 -4 11 -4 11 1 0 4 4 2 9 -6 5 -8
11 -9 15 -3 9 14 -17 32 -33 23z"/>
<path d="M6150 8031 c0 -5 5 -13 10 -16 6 -3 10 -2 10 4 0 5 -4 13 -10 16 -5
3 -10 2 -10 -4z"/>
<path d="M6240 8030 c0 -5 5 -10 11 -10 5 0 7 5 4 10 -3 6 -8 10 -11 10 -2 0
-4 -4 -4 -10z"/>
<path d="M6507 8002 c-15 -10 -25 -23 -22 -30 3 -8 5 -21 5 -30 0 -15 2 -15
10 -2 5 8 7 23 4 33 -3 11 0 17 10 17 9 0 16 -7 16 -15 0 -17 16 -20 25 -6 3
6 -3 14 -12 20 -16 9 -16 12 -3 21 25 16 -3 9 -33 -8z"/>
<path d="M6576 7997 c3 -10 9 -15 12 -12 3 3 0 11 -7 18 -10 9 -11 8 -5 -6z"/>
<path d="M6150 7978 c0 -9 5 -20 10 -23 13 -8 13 5 0 25 -8 13 -10 13 -10 -2z"/>
<path d="M3550 7969 c0 -5 5 -7 10 -4 6 3 10 8 10 11 0 2 -4 4 -10 4 -5 0 -10
-5 -10 -11z"/>
<path d="M4750 7969 c0 -5 5 -7 10 -4 6 3 10 8 10 11 0 2 -4 4 -10 4 -5 0 -10
-5 -10 -11z"/>
<path d="M6020 7969 c0 -5 5 -7 10 -4 6 3 10 8 10 11 0 2 -4 4 -10 4 -5 0 -10
-5 -10 -11z"/>
<path d="M6100 7961 c0 -5 9 -7 20 -4 11 3 20 7 20 9 0 2 -9 4 -20 4 -11 0
-20 -4 -20 -9z"/>
<path d="M6400 7945 c-11 -13 -10 -14 4 -9 9 3 16 10 16 15 0 13 -6 11 -20 -6z"/>
<path d="M6570 7940 c0 -5 5 -10 10 -10 6 0 10 5 10 10 0 6 -4 10 -10 10 -5 0
-10 -4 -10 -10z"/>
<path d="M5971 7924 c0 -11 3 -14 6 -6 3 7 2 16 -1 19 -3 4 -6 -2 -5 -13z"/>
<path d="M6520 7931 c0 -5 7 -14 15 -21 16 -14 18 -10 9 14 -6 17 -24 22 -24
7z"/>
<path d="M6405 7920 c-3 -5 1 -10 9 -10 9 0 16 5 16 10 0 6 -4 10 -9 10 -6 0
-13 -4 -16 -10z"/>
<path d="M6458 7923 c7 -3 16 -2 19 1 4 3 -2 6 -13 5 -11 0 -14 -3 -6 -6z"/>
<path d="M3570 7911 c0 -6 4 -13 10 -16 6 -3 7 1 4 9 -7 18 -14 21 -14 7z"/>
<path d="M6080 7909 c0 -5 5 -7 10 -4 6 3 10 8 10 11 0 2 -4 4 -10 4 -5 0 -10
-5 -10 -11z"/>
<path d="M5914 7899 c-4 -7 -3 -9 4 -5 6 4 12 -3 14 -16 3 -19 4 -20 10 -6 9
21 -16 45 -28 27z"/>
<path d="M6025 7901 c-3 -5 -1 -12 5 -16 5 -3 10 1 10 9 0 18 -6 21 -15 7z"/>
<path d="M6570 7890 c-9 -16 -8 -18 5 -14 8 4 15 12 15 20 0 20 -7 17 -20 -6z"/>
<path d="M5980 7890 c-8 -5 -10 -10 -5 -10 6 0 17 5 25 10 8 5 11 10 5 10 -5
0 -17 -5 -25 -10z"/>
<path d="M6535 7880 c-4 -6 -13 -9 -21 -6 -16 6 -19 -10 -4 -19 11 -7 46 23
37 31 -3 3 -8 0 -12 -6z"/>
<path d="M3580 7870 c0 -5 5 -10 10 -10 6 0 10 -9 10 -20 0 -11 4 -20 9 -20 5
0 14 -13 21 -30 10 -25 48 -60 64 -60 3 0 1 11 -4 25 -5 14 -6 25 -2 26 4 0
-2 4 -13 8 -12 5 -23 4 -27 -3 -4 -6 -6 3 -5 19 2 24 -2 29 -15 27 -10 -2 -18
2 -18 8 0 5 5 10 12 10 6 0 3 7 -8 15 -23 17 -34 19 -34 5z m90 -100 c0 -5 -5
-10 -11 -10 -5 0 -7 5 -4 10 3 6 8 10 11 10 2 0 4 -4 4 -10z"/>
<path d="M6336 7865 c-3 -8 -2 -15 3 -15 5 0 14 7 21 15 10 12 10 15 -3 15 -8
0 -17 -7 -21 -15z"/>
<path d="M6395 7870 c3 -5 8 -10 11 -10 2 0 4 5 4 10 0 6 -5 10 -11 10 -5 0
-7 -4 -4 -10z"/>
<path d="M3675 7861 c-3 -5 -2 -12 3 -15 5 -3 9 1 9 9 0 17 -3 19 -12 6z"/>
<path d="M6450 7860 c0 -5 5 -10 11 -10 5 0 7 5 4 10 -3 6 -8 10 -11 10 -2 0
-4 -4 -4 -10z"/>
<path d="M5860 7850 c0 -5 5 -10 11 -10 5 0 7 5 4 10 -3 6 -8 10 -11 10 -2 0
-4 -4 -4 -10z"/>
<path d="M6370 7845 c0 -8 4 -15 8 -15 5 0 9 7 9 15 0 8 -4 15 -9 15 -4 0 -8
-7 -8 -15z"/>
<path d="M6550 7844 c0 -8 6 -11 15 -8 9 4 15 0 15 -10 0 -9 -6 -16 -12 -16
-10 0 -10 -2 -2 -8 7 -4 14 -18 17 -32 2 -14 5 -2 6 26 1 44 -2 52 -19 57 -13
3 -20 0 -20 -9z"/>
<path d="M6066 7842 c-3 -5 1 -9 9 -9 8 0 12 4 9 9 -3 4 -7 8 -9 8 -2 0 -6 -4
-9 -8z"/>
<path d="M6486 7837 c3 -10 9 -15 12 -12 3 3 0 11 -7 18 -10 9 -11 8 -5 -6z"/>
<path d="M5860 7805 c0 -14 5 -25 10 -25 6 0 10 11 10 25 0 14 -4 25 -10 25
-5 0 -10 -11 -10 -25z"/>
<path d="M5993 7814 c-18 -18 -16 -24 7 -24 11 0 20 6 20 14 0 21 -13 26 -27
10z"/>
<path d="M6518 7823 c7 -3 16 -2 19 1 4 3 -2 6 -13 5 -11 0 -14 -3 -6 -6z"/>
<path d="M3725 7810 c-3 -5 -1 -10 4 -10 6 0 11 5 11 10 0 6 -2 10 -4 10 -3 0
-8 -4 -11 -10z"/>
<path d="M3770 7780 c-6 -11 -7 -20 -3 -20 4 0 3 -4 -4 -8 -8 -5 -6 -14 8 -31
10 -13 19 -18 19 -11 0 7 6 10 14 7 8 -3 20 0 26 8 9 11 7 12 -9 8 -12 -3 -21
-1 -21 6 0 6 6 11 13 11 6 1 3 6 -9 13 -12 7 -19 18 -17 25 7 19 -5 14 -17 -8z
m20 -46 c0 -8 -4 -12 -10 -9 -5 3 -10 10 -10 16 0 5 5 9 10 9 6 0 10 -7 10
-16z"/>
<path d="M6325 7790 c3 -5 8 -10 11 -10 2 0 4 5 4 10 0 6 -5 10 -11 10 -5 0
-7 -4 -4 -10z"/>
<path d="M3825 7770 c4 -6 11 -8 16 -5 14 9 11 15 -7 15 -8 0 -12 -5 -9 -10z"/>
<path d="M3899 7767 c7 -7 14 -8 21 -1 6 6 2 10 -12 11 -16 2 -18 -1 -9 -10z"/>
<path d="M5765 7770 c-3 -5 1 -10 10 -10 9 0 13 5 10 10 -3 6 -8 10 -10 10 -2
0 -7 -4 -10 -10z"/>
<path d="M3945 7740 c3 -5 8 -10 11 -10 2 0 4 5 4 10 0 6 -5 10 -11 10 -5 0
-7 -4 -4 -10z"/>
<path d="M5680 7730 c0 -5 5 -10 10 -10 6 0 10 5 10 10 0 6 -4 10 -10 10 -5 0
-10 -4 -10 -10z"/>
<path d="M6280 7728 c0 -9 5 -20 10 -23 13 -8 13 5 0 25 -8 13 -10 13 -10 -2z"/>
<path d="M3971 7718 c-1 -9 -4 -18 -8 -21 -5 -2 -3 -2 4 -1 6 2 14 -2 16 -9 3
-8 12 -4 27 11 26 27 20 43 -6 17 -17 -17 -18 -17 -25 1 -6 16 -8 16 -8 2z"/>
<path d="M5640 7710 c0 -5 5 -10 11 -10 5 0 7 5 4 10 -3 6 -8 10 -11 10 -2 0
-4 -4 -4 -10z"/>
<path d="M5710 7696 c0 -9 5 -16 10 -16 6 0 10 4 10 9 0 6 -4 13 -10 16 -5 3
-10 -1 -10 -9z"/>
<path d="M3990 7653 c0 -7 9 -13 19 -13 11 0 28 -3 38 -6 17 -5 17 -5 1 9 -10
8 -15 16 -12 19 3 3 -6 5 -20 4 -14 0 -26 -7 -26 -13z"/>
<path d="M5590 7658 c0 -9 5 -20 10 -23 13 -8 13 5 0 25 -8 13 -10 13 -10 -2z"/>
<path d="M6258 7653 c7 -3 16 -2 19 1 4 3 -2 6 -13 5 -11 0 -14 -3 -6 -6z"/>
<path d="M4075 7640 c3 -5 8 -10 11 -10 2 0 4 5 4 10 0 6 -5 10 -11 10 -5 0
-7 -4 -4 -10z"/>
<path d="M5510 7640 c0 -5 5 -10 11 -10 5 0 7 5 4 10 -3 6 -8 10 -11 10 -2 0
-4 -4 -4 -10z"/>
<path d="M6187 7610 c-3 -11 -1 -20 4 -20 5 0 9 2 9 4 0 2 3 11 6 20 3 9 2 16
-4 16 -5 0 -12 -9 -15 -20z"/>
<path d="M6216 7585 c-3 -8 -1 -15 4 -15 6 0 10 7 10 15 0 8 -2 15 -4 15 -2 0
-6 -7 -10 -15z"/>
<path d="M5571 7574 c0 -11 3 -14 6 -6 3 7 2 16 -1 19 -3 4 -6 -2 -5 -13z"/>
<path d="M6390 7579 c0 -5 5 -7 10 -4 6 3 10 8 10 11 0 2 -4 4 -10 4 -5 0 -10
-5 -10 -11z"/>
<path d="M5510 7576 c0 -2 9 -6 20 -9 11 -3 20 -1 20 4 0 5 -9 9 -20 9 -11 0
-20 -2 -20 -4z"/>
<path d="M6140 7570 c0 -5 9 -10 20 -10 11 0 20 5 20 10 0 6 -9 10 -20 10 -11
0 -20 -4 -20 -10z"/>
<path d="M6580 7558 c0 -16 5 -28 10 -28 13 0 13 20 0 40 -8 12 -10 9 -10 -12z"/>
<path d="M4356 7524 c-9 -24 -7 -27 9 -10 17 17 19 26 6 26 -5 0 -12 -7 -15
-16z"/>
<path d="M6704 7468 c13 -35 34 -85 46 -113 33 -76 41 -136 41 -298 -1 -112
-5 -169 -20 -230 -23 -94 -70 -241 -111 -342 -51 -124 -161 -418 -180 -480
-11 -33 -33 -99 -50 -148 -29 -82 -32 -116 -8 -101 6 4 8 -1 5 -12 -4 -11 -9
-31 -13 -46 -3 -16 -9 -26 -13 -24 -3 2 -6 -8 -7 -23 -1 -15 -13 -52 -27 -82
-27 -54 -32 -63 -98 -174 -48 -79 -124 -225 -106 -202 20 24 30 21 17 -4 -15
-26 -6 -36 17 -18 15 12 16 12 8 -1 -8 -13 -7 -13 8 -1 9 7 17 20 17 27 0 8 5
14 10 14 6 0 10 6 10 13 0 17 58 135 59 119 1 -8 -14 -64 -33 -125 -18 -62
-57 -204 -86 -317 -28 -113 -76 -284 -105 -380 -30 -96 -77 -256 -104 -355
-66 -234 -66 -234 -95 -345 -14 -52 -41 -158 -61 -235 -60 -228 -168 -652
-281 -1095 -57 -228 -106 -419 -109 -425 -2 -5 -3 88 -2 207 2 203 1 217 -15
212 -17 -5 -18 20 -17 408 0 382 -2 462 -16 698 -22 348 -68 590 -170 890 -83
248 -125 400 -125 455 0 20 -4 45 -10 55 -7 13 -6 21 5 30 7 6 17 26 20 43 4
18 19 68 33 112 35 102 156 288 191 293 18 3 22 0 18 -12 -4 -10 -1 -13 9 -9
10 4 12 0 8 -11 -5 -12 -2 -15 9 -10 12 4 18 -2 23 -21 5 -19 9 -23 15 -14 6
11 9 9 15 -4 4 -10 13 -16 21 -13 8 3 11 1 8 -4 -8 -13 -5 -12 33 1 18 6 29
15 26 21 -4 6 4 8 17 7 13 -2 30 0 37 4 7 5 12 4 12 -2 0 -6 5 -11 11 -11 43
0 -391 459 -509 539 -36 24 -74 40 -102 44 -24 3 -46 11 -48 16 -5 16 -22 13
-22 -4 0 -8 -9 -15 -19 -15 -11 0 -26 -3 -35 -6 -11 -4 -16 -1 -16 10 0 14 -3
15 -22 5 -98 -52 -341 -276 -443 -408 -48 -63 -48 -64 -21 -57 26 6 27 6 12
-9 -18 -18 -22 -45 -6 -45 6 0 10 -8 10 -18 0 -21 33 -56 43 -45 4 3 7 -4 7
-17 0 -22 1 -23 13 -5 9 11 19 15 27 10 10 -6 12 -3 8 13 -4 12 -2 20 3 17 4
-3 14 3 21 15 18 28 45 25 62 -7 27 -54 89 -279 93 -343 3 -41 11 -69 20 -77
9 -7 12 -17 7 -25 -8 -13 -17 -61 -33 -184 -15 -114 -48 -228 -123 -424 -147
-383 -193 -541 -263 -896 -61 -310 -147 -1088 -159 -1443 -4 -96 -9 -177 -11
-180 -3 -2 -5 12 -5 33 0 24 -4 35 -11 31 -6 -4 -8 -13 -5 -21 3 -8 2 -14 -2
-14 -4 0 -8 -8 -9 -17 0 -10 -3 -47 -6 -83 -3 -36 -9 -121 -13 -190 l-8 -125
-12 70 c-20 115 -75 447 -94 575 -5 36 -26 166 -45 290 -63 401 -105 759 -135
1145 -6 77 -15 196 -20 265 -6 69 -17 220 -25 335 -9 116 -22 289 -30 385 -8
96 -17 216 -20 265 -4 50 -13 169 -20 265 -8 96 -17 263 -20 370 -4 107 -9
203 -11 213 -3 9 -1 17 5 17 6 0 12 -10 12 -22 1 -13 3 -34 6 -48 2 -14 5 -33
6 -42 1 -9 4 -15 8 -12 9 5 23 -26 27 -63 1 -7 7 -13 12 -13 7 0 7 6 0 20 -9
17 -8 20 7 20 16 1 16 2 -2 17 -17 14 -18 15 -2 9 15 -5 17 -2 12 14 -4 12 -2
20 4 20 7 0 5 14 -5 38 -60 137 -86 215 -94 282 -5 41 -16 113 -25 160 -9 47
-27 157 -41 245 -13 88 -29 192 -35 230 -14 86 -13 454 1 590 15 154 17 176 9
167 -4 -4 -39 -55 -78 -115 -102 -156 -308 -413 -366 -458 -11 -9 -87 -44
-170 -79 -172 -73 -463 -200 -580 -255 -77 -35 -100 -45 -285 -122 -47 -19
-98 -41 -115 -48 -16 -7 -41 -16 -54 -20 -13 -4 -139 -52 -280 -107 -141 -55
-314 -122 -386 -150 -318 -122 -412 -159 -437 -173 -14 -8 -31 -15 -37 -15
-25 0 -276 -116 -350 -162 -30 -19 -59 -28 -85 -28 -82 0 -178 -66 -245 -167
l-31 -46 0 -2664 0 -2663 5120 0 5120 0 0 2693 0 2693 -292 144 c-161 78 -340
163 -397 188 -58 24 -164 75 -235 112 -72 38 -192 96 -266 130 -74 34 -360
173 -635 310 -485 241 -732 355 -940 435 -92 35 -106 44 -175 114 -42 42 -100
105 -130 141 -29 36 -83 94 -120 130 -36 36 -103 121 -150 190 -81 121 -166
222 -202 241 -16 9 -15 3 6 -53z m-231 -1583 c-3 -9 -8 -14 -10 -11 -3 3 -2 9
2 15 9 16 15 13 8 -4z m-30 -80 c-3 -9 -8 -14 -10 -11 -3 3 -2 9 2 15 9 16 15
13 8 -4z m-883 -386 c0 -6 -4 -7 -10 -4 -5 3 -10 11 -10 16 0 6 5 7 10 4 6 -3
10 -11 10 -16z"/>
<path d="M6087 7496 c-12 -9 -14 -16 -7 -21 5 -3 8 -11 5 -16 -4 -5 -4 -9 -1
-9 2 0 11 14 20 30 16 33 11 37 -17 16z"/>
<path d="M4376 7475 c-11 -8 -18 -17 -15 -19 2 -3 15 4 29 14 14 11 21 20 15
19 -5 0 -19 -6 -29 -14z"/>
<path d="M4452 7470 c-7 -11 -12 -30 -11 -42 1 -21 1 -21 11 5 5 15 14 25 18
22 14 -9 21 12 7 23 -9 8 -16 6 -25 -8z"/>
<path d="M6040 7480 c0 -5 5 -10 10 -10 6 0 10 5 10 10 0 6 -4 10 -10 10 -5 0
-10 -4 -10 -10z"/>
<path d="M6125 7480 c-3 -5 -1 -10 4 -10 6 0 11 5 11 10 0 6 -2 10 -4 10 -3 0
-8 -4 -11 -10z"/>
<path d="M6570 7480 c0 -5 5 -10 11 -10 5 0 7 5 4 10 -3 6 -8 10 -11 10 -2 0
-4 -4 -4 -10z"/>
<path d="M5250 7470 c0 -5 5 -10 11 -10 5 0 7 5 4 10 -3 6 -8 10 -11 10 -2 0
-4 -4 -4 -10z"/>
<path d="M6605 7470 c3 -5 8 -10 11 -10 2 0 4 5 4 10 0 6 -5 10 -11 10 -5 0
-7 -4 -4 -10z"/>
<path d="M4518 7463 c-10 -2 -18 -9 -18 -14 0 -6 8 -5 20 1 11 6 20 13 20 15
0 3 -1 4 -2 4 -2 -1 -11 -3 -20 -6z"/>
<path d="M6592 7440 c0 -14 2 -19 5 -12 2 6 2 18 0 25 -3 6 -5 1 -5 -13z"/>
<path d="M5150 7440 c-8 -5 -10 -10 -5 -10 6 0 17 5 25 10 8 5 11 10 5 10 -5
0 -17 -5 -25 -10z"/>
<path d="M4882 7428 c-7 -7 -12 -20 -12 -31 0 -10 -4 -15 -10 -12 -5 3 -10 -1
-10 -10 0 -22 17 -10 36 27 17 32 15 45 -4 26z"/>
<path d="M4980 7420 c0 -5 5 -10 10 -10 6 0 10 5 10 10 0 6 -4 10 -10 10 -5 0
-10 -4 -10 -10z"/>
<path d="M4717 7403 c-12 -11 -8 -23 9 -23 8 0 13 4 9 9 -3 5 3 12 12 14 15 4
14 5 -3 6 -11 0 -24 -2 -27 -6z"/>
<path d="M6046 7384 c-5 -14 -4 -15 9 -4 17 14 19 20 6 20 -5 0 -12 -7 -15
-16z"/>
<path d="M3920 7370 c0 -11 4 -20 9 -20 5 0 7 9 4 20 -3 11 -7 20 -9 20 -2 0
-4 -9 -4 -20z"/>
<path d="M4970 7380 c0 -5 5 -10 10 -10 6 0 10 5 10 10 0 6 -4 10 -10 10 -5 0
-10 -4 -10 -10z"/>
<path d="M6598 7367 c-3 -19 -2 -25 4 -19 6 6 8 18 6 28 -3 14 -5 12 -10 -9z"/>
<path d="M5936 7297 c-11 -8 -17 -19 -15 -24 2 -6 12 0 22 13 20 27 19 30 -7
11z"/>
<path d="M5985 7300 c-3 -5 -2 -10 4 -10 5 0 13 5 16 10 3 6 2 10 -4 10 -5 0
-13 -4 -16 -10z"/>
<path d="M6556 7225 c-9 -26 -7 -32 5 -12 6 10 9 21 6 23 -2 3 -7 -2 -11 -11z"/>
<path d="M5835 7190 c-3 -5 -1 -10 4 -10 6 0 11 5 11 10 0 6 -2 10 -4 10 -3 0
-8 -4 -11 -10z"/>
<path d="M4087 7161 c18 -18 30 -37 27 -42 -3 -5 0 -9 6 -9 22 0 5 33 -30 58
l-35 26 32 -33z"/>
<path d="M5770 7180 c-13 -8 -12 -10 3 -10 9 0 17 5 17 10 0 12 -1 12 -20 0z"/>
<path d="M6533 7168 c-6 -13 -37 -52 -69 -87 -33 -35 -63 -71 -67 -80 -12 -24
100 98 130 142 14 20 24 40 21 42 -3 3 -9 -5 -15 -17z"/>
<path d="M5801 7162 c-10 -18 -9 -21 4 -16 11 5 15 -1 16 -22 1 -21 3 -23 6
-9 2 12 0 32 -5 45 l-9 24 -12 -22z"/>
<path d="M4140 7097 c0 -10 8 -17 18 -17 9 0 13 4 7 8 -5 4 -13 11 -17 16 -5
5 -8 2 -8 -7z"/>
<path d="M5690 7085 c-8 -9 -8 -15 -2 -15 12 0 26 19 19 26 -2 2 -10 -2 -17
-11z"/>
<path d="M5740 7080 c0 -5 5 -10 11 -10 5 0 7 5 4 10 -3 6 -8 10 -11 10 -2 0
-4 -4 -4 -10z"/>
<path d="M5746 7038 c-20 -28 -21 -44 -1 -28 8 7 13 16 10 20 -3 5 1 10 7 13
7 2 10 7 7 11 -4 4 -14 -3 -23 -16z"/>
<path d="M5705 7040 c-3 -5 -1 -10 4 -10 6 0 11 5 11 10 0 6 -2 10 -4 10 -3 0
-8 -4 -11 -10z"/>
<path d="M5675 7020 c-3 -5 -1 -10 4 -10 6 0 11 5 11 10 0 6 -2 10 -4 10 -3 0
-8 -4 -11 -10z"/>
<path d="M4340 7000 c0 -5 5 -10 11 -10 5 0 7 5 4 10 -3 6 -8 10 -11 10 -2 0
-4 -4 -4 -10z"/>
<path d="M5600 6981 c-6 -12 -7 -21 -1 -21 10 0 24 30 17 37 -2 3 -9 -5 -16
-16z"/>
<path d="M5459 6958 c-12 -23 -12 -23 10 -4 23 21 26 26 11 26 -5 0 -15 -10
-21 -22z"/>
<path d="M6360 6970 c-9 -6 -10 -10 -3 -10 6 0 15 5 18 10 8 12 4 12 -15 0z"/>
<path d="M4600 6940 c-13 -8 -12 -10 3 -10 9 0 17 5 17 10 0 12 -1 12 -20 0z"/>
<path d="M5340 6924 c0 -14 3 -14 15 -4 8 7 15 14 15 16 0 2 -7 4 -15 4 -8 0
-15 -7 -15 -16z"/>
<path d="M4645 6920 c3 -5 10 -10 16 -10 5 0 9 5 9 10 0 6 -7 10 -16 10 -8 0
-12 -4 -9 -10z"/>
<path d="M6284 6898 l-19 -23 23 19 c21 18 27 26 19 26 -2 0 -12 -10 -23 -22z"/>
<path d="M4760 6899 c0 -5 9 -9 19 -9 11 0 23 -4 26 -10 3 -5 11 -10 18 -10
14 0 -33 34 -50 36 -7 1 -13 -2 -13 -7z"/>
<path d="M4850 6880 c-13 -8 -12 -10 3 -10 9 0 17 5 17 10 0 12 -1 12 -20 0z"/>
<path d="M4900 6881 c0 -5 7 -11 14 -14 10 -4 13 -1 9 9 -6 15 -23 19 -23 5z"/>
<path d="M5280 6879 c0 -5 5 -7 10 -4 6 3 10 8 10 11 0 2 -4 4 -10 4 -5 0 -10
-5 -10 -11z"/>
<path d="M4982 6871 c-9 -5 -4 -8 16 -7 17 1 28 4 25 9 -6 9 -25 9 -41 -2z"/>
<path d="M5311 6864 c0 -11 3 -14 6 -6 3 7 2 16 -1 19 -3 4 -6 -2 -5 -13z"/>
<path d="M5048 6833 c6 -2 18 -2 25 0 6 3 1 5 -13 5 -14 0 -19 -2 -12 -5z"/>
<path d="M6019 6693 c-13 -16 -12 -17 4 -4 16 13 21 21 13 21 -2 0 -10 -8 -17
-17z"/>
<path d="M4550 6302 c0 -4 10 -13 23 -21 22 -14 22 -14 3 8 -20 22 -26 25 -26
13z"/>
<path d="M6390 5728 c0 -19 2 -20 10 -8 13 19 13 30 0 30 -5 0 -10 -10 -10
-22z"/>
<path d="M5420 2586 c0 -30 -3 -62 -7 -72 -4 -11 -2 -15 7 -12 15 5 22 138 8
138 -5 0 -8 -24 -8 -54z"/>
</g>
</svg>
