<?xml version="1.0" standalone="no"?>
<!DOCTYPE svg PUBLIC "-//W3C//DTD SVG 20010904//EN"
 "http://www.w3.org/TR/2001/REC-SVG-20010904/DTD/svg10.dtd">
<svg version="1.0" xmlns="http://www.w3.org/2000/svg"
 width="1600.000000pt" height="1600.000000pt" viewBox="0 0 1600.000000 1600.000000"
 preserveAspectRatio="xMidYMid meet">

<g transform="translate(0.000000,1600.000000) scale(0.100000,-0.100000)"
fill="#000000" stroke="none">
<path d="M8357 10884 c-329 -39 -631 -161 -892 -358 -97 -73 -238 -208 -308
-293 l-50 -63 -308 0 -307 0 -7 30 c-3 16 -23 55 -44 87 -81 125 -201 203
-343 224 -192 28 -391 -79 -480 -258 -71 -142 -72 -283 -2 -421 36 -74 115
-160 181 -199 143 -84 336 -83 482 2 60 35 141 116 167 167 l15 28 412 0 413
0 47 68 c231 335 565 554 965 632 145 28 399 28 544 0 162 -32 269 -69 410
-141 169 -87 324 -209 444 -351 65 -76 164 -215 164 -230 0 -5 -108 -8 -241
-8 l-241 0 -71 66 c-402 368 -999 384 -1429 38 -185 -149 -310 -354 -374 -614
-27 -105 -26 -345 0 -450 44 -178 115 -328 217 -456 139 -175 352 -313 576
-375 112 -30 358 -38 474 -14 211 42 386 131 537 271 l70 64 241 0 c133 0 241
-4 241 -9 0 -15 -89 -142 -156 -222 -157 -189 -391 -350 -634 -437 -123 -44
-198 -61 -350 -79 -160 -18 -329 -8 -497 32 -420 100 -766 369 -975 760 l-53
100 -356 3 -356 2 -24 52 c-13 29 -51 80 -84 114 -94 96 -206 144 -339 144
-233 0 -430 -173 -467 -410 -33 -213 105 -438 314 -509 218 -75 464 21 572
222 l20 37 260 0 261 0 18 -32 c80 -139 264 -347 411 -465 338 -272 789 -419
1220 -399 430 20 828 182 1148 470 245 219 395 450 527 811 10 28 25 69 34 93
9 23 16 47 16 52 0 6 -208 10 -580 10 l-579 0 -53 -66 c-279 -348 -794 -382
-1107 -73 -125 123 -190 250 -218 423 -32 204 18 395 149 570 84 112 216 204
366 254 68 23 94 26 222 26 127 1 154 -2 215 -23 151 -50 284 -141 367 -251
l53 -69 583 0 c320 -1 582 2 582 7 0 23 -125 342 -165 422 -220 439 -624 781
-1092 924 -127 39 -202 55 -339 71 -152 18 -269 17 -417 -1z m-2240 -656 c40
-12 108 -87 117 -129 29 -146 -58 -259 -200 -259 -44 0 -66 6 -99 26 -101 64
-128 177 -69 281 51 88 137 116 251 81z m11 -1727 c121 -62 151 -224 60 -319
-47 -48 -83 -64 -149 -65 -116 -1 -203 86 -202 203 1 82 40 144 118 184 42 22
127 20 173 -3z"/>
<path d="M4786 9629 c-65 -15 -158 -71 -217 -130 -67 -67 -111 -154 -129 -256
-39 -221 99 -449 318 -522 83 -28 216 -29 297 -1 114 39 218 127 269 229 l26
51 693 0 693 0 12 -117 c19 -182 -5 -163 199 -163 161 0 174 1 169 18 -23 83
-30 157 -30 327 0 199 14 299 64 454 11 35 20 65 20 67 0 2 -80 4 -179 4
l-179 0 -20 -82 c-11 -46 -23 -102 -27 -125 l-7 -43 -704 0 -704 0 -26 52
c-54 107 -187 210 -307 238 -52 12 -178 11 -231 -1z m219 -281 c128 -67 140
-248 22 -342 -36 -29 -44 -31 -120 -31 -76 0 -85 2 -121 30 -45 34 -86 113
-86 165 0 38 31 113 58 143 55 62 166 77 247 35z"/>
<path d="M5930 6524 c-94 -30 -175 -112 -216 -219 -30 -78 -27 -268 5 -353 29
-77 95 -153 165 -190 46 -25 61 -27 161 -27 101 0 115 3 168 29 56 28 137 106
137 132 0 11 -87 52 -93 43 -2 -2 -13 -18 -25 -36 -53 -75 -192 -101 -287 -53
-56 29 -106 94 -127 163 -20 65 -16 203 7 265 41 111 115 165 225 166 77 0
132 -24 177 -78 27 -33 31 -35 63 -26 65 19 68 24 33 72 -61 86 -154 129 -277
127 -39 0 -91 -7 -116 -15z"/>
<path d="M6743 6526 c-133 -43 -219 -156 -244 -318 -31 -194 56 -379 211 -452
37 -17 64 -21 155 -21 100 0 115 3 162 28 94 49 156 128 188 241 24 81 17 229
-14 309 -30 77 -113 167 -183 198 -65 28 -210 36 -275 15z m227 -106 c95 -49
142 -141 144 -280 1 -103 -20 -170 -70 -229 -118 -138 -330 -106 -405 61 -20
45 -24 69 -24 163 0 121 18 181 73 238 71 75 189 95 282 47z"/>
<path d="M9823 6526 c-131 -42 -217 -153 -244 -317 -23 -143 19 -288 111 -379
77 -78 123 -95 255 -95 97 0 115 3 155 24 150 79 219 214 207 406 -7 112 -17
147 -66 222 -43 67 -108 115 -185 138 -60 18 -176 18 -233 1z m224 -104 c48
-25 90 -66 113 -112 76 -152 36 -365 -83 -446 -123 -83 -296 -31 -358 108 -19
45 -23 70 -23 163 -1 120 13 167 69 233 66 78 188 102 282 54z"/>
<path d="M7410 6135 l0 -395 146 0 c216 0 323 29 402 108 75 75 109 198 97
342 -13 144 -71 238 -179 290 -78 37 -163 50 -333 50 l-133 0 0 -395z m352
281 c120 -28 169 -100 176 -258 7 -153 -29 -238 -123 -286 -43 -22 -66 -26
-167 -30 l-118 -4 0 296 0 296 88 0 c48 0 113 -6 144 -14z"/>
<path d="M8230 6485 l0 -45 55 0 55 0 -2 -302 -3 -303 -52 -3 -53 -3 0 -45 0
-44 165 0 165 0 0 45 0 45 -55 0 -55 0 0 305 0 305 55 0 55 0 0 45 0 45 -165
0 -165 0 0 -45z"/>
<path d="M8760 6135 l0 -395 55 0 55 0 0 326 c0 194 4 323 9 320 5 -4 37 -59
71 -124 35 -64 85 -160 113 -212 29 -52 77 -142 107 -200 l56 -105 82 -3 82
-3 0 396 0 395 -55 0 -55 0 -2 -327 -3 -328 -59 110 c-85 159 -122 227 -184
345 -31 58 -68 125 -82 150 l-26 45 -82 3 -82 3 0 -396z"/>
<path d="M6455 5180 c-12 -20 7 -30 56 -30 l49 0 0 -130 c0 -109 2 -130 15
-130 13 0 15 21 15 129 l0 130 53 3 c38 2 52 7 52 18 0 12 -21 16 -117 18 -72
2 -119 -1 -123 -8z"/>
<path d="M6757 5183 c-4 -3 -7 -71 -7 -150 l0 -143 110 0 c91 0 110 3 110 15
0 12 -17 15 -90 15 l-90 0 0 50 0 50 80 0 c61 0 80 3 80 14 0 18 -28 25 -100
23 l-60 -2 0 48 0 47 90 0 c83 0 90 1 90 20 0 19 -7 20 -103 20 -57 0 -107 -3
-110 -7z"/>
<path d="M7093 5174 c-50 -25 -73 -70 -73 -142 0 -54 4 -65 31 -97 56 -64 143
-68 205 -10 58 55 38 78 -23 25 -54 -47 -126 -38 -164 22 -41 67 -2 167 72
182 37 7 94 -15 109 -43 12 -23 40 -28 40 -7 0 19 -45 64 -75 76 -38 14 -85
12 -122 -6z"/>
<path d="M7357 5184 c-4 -4 -7 -72 -7 -151 0 -136 1 -143 20 -143 18 0 20 7
20 65 l0 65 85 0 85 0 0 -65 c0 -51 3 -65 15 -65 13 0 15 23 15 150 0 127 -2
150 -15 150 -12 0 -15 -14 -15 -64 0 -35 -4 -66 -10 -68 -5 -1 -43 -2 -84 0
l-75 4 -3 60 c-3 57 -14 79 -31 62z"/>
<path d="M7680 5040 c0 -143 1 -150 20 -150 18 0 20 8 22 116 l3 115 84 -115
c66 -91 89 -116 108 -116 l24 0 -3 148 c-3 123 -5 147 -18 147 -12 0 -16 -22
-20 -120 l-5 -119 -88 122 c-122 169 -127 167 -127 -28z"/>
<path d="M8082 5173 c-93 -46 -108 -180 -27 -251 98 -87 245 -18 245 115 0
115 -115 187 -218 136z m136 -40 c24 -15 52 -68 52 -99 0 -9 -7 -31 -16 -50
-48 -100 -196 -75 -211 34 -15 109 83 173 175 115z"/>
<path d="M8377 5183 c-4 -3 -7 -71 -7 -150 l0 -144 95 3 c116 4 132 22 23 26
l-78 3 -2 107 c0 59 -2 112 -3 117 -2 6 -3 18 -4 28 -1 17 -12 22 -24 10z"/>
<path d="M8680 5171 c-48 -26 -72 -62 -78 -119 -5 -59 13 -100 64 -138 69 -53
175 -29 215 48 70 137 -68 281 -201 209z m140 -40 c30 -22 52 -80 44 -121 -7
-35 -47 -78 -81 -86 -76 -19 -143 35 -143 116 0 41 5 53 30 79 44 44 98 48
150 12z"/>
<path d="M9022 5170 c-47 -29 -72 -76 -72 -135 0 -67 28 -111 86 -136 51 -23
91 -19 137 13 27 19 27 19 27 -1 0 -12 7 -21 15 -21 12 0 15 16 15 80 l0 81
-67 -3 c-53 -2 -68 -6 -68 -18 0 -11 14 -16 53 -18 43 -3 53 -6 48 -18 -3 -9
-6 -20 -6 -25 0 -16 -63 -49 -93 -49 -42 0 -82 25 -101 64 -22 46 -20 77 7
117 41 60 122 71 172 22 16 -16 31 -23 41 -19 15 6 14 10 -7 33 -50 54 -130
68 -187 33z"/>
<path d="M9277 5184 c-3 -4 21 -45 53 -93 56 -81 60 -90 60 -144 0 -50 2 -57
20 -57 18 0 20 7 20 61 0 58 3 65 55 140 30 43 55 83 55 89 0 25 -33 6 -63
-37 -17 -25 -41 -58 -53 -71 l-21 -25 -48 71 c-44 67 -62 82 -78 66z"/>
</g>
</svg>
