<svg width="32" height="32" viewBox="0 0 32 32" fill="none" xmlns="http://www.w3.org/2000/svg">
  <rect width="32" height="32" rx="8" fill="#2563EB"/>
  <path d="M8 16C8 12.6863 10.6863 10 14 10H18C21.3137 10 24 12.6863 24 16C24 19.3137 21.3137 22 18 22H14C10.6863 22 8 19.3137 8 16Z" fill="white"/>
  <circle cx="14" cy="16" r="2" fill="#2563EB"/>
  <circle cx="18" cy="16" r="2" fill="#2563EB"/>
  <path d="M12 8L12 6C12 5.44772 12.4477 5 13 5H19C19.5523 5 20 5.44772 20 6V8" stroke="white" stroke-width="2" stroke-linecap="round"/>
  <path d="M12 24L12 26C12 26.5523 12.4477 27 13 27H19C19.5523 27 20 26.5523 20 26V24" stroke="white" stroke-width="2" stroke-linecap="round"/>
</svg>